<svg xmlns="http://www.w3.org/2000/svg" width="156" height="31" viewBox="0 0 231 40" fill="none"><g clip-path="url(#clip0_969_24929)"><path d="M34.2086 23.8737C33.5182 24.2956 32.7128 24.3723 32.0992 24.0271C31.3321 23.5669 30.8719 22.5314 30.8719 21.1123V16.7784C30.8719 14.7074 30.0665 13.2116 28.6858 12.8281C26.3462 12.1377 24.582 15.0142 23.93 16.0881L19.788 22.7231V14.554C19.7496 12.6747 19.136 11.5624 17.9854 11.2173C17.2183 10.9871 16.0678 11.1022 14.9555 12.7897L5.71246 27.594C4.48517 25.2544 3.83317 22.6464 3.83317 20.0001C3.83317 11.0638 11.0052 3.81514 19.788 3.81514C28.5707 3.81514 35.7427 11.0638 35.7427 20.0001V20.0384V20.0768C35.8194 21.8027 35.2825 23.1834 34.2086 23.8737ZM39.2712 20.0001V19.9617V19.9234C39.2328 9.06949 30.4883 0.209961 19.788 0.209961C9.04917 0.209961 0.304688 9.06949 0.304688 20.0001C0.304688 30.8923 9.04917 39.7902 19.788 39.7902C24.7354 39.7902 29.4145 37.9109 33.0196 34.4975C33.7483 33.8071 33.7867 32.6949 33.0963 31.9662C32.4443 31.2375 31.3321 31.1991 30.6034 31.8511C30.6034 31.8511 30.6034 31.8511 30.565 31.8895C27.6502 34.6509 23.7382 36.2234 19.7113 36.2234C14.9939 36.2234 10.775 34.1523 7.86023 30.854L16.1828 17.5071V23.682C16.1828 26.6351 17.3334 27.594 18.2922 27.8624C19.251 28.1309 20.7085 27.9391 22.2809 25.4462L26.8448 18.0441C26.9982 17.814 27.1133 17.5838 27.2667 17.4304V21.189C27.2667 23.9504 28.3789 26.1749 30.2966 27.2488C32.0225 28.246 34.2086 28.1309 36.0112 27.0187C38.2356 25.5613 39.4246 23.03 39.2712 20.0001ZM66.425 13.25C66.8853 13.5184 67.3072 14.1704 67.3072 14.7457C67.3072 15.6662 66.5401 16.4333 65.658 16.4333C65.4279 16.4333 65.2361 16.3565 65.0443 16.3182C64.0088 15.5511 62.7048 15.0525 61.3241 15.0525C58.0641 15.0525 55.8396 17.6989 55.8396 20.9973C55.8396 24.2956 58.1025 26.9036 61.3241 26.9036C62.9349 26.9036 64.3923 26.2516 65.4662 25.2161C65.7347 25.0243 66.0799 24.9093 66.425 24.9093C67.3072 24.9093 67.9975 25.5996 67.9975 26.4817C67.9975 27.057 67.6523 27.5556 67.2305 27.8241C65.658 29.1664 63.5486 30.0485 61.3625 30.0485C56.3766 30.0485 52.3112 25.9448 52.3112 20.8822C52.3112 15.8196 56.3766 11.7158 61.3625 11.7158C63.2034 11.6775 64.9676 12.2528 66.425 13.25ZM75.553 17.0853C78.9665 17.0853 81.8046 19.9617 81.8046 23.5285C81.8046 27.057 78.9281 30.0869 75.553 30.0869C71.9862 30.0869 69.0331 27.0954 69.0331 23.5285C69.0331 19.9617 71.9862 17.0853 75.553 17.0853ZM75.5147 26.9036C77.0105 26.9036 78.2761 25.4845 78.2761 23.5669C78.2761 21.6493 77.0105 20.422 75.5147 20.422C73.9039 20.422 72.5615 21.6109 72.5615 23.5669C72.5615 25.4462 73.9039 26.9036 75.5147 26.9036ZM83.9523 28.0925V19.0413C83.9523 18.0441 84.7194 17.2387 85.7166 17.2387C86.6754 17.2387 87.4808 18.0441 87.4808 19.0413V28.0925C87.4808 29.0897 86.6754 29.8951 85.7166 29.8951C84.7578 29.8951 83.9523 29.0514 83.9523 28.0925ZM83.6839 13.8253C83.6839 12.6363 84.6043 11.7158 85.7166 11.7158C86.8672 11.7158 87.7876 12.6747 87.7876 13.8253C87.7876 14.9758 86.8672 15.8963 85.7166 15.8963C84.566 15.858 83.6839 14.9375 83.6839 13.8253ZM94.2309 23.1834V28.0925C94.2309 29.0897 93.4255 29.8951 92.4667 29.8951C91.5079 29.8951 90.7025 29.0897 90.7025 28.0925V18.6194C90.7025 17.8523 91.3161 17.2387 92.0832 17.2387C92.8502 17.2387 93.4255 17.8907 93.4255 18.6194C94.8446 17.277 96.1102 17.0853 97.2992 17.0853C100.828 17.0853 102.4 19.7316 102.4 22.7615V28.0925C102.4 29.0897 101.595 29.8951 100.636 29.8951C99.677 29.8951 98.8716 29.0897 98.8716 28.0925V23.1834C98.8716 21.6493 98.6799 20.3453 96.4554 20.3453C94.8829 20.3453 94.2309 21.6493 94.2309 23.1834ZM113.829 25.0627C113.407 25.0627 113.139 24.8709 112.909 24.6024L108.805 20.1535V28.0925C108.805 29.0897 108 29.8951 107.041 29.8951C106.082 29.8951 105.277 29.0897 105.277 28.0925V12.3678C105.392 12.0994 105.66 11.9076 105.929 11.9076C106.235 11.9076 106.504 12.1761 106.696 12.3678L113.254 19.7316C113.446 19.9617 113.676 20.0768 113.829 20.0768C113.944 20.0768 114.213 19.9617 114.405 19.7316L120.963 12.3678C121.155 12.1761 121.385 11.9076 121.73 11.9076C122.037 11.9076 122.305 12.0994 122.382 12.3678V28.0925C122.382 29.0897 121.615 29.8951 120.618 29.8951C119.659 29.8951 118.854 29.0897 118.854 28.0925V20.1535L114.75 24.6024C114.443 24.8709 114.174 25.0627 113.829 25.0627ZM130.781 26.9036C132.354 26.9036 133.696 25.4845 133.696 23.5669C133.696 21.6493 132.315 20.3836 130.781 20.3836C129.247 20.3836 127.982 21.6876 127.982 23.5669C127.982 25.4078 129.209 26.9036 130.781 26.9036ZM134.54 28.5144L134.463 28.0925C133.773 29.4349 131.587 30.0485 130.206 30.0485C126.908 30.0485 124.453 27.057 124.453 23.4902C124.453 19.9617 126.946 17.0469 130.398 17.0469C130.973 17.0469 132.967 17.2003 134.502 19.0029L134.578 18.581C134.578 17.814 135.154 17.2003 135.921 17.2003C136.688 17.2003 137.301 17.8523 137.301 18.581V28.4761C137.301 29.2431 136.688 29.8568 135.921 29.8568C135.115 29.8951 134.54 29.2431 134.54 28.5144ZM147.005 20.3453H146.621C144.397 20.4603 143.975 21.726 143.975 23.1834V28.0925C143.975 29.0897 143.169 29.8951 142.21 29.8951C141.252 29.8951 140.446 29.0897 140.446 28.0925V18.6194C140.446 17.8523 141.06 17.2387 141.827 17.2387C142.594 17.2387 143.169 17.8907 143.169 18.6194C144.473 17.3921 145.547 17.1236 146.621 17.0853H146.966C147.81 17.0853 148.577 17.814 148.577 18.7344C148.615 19.5782 147.848 20.3453 147.005 20.3453ZM160.62 27.2488C160.773 27.5173 160.888 27.7857 160.888 28.0925C160.888 29.013 160.045 29.8568 159.124 29.8568C158.51 29.8568 157.974 29.3965 157.552 28.8596L153.486 24.1422V28.0542C153.486 29.0514 152.681 29.8568 151.722 29.8568C150.763 29.8568 149.958 29.0514 149.958 28.0542V13.6718C149.958 12.6747 150.725 11.8693 151.722 11.8693C152.719 11.8693 153.486 12.6747 153.486 13.6718V22.6464L157.552 18.1591C157.974 17.6989 158.472 17.2003 159.086 17.2003C159.968 17.2003 160.773 18.0057 160.773 18.9262C160.773 19.1947 160.697 19.5015 160.543 19.7316L157.322 23.2601L160.62 27.2488ZM167.523 20.3836C166.565 20.3836 164.992 20.8822 164.992 22.378H170.093C170.055 20.8822 168.444 20.3836 167.523 20.3836ZM172.126 24.6408H164.992C164.992 26.7502 167.025 27.0954 167.907 27.0954C168.559 27.0954 169.479 26.9803 170.208 26.6351C170.438 26.4817 170.783 26.3667 171.129 26.3667C171.896 26.3667 172.548 27.0187 172.548 27.8241C172.548 28.361 172.202 28.8213 171.781 29.0897C170.707 29.8951 169.288 30.0869 167.945 30.0869C164.378 30.0869 161.425 28.1693 161.425 23.682C161.425 20.1535 163.228 17.0853 167.447 17.0853C170.86 17.0853 173.43 19.3097 173.506 23.2601C173.506 23.9888 172.893 24.6408 172.126 24.6408ZM181.944 30.0485H180.985C178.301 30.0485 176.728 28.8596 176.728 24.6791V20.3453H175.808C174.964 20.3453 174.235 19.5782 174.235 18.7344C174.235 17.814 175.002 17.0853 175.808 17.0853H176.728V13.7485C176.728 12.7514 177.495 11.946 178.492 11.946C179.451 11.946 180.257 12.7514 180.257 13.7485V17.0853H181.714C182.558 17.0853 183.286 17.814 183.286 18.7344C183.286 19.5782 182.519 20.3453 181.714 20.3453H180.257V23.9888C180.257 26.405 180.372 26.9036 181.446 26.9036H181.944C182.788 26.9036 183.517 27.594 183.517 28.4761C183.517 29.3198 182.788 30.0485 181.944 30.0485ZM199.011 13.25C199.471 13.5184 199.893 14.1704 199.893 14.7457C199.893 15.6662 199.126 16.4333 198.244 16.4333C198.014 16.4333 197.822 16.3565 197.63 16.3182C196.595 15.5511 195.291 15.0525 193.91 15.0525C190.65 15.0525 188.426 17.6989 188.426 20.9973C188.426 24.2956 190.689 26.9036 193.91 26.9036C195.521 26.9036 196.978 26.2516 198.052 25.2161C198.321 25.0243 198.666 24.9093 199.011 24.9093C199.893 24.9093 200.584 25.5996 200.584 26.4817C200.584 27.057 200.238 27.5556 199.817 27.8241C198.244 29.1664 196.135 30.0485 193.949 30.0485C188.963 30.0485 184.897 25.9448 184.897 20.8822C184.897 15.8196 188.963 11.7158 193.949 11.7158C195.79 11.6775 197.592 12.2528 199.011 13.25ZM207.947 26.9036C209.52 26.9036 210.862 25.4845 210.862 23.5669C210.862 21.6493 209.482 20.3836 207.947 20.3836C206.375 20.3836 205.148 21.6876 205.148 23.5669C205.148 25.4078 206.413 26.9036 207.947 26.9036ZM211.706 28.5144L211.629 28.0925C210.939 29.4349 208.753 30.0485 207.372 30.0485C204.074 30.0485 201.619 27.057 201.619 23.4902C201.619 19.9617 204.112 17.0469 207.564 17.0469C208.139 17.0469 210.134 17.2003 211.668 19.0029L211.744 18.581C211.744 17.814 212.32 17.2003 213.087 17.2003C213.854 17.2003 214.467 17.8523 214.467 18.581V28.4761C214.467 29.2431 213.854 29.8568 213.087 29.8568C212.281 29.8951 211.706 29.2431 211.706 28.5144ZM224.094 26.9036C225.666 26.9036 226.894 25.4078 226.894 23.5669C226.894 21.6493 225.628 20.3836 224.094 20.3836C222.522 20.3836 221.179 21.6493 221.179 23.5669C221.179 25.4845 222.522 26.9036 224.094 26.9036ZM221.179 29.013V33.5003C221.179 34.4975 220.374 35.3029 219.415 35.3029C218.456 35.3029 217.651 34.4975 217.651 33.5003V18.6194C217.651 17.8523 218.264 17.2387 219.031 17.2387C219.798 17.2387 220.374 17.8907 220.374 18.7728C221.678 17.4304 223.289 17.0853 224.516 17.0853C227.929 17.0853 230.461 19.9617 230.461 23.5285C230.461 27.057 228.044 30.0869 224.708 30.0869C223.672 30.0485 222.138 29.7417 221.179 29.013Z" fill="#5F6579" fill-opacity="0.4"/></g><defs><clipPath id="clip0_969_24929"><rect width="230.588" height="40" fill="white" transform="translate(0.0878906)"/></clipPath></defs></svg>