<svg xmlns="http://www.w3.org/2000/svg" width="156" height="31" viewBox="0 0 203 40" fill="none"><g clip-path="url(#clip0_969_24905)"><path fill-rule="evenodd" clip-rule="evenodd" d="M126.335 19.0421V32.8572H122.937V19.0421H119.826V16.0788H122.942V13.251C122.942 9.51837 125.428 7.49365 128.474 7.49365C129.596 7.49365 130.295 7.73797 130.442 7.85045V10.7739C130.262 10.7049 129.846 10.5634 129.01 10.5634C127.855 10.5634 126.349 11.1222 126.349 13.4251V16.0788H130.411V19.0433L126.335 19.0421ZM38.0091 32.8572V7.59887H41.3013V32.8572H38.0091ZM21.1791 8.12259C25.9073 8.12259 28.6715 10.913 28.6715 14.8209C28.6715 17.4722 27.1321 19.3566 24.9617 20.167C27.7975 20.865 29.4423 23.3734 29.4423 26.1324C29.4423 30.0392 26.3261 32.8658 21.7739 32.8658H13.0918V8.12259H21.1791ZM20.7943 18.9297C23.5607 18.9297 25.2057 17.2908 25.2057 14.9878C25.2057 12.651 23.4915 11.115 20.6547 11.115H16.5224V18.9297H20.7943ZM21.2847 29.8564C24.0513 29.8564 25.9341 28.3204 25.9341 25.9146C25.9341 23.5416 24.4287 21.8664 21.4181 21.8664H16.5224V29.8564H21.2847ZM57.4017 33.3846C62.4371 33.3846 66.0145 29.582 66.0145 24.4536C66.0145 19.3554 62.4371 15.5587 57.4017 15.5587C52.3663 15.5587 48.7887 19.3614 48.7887 24.4536C48.7887 29.577 52.3651 33.3846 57.4017 33.3846ZM57.4017 18.4882C60.2035 18.4882 62.6531 20.5806 62.6531 24.4536C62.6531 28.3554 60.2009 30.4552 57.4017 30.4552C54.5999 30.4552 52.1501 28.3614 52.1501 24.4536C52.1501 20.5758 54.5987 18.4882 57.4017 18.4882ZM76.8659 24.4536C76.8659 28.2914 79.2817 30.35 82.0129 30.35C85.1631 30.35 86.3189 28.2224 86.7037 26.8968L89.6097 28.1438C88.8049 30.5496 86.3905 33.375 82.0129 33.375C77.1099 33.3798 73.5045 29.5432 73.5045 24.4536C73.5045 19.2224 77.1827 15.5587 81.9777 15.5587C86.4597 15.5587 88.7747 18.3491 89.4715 20.9048L86.4961 22.1506C86.0761 20.5118 84.8511 18.5874 81.9789 18.5874C79.3169 18.5874 76.8659 20.5432 76.8659 24.4536ZM112.33 32.8572L105.011 23.1582L112.19 16.0788H107.638L100.354 23.5076V7.59887H97.0973V32.8572H100.354V27.7978L102.701 25.461L108.199 32.8572H112.33ZM146.534 33.3846C151.569 33.3846 155.146 29.582 155.146 24.4536C155.146 19.3554 151.569 15.5587 146.534 15.5587C141.497 15.5587 137.921 19.3614 137.921 24.4536C137.921 29.577 141.497 33.3846 146.534 33.3846ZM146.534 18.4882C149.334 18.4882 151.785 20.5806 151.785 24.4536C151.785 28.3554 149.338 30.4552 146.537 30.4552C143.735 30.4552 141.285 28.3614 141.285 24.4536C141.285 20.5758 143.733 18.4882 146.534 18.4882ZM162.637 32.8572V7.59887H165.927V32.8572H162.637ZM176.678 7.86255C176.499 7.73937 176.298 7.65309 176.085 7.60883C175.872 7.56457 175.653 7.56321 175.44 7.60483C175.227 7.64645 175.024 7.73021 174.844 7.85115C174.663 7.97211 174.509 8.12781 174.39 8.30905C174.272 8.49031 174.191 8.69343 174.152 8.90645C174.113 9.11947 174.118 9.33805 174.165 9.54931C174.212 9.76057 174.302 9.96023 174.428 10.1365C174.554 10.3127 174.715 10.462 174.9 10.5755C175.261 10.7969 175.694 10.8692 176.108 10.777C176.521 10.6847 176.883 10.4353 177.114 10.0816C177.346 9.72803 177.43 9.29823 177.349 8.88375C177.267 8.46927 177.027 8.10287 176.678 7.86255ZM177.41 16.0764H174.153V32.8572H177.41V16.0764ZM194.249 33.3846C199.285 33.3846 202.862 29.582 202.862 24.4536C202.862 19.3554 199.286 15.5587 194.25 15.5587C189.214 15.5587 185.637 19.3614 185.637 24.4536C185.637 29.577 189.212 33.3846 194.249 33.3846ZM194.249 18.4882C197.05 18.4882 199.501 20.5806 199.501 24.4536C199.501 28.3554 197.049 30.4552 194.249 30.4552C191.448 30.4552 188.998 28.3614 188.998 24.4536C188.998 20.5818 191.446 18.4882 194.249 18.4882Z" fill="#5F6579" fill-opacity="0.4"/><path opacity="0.7" d="M37.7383 39.9571H2.68598C2.35706 39.9573 2.03134 39.8927 1.72743 39.7675C1.42351 39.6421 1.14737 39.4583 0.914791 39.2265C0.682209 38.9949 0.497747 38.7197 0.371949 38.4169C0.246149 38.1141 0.181481 37.7895 0.181641 37.4619V2.53699C0.181641 2.20937 0.246427 1.88496 0.372297 1.58229C0.498167 1.27963 0.682655 1.00463 0.915221 0.773025C1.14779 0.541417 1.42387 0.357733 1.72771 0.232469C2.03154 0.107203 2.35718 0.04281 2.68598 0.042969H37.7383C38.4021 0.0432894 39.0387 0.306155 39.5079 0.773807C39.9773 1.24146 40.2411 1.87564 40.2415 2.53699V4.10695H39.3469V2.53699C39.3465 2.11185 39.1767 1.70422 38.8749 1.40371C38.5731 1.10319 38.1639 0.934385 37.7371 0.934385H2.68478C2.25828 0.934705 1.84935 1.10365 1.54778 1.40413C1.2462 1.70461 1.07663 2.11205 1.07631 2.53699V37.4619C1.07631 37.8869 1.24574 38.2947 1.54735 38.5955C1.84896 38.8963 2.25808 39.0653 2.68478 39.0657H37.7371C38.1641 39.0657 38.5735 38.8967 38.8753 38.5959C39.1773 38.2951 39.3469 37.8871 39.3469 37.4619V36.5933H40.2415V37.4619C40.2417 37.7895 40.1769 38.1141 40.0511 38.4169C39.9253 38.7197 39.7409 38.9949 39.5083 39.2265C39.2757 39.4583 38.9997 39.6421 38.6957 39.7675C38.3917 39.8927 38.0673 39.9573 37.7383 39.9571Z" fill="#5F6579" fill-opacity="0.4"/></g><defs><clipPath id="clip0_969_24905"><rect width="203" height="40" fill="white"/></clipPath></defs></svg>