<svg xmlns="http://www.w3.org/2000/svg" width="156" height="31" viewBox="0 0 193 40" fill="none"><path d="M126.578 36.2104C123.71 36.2104 121.605 35.6577 120.21 34.5525C119.026 33.6577 118.368 32.263 118.368 30.763H124.078C124.341 31.8683 124.815 32.4998 126.657 32.4998C128.683 32.4998 129.526 31.3946 129.526 28.8946V26.6841H129.42C128.71 28.4998 126.868 29.6314 124.894 29.4472C120.183 29.4472 117.789 26.763 117.789 21.5262C117.683 19.2893 118.447 17.1314 119.92 15.4472C121.236 14.0788 123.078 13.3156 124.999 13.342C126.841 13.1577 128.631 14.1051 129.499 15.7367H129.605V13.7104H135.236V28.3683C135.236 31.0525 134.578 32.9735 133.21 34.1841C131.736 35.5525 129.605 36.2104 126.578 36.2104ZM126.762 17.3156C124.92 17.3156 123.815 18.8946 123.815 21.5525C123.815 24.3156 124.815 25.7893 126.657 25.7893C128.236 25.7893 129.499 24.4998 129.499 22.9209V20.8156C129.499 18.6051 128.499 17.3156 126.762 17.3156ZM72.9466 30.6577C70.9203 30.842 68.9203 30.3156 67.2361 29.1841C66.1309 28.2367 65.473 26.8683 65.394 25.3946H70.6572C70.7624 26.4998 71.4993 27.0525 72.8677 27.0525C74.1572 27.0525 74.973 26.5788 74.973 25.6841C74.973 24.9472 74.4993 24.5788 73.3151 24.3946L70.6309 24.0262C67.4203 23.6577 65.6572 21.8156 65.6572 18.9472C65.6309 17.4735 66.2361 16.0788 67.3151 15.0788C70.4993 12.8683 74.7098 12.763 77.9993 14.8156C79.1045 15.7367 79.7361 17.0788 79.7361 18.4998H74.5519C74.5256 17.5525 73.7361 16.8156 72.8151 16.842H72.7098C71.2361 16.842 70.9466 17.4998 70.9466 18.1314C70.9466 18.763 71.2098 19.2367 72.5256 19.4209L75.394 19.7893C76.6572 19.842 77.8677 20.342 78.8151 21.1577C79.7361 22.0525 80.2098 23.3156 80.1045 24.5788C80.3414 28.3683 77.473 30.6841 72.9466 30.6577ZM56.3677 30.5788C51.0256 30.5788 47.973 27.4472 47.973 21.8156C47.894 19.5525 48.6835 17.342 50.1835 15.6314C51.8151 14.0262 54.0782 13.1841 56.3677 13.3156C59.2361 13.3156 61.4466 14.1314 62.8151 15.7104C64.2098 17.4998 64.9203 19.7104 64.8414 21.9735V23.263H53.8677C54.0519 25.6577 54.7888 26.763 56.5519 26.763C57.6045 26.9472 58.6309 26.263 58.8677 25.1841H64.6835C64.2887 28.6314 61.4203 30.5788 56.3677 30.5788ZM56.3677 16.842C54.7887 16.842 54.0519 17.9472 53.8677 20.1577H58.8414V19.9735C58.6572 17.8683 57.8414 16.842 56.3677 16.842ZM162.052 30.4998C160.262 30.6051 158.526 29.9209 157.262 28.6577C156.052 27.263 155.42 25.4472 155.499 23.5788C155.394 21.763 156.026 19.9735 157.262 18.6051C158.552 17.3683 160.262 16.7104 162.052 16.763C166.105 16.763 168.605 19.342 168.605 23.5788C168.605 27.8156 165.999 30.4998 162.052 30.4998ZM162.052 19.4472C159.92 19.4472 159.473 21.763 159.473 23.6841C159.473 26.5525 160.394 27.9209 162.052 27.9209C163.71 27.9209 164.631 26.4472 164.631 23.6841C164.631 20.9209 163.71 19.4472 162.052 19.4472ZM148.868 30.4998C147.078 30.6051 145.341 29.9209 144.078 28.6577C142.92 27.263 142.315 25.4998 142.42 23.6841C142.42 19.4472 144.92 16.8683 148.973 16.8683C152.657 16.8683 154.868 18.7104 154.973 21.842H151.21C151.131 20.7367 150.657 19.4472 148.999 19.4472C146.683 19.4472 146.42 22.1051 146.42 23.6841C146.42 26.5525 147.262 27.9209 148.999 27.9209C150.262 27.9209 151.289 26.9209 151.315 25.6577C151.315 25.6314 151.315 25.6314 151.315 25.6051V25.342H154.999C154.999 26.842 154.368 28.2367 153.236 29.2367C151.92 30.0788 150.42 30.5262 148.868 30.4998ZM86.9466 30.3946C85.5256 30.5262 84.1045 30.1051 82.973 29.2104C81.8677 28.0525 81.2887 26.4735 81.394 24.8683V9.21037H87.1309V13.7367H90.5519V17.7893H87.2361V23.7893C87.2361 25.5262 87.7887 26.1841 89.3677 26.1841C89.7361 26.2104 90.1045 26.1577 90.473 26.0788V30.2104C89.2624 30.2893 88.1572 30.3946 86.9466 30.3946ZM182.131 30.1314H178.262V22.4735C178.341 21.7367 178.21 21.0262 177.894 20.3683C177.526 19.8156 176.894 19.5262 176.236 19.6314C174.657 19.6314 173.736 20.7367 173.736 22.5788V30.1314H169.868V17.1314H173.552V19.263C174.315 17.7367 175.894 16.7893 177.605 16.8683C179.815 16.8683 181.105 17.7893 181.657 19.5525H181.736C182.473 17.8683 184.157 16.8156 185.973 16.8683C188.92 16.8683 190.315 18.4472 190.315 21.6577V30.1314H186.447V22.4998C186.526 21.763 186.394 21.0525 186.078 20.3946C185.71 19.842 185.078 19.5525 184.42 19.6577C182.841 19.6577 181.92 20.763 181.92 22.6051L182.131 30.1314ZM105.657 30.1314H99.7624V13.7367H105.473V16.3946H105.578C106.605 14.4472 108.71 13.263 110.92 13.4472C113.026 13.4472 114.526 13.9998 115.447 15.1051C116.394 16.5262 116.815 18.2104 116.631 19.8946V30.1314H110.736V20.8156C110.815 19.9998 110.657 19.1577 110.262 18.4209C109.841 17.842 109.131 17.5262 108.42 17.6051C106.683 17.6051 105.762 18.7104 105.762 20.9209L105.657 30.1314ZM20.3151 30.1314H14.4203V13.7367H20.1309V16.3946H20.2098C21.2361 14.4472 23.3414 13.263 25.5519 13.4472C27.6572 13.4472 29.1572 13.9998 30.0782 15.1051C31.0256 16.5262 31.4466 18.2104 31.2888 19.8946V30.1314H25.394V20.8156C25.473 19.9998 25.3151 19.1577 24.9203 18.4209C24.4993 17.842 23.7888 17.5262 23.0782 17.6051C21.3151 17.6051 20.394 18.7104 20.394 20.9209L20.3151 30.1314ZM141.236 30.1314H137.183V26.263H141.236V30.1314ZM97.8151 30.1314H91.9203V13.7367H97.8151V30.1314ZM42.894 30.1314H36.8151L30.9993 13.7367H36.9203L39.0256 20.842C39.5782 22.8683 40.0519 24.9998 40.0519 25.0788H40.1572C40.4466 23.6841 40.7098 22.3156 41.0782 20.9209L43.2098 13.8156H48.9203L42.894 30.1314ZM12.2098 30.1314H6.13086V6.9209H12.2098V30.1314Z" fill="#5F6579" fill-opacity="0.4"/><path d="M91.7363 11.9739L97.8153 10.8687V4.86865L91.7363 5.97392V11.9739Z" fill="#5F6579" fill-opacity="0.4"/></svg>