<svg width="32" height="30" viewBox="0 0 32 30" fill="none" xmlns="http://www.w3.org/2000/svg">
<path d="M16.0001 29.5201C15.5141 29.5242 15.0365 29.3937 14.6201 29.143L9.41728 26.1001C7.46952 25.0108 5.84383 23.4266 4.70451 21.5077C3.56519 19.5888 2.95262 17.4031 2.92871 15.1715V6.85725C2.92894 6.29697 3.10075 5.75021 3.42101 5.29049C3.74128 4.83078 4.19465 4.48017 4.72014 4.28582L15.0573 0.48868C15.6661 0.265818 16.3342 0.265818 16.943 0.48868L27.2801 4.28582C27.8056 4.48017 28.259 4.83078 28.5793 5.29049C28.8995 5.75021 29.0713 6.29697 29.0716 6.85725V15.1715C29.0477 17.4031 28.4351 19.5888 27.2958 21.5077C26.1565 23.4266 24.5308 25.0108 22.583 26.1001L17.3801 29.143C16.9638 29.3937 16.4861 29.5242 16.0001 29.5201ZM16.0001 2.46868C15.9321 2.4563 15.8624 2.4563 15.7944 2.46868L5.45728 6.28297C5.34084 6.32608 5.24093 6.40476 5.1717 6.50783C5.10247 6.61091 5.06744 6.73315 5.07157 6.85725V15.1715C5.09642 17.0283 5.61127 18.8457 6.56402 20.4396C7.51677 22.0335 8.87362 23.3475 10.4973 24.2487L15.7001 27.3001C15.7921 27.3504 15.8953 27.3767 16.0001 27.3767C16.105 27.3767 16.2081 27.3504 16.3001 27.3001L21.503 24.2487C23.1267 23.3475 24.4835 22.0335 25.4363 20.4396C26.389 18.8457 26.9039 17.0283 26.9287 15.1715V6.85725C26.9293 6.73605 26.8925 6.61761 26.8236 6.51796C26.7546 6.41831 26.6566 6.34226 26.543 6.30011L16.2059 2.50297C16.1399 2.47908 16.0702 2.46746 16.0001 2.46868Z" fill="#1C1C1E"/>
<path d="M15.0575 19.1571C14.8046 19.1555 14.5597 19.0678 14.3632 18.9085L10.7032 15.8228C10.485 15.6398 10.3484 15.3776 10.3235 15.0939C10.2985 14.8102 10.3874 14.5282 10.5703 14.31C10.7533 14.0917 11.0155 13.9551 11.2993 13.9302C11.583 13.9053 11.865 13.9941 12.0832 14.1771L14.9546 16.5943L19.8575 11.1943C20.0484 10.9828 20.3156 10.8559 20.6001 10.8415C20.8846 10.827 21.1632 10.9262 21.3746 11.1171C21.5861 11.3081 21.713 11.5752 21.7274 11.8597C21.7419 12.1442 21.6427 12.4228 21.4518 12.6343L15.8975 18.8057C15.7912 18.9214 15.661 19.0128 15.516 19.0734C15.371 19.1341 15.2146 19.1627 15.0575 19.1571Z" fill="#1C1C1E"/>
</svg>
