<svg width="30" height="30" viewBox="0 0 30 30" fill="none" xmlns="http://www.w3.org/2000/svg">
<g clip-path="url(#clip0_653_124)">
<path d="M4.33333 23.1667C4.33333 18.6167 7.95 15 12.5 15C15.4167 15 18.1 16.5167 19.6167 19.0833L21.6 17.9167C20.4333 15.9333 18.6833 14.4167 16.7 13.6C18.45 12.3167 19.5 10.2167 19.5 8C19.5 4.15 16.35 1 12.5 1C8.65 1 5.5 4.15 5.5 8C5.5 10.2167 6.55 12.3167 8.3 13.6C4.56667 15.2333 2 18.85 2 23.1667V29H16V26.6667H4.33333V23.1667ZM7.83333 8C7.83333 5.43333 9.93333 3.33333 12.5 3.33333C15.0667 3.33333 17.1667 5.43333 17.1667 8C17.1667 10.5667 15.0667 12.6667 12.5 12.6667C9.93333 12.6667 7.83333 10.5667 7.83333 8Z" fill="#1C1C1E"/>
<path d="M30.1166 19.4334L21.2499 28.3L15.7666 22.8167L17.3999 21.1834L21.2499 25.0334L28.4833 17.8L30.1166 19.4334Z" fill="#1C1C1E"/>
</g>
<defs>
<clipPath id="clip0_653_124">
<rect width="28" height="28" fill="white" transform="translate(2 1)"/>
</clipPath>
</defs>
</svg>
