<svg width="30" height="30" viewBox="0 0 30 30" fill="none" xmlns="http://www.w3.org/2000/svg">
<g clip-path="url(#clip0_653_120)">
<path d="M18.1919 25.1934C18.1928 24.3517 17.916 23.5332 17.4044 22.8648C16.8929 22.1963 16.1751 21.7153 15.3624 21.4963C14.5497 21.2772 13.6875 21.3323 12.9093 21.6531C12.1311 21.9738 11.4804 22.5423 11.0582 23.2704C8.15009 21.9876 7.06062 19.9742 7.06062 16.1478V11.9736C7.06062 6.41903 10.1927 2.58151 15.0612 2.58151C19.9298 2.58151 23.0619 6.42042 23.0619 11.9736V16.8435C23.0622 17.1202 23.1723 17.3854 23.3679 17.581C23.5636 17.7766 23.8288 17.8867 24.1054 17.8871H25.4969C26.5111 17.886 27.4835 17.4827 28.2008 16.7656C28.9181 16.0486 29.3218 15.0763 29.3232 14.0621V12.6706C29.3221 11.656 28.9187 10.6833 28.2014 9.96571C27.4841 9.24814 26.5115 8.84434 25.4969 8.84287H24.8318C23.7785 3.87413 20.1733 0.494385 15.0612 0.494385C9.94919 0.494385 6.34543 3.87413 5.29213 8.84287H4.62703C3.61266 8.84434 2.64026 9.24795 1.92299 9.96522C1.20573 10.6825 0.802117 11.6549 0.800645 12.6693V14.0607C0.80175 15.0752 1.20524 16.0478 1.92259 16.7651C2.63994 17.4825 3.61255 17.886 4.62703 17.8871H5.05698C5.11067 19.5351 5.66359 21.1279 6.64255 22.4547C7.62151 23.7815 8.98034 24.7797 10.5392 25.3172C10.5556 26.332 10.9745 27.2988 11.7037 28.0047C12.4329 28.7107 13.4126 29.0981 14.4275 29.0817C15.4423 29.0653 16.409 28.6464 17.115 27.9172C17.821 27.188 18.2084 26.2082 18.1919 25.1934ZM16.1048 25.1934C16.1048 25.5374 16.0028 25.8736 15.8117 26.1597C15.6206 26.4457 15.3489 26.6686 15.0311 26.8002C14.7133 26.9319 14.3636 26.9663 14.0262 26.8992C13.6888 26.8321 13.3789 26.6665 13.1357 26.4232C12.8925 26.18 12.7268 25.8701 12.6597 25.5327C12.5926 25.1953 12.627 24.8456 12.7587 24.5278C12.8903 24.21 13.1132 23.9383 13.3993 23.7472C13.6853 23.5561 14.0215 23.4541 14.3655 23.4541C14.8267 23.4545 15.2689 23.6378 15.595 23.9639C15.9211 24.29 16.1044 24.7322 16.1048 25.1934ZM4.9735 15.8013H4.62703C4.16562 15.8013 3.72309 15.6181 3.39669 15.292C3.0703 14.9659 2.88674 14.5235 2.88638 14.0621V12.6706C2.88638 12.2092 3.06958 11.7667 3.39571 11.4403C3.72185 11.1139 4.16423 10.9304 4.62564 10.93H4.9735V15.8013ZM27.2361 12.6706V14.0621C27.2354 14.523 27.0519 14.9648 26.7258 15.2906C26.3997 15.6164 25.9578 15.7996 25.4969 15.7999H25.149V10.93H25.4969C25.9583 10.9304 26.4006 11.1139 26.7268 11.4403C27.0529 11.7667 27.2361 12.2092 27.2361 12.6706Z" fill="#1C1C1E"/>
</g>
<defs>
<clipPath id="clip0_653_120">
<rect width="30" height="29" fill="white" transform="matrix(-1 0 0 1 30 0)"/>
</clipPath>
</defs>
</svg>
