<svg width="32" height="32" viewBox="0 0 32 32" fill="none" xmlns="http://www.w3.org/2000/svg">
<g clip-path="url(#clip0_653_108)">
<path fill-rule="evenodd" clip-rule="evenodd" d="M6.15668 22.0661L16.3904 26.367C16.6877 26.459 17.0085 26.4393 17.2924 26.3116L19.3418 25.2249C19.9215 24.4447 20.0109 24.0591 19.8015 23.2445L18.4402 21.3662C18.2416 21.1265 17.9623 20.9676 17.6548 20.9192L6.58474 20.2852C5.01906 20.0391 4.6426 21.5975 6.15668 22.0661ZM17.2953 22.4845L10.2835 22.083L16.7568 24.8035L18.2602 24.0062C18.2941 23.9514 18.3115 23.9174 18.32 23.8992C18.3201 23.8994 18.32 23.8989 18.32 23.8992L17.2953 22.4845ZM18.321 23.9228C18.3209 23.9226 18.3208 23.9201 18.3211 23.9155C18.3213 23.9207 18.3211 23.923 18.321 23.9228Z" fill="#1C1C1E"/>
<path fill-rule="evenodd" clip-rule="evenodd" d="M16.0003 3.75008C8.12981 3.75008 1.75033 10.1266 1.75033 17.9915C1.75033 21.8995 3.32427 25.4386 5.87515 28.0127L4.7505 29.1272C1.91785 26.2687 0.166992 22.3337 0.166992 17.9915C0.166992 9.25137 7.25621 2.16675 16.0003 2.16675C24.7444 2.16675 31.8337 9.25137 31.8337 17.9915C31.8337 22.4521 29.9861 26.4826 27.0165 29.3582L25.9151 28.2207C28.5896 25.631 30.2503 22.0058 30.2503 17.9915C30.2503 10.1266 23.8708 3.75008 16.0003 3.75008Z" fill="#1C1C1E"/>
<path fill-rule="evenodd" clip-rule="evenodd" d="M15.208 7.70833V3.75001L16.7913 3.75V7.70833H15.208Z" fill="#1C1C1E"/>
<path fill-rule="evenodd" clip-rule="evenodd" d="M26.0593 28.3456L23.1719 25.4582L24.2914 24.3386L27.1788 27.2259L26.0593 28.3456Z" fill="#1C1C1E"/>
<path fill-rule="evenodd" clip-rule="evenodd" d="M8.17898 10.5073L5.37988 7.70849L6.49946 6.58887L9.29855 9.38777L8.17898 10.5073Z" fill="#1C1C1E"/>
<path fill-rule="evenodd" clip-rule="evenodd" d="M26.833 16.4167H30.7913V18.0001H26.833V16.4167Z" fill="#1C1C1E"/>
<path fill-rule="evenodd" clip-rule="evenodd" d="M1 16.4167H4.95836V18.0001H1V16.4167Z" fill="#1C1C1E"/>
<path fill-rule="evenodd" clip-rule="evenodd" d="M22.7969 9.29169L25.6844 6.40454L26.804 7.52421L23.9164 10.4113L22.7969 9.29169Z" fill="#1C1C1E"/>
<path fill-rule="evenodd" clip-rule="evenodd" d="M8.23937 25.6184L5.352 28.5058L4.23242 27.3862L7.11972 24.4988L8.23937 25.6184Z" fill="#1C1C1E"/>
</g>
<defs>
<clipPath id="clip0_653_108">
<rect width="32" height="32" fill="white"/>
</clipPath>
</defs>
</svg>
