<svg width="30" height="30" viewBox="0 0 30 30" fill="none" xmlns="http://www.w3.org/2000/svg">
<g clip-path="url(#clip0_653_128)">
<path d="M13.1654 19.9C13.1654 20.6249 13.753 21.2125 14.4779 21.2125C15.2027 21.2125 15.7904 20.6249 15.7904 19.9H13.1654ZM15.7904 17.45C15.7904 16.7251 15.2027 16.1375 14.4779 16.1375C13.753 16.1375 13.1654 16.7251 13.1654 17.45H15.7904ZM18.0402 11.6383C18.0402 12.3631 18.6278 12.9508 19.3527 12.9508C20.0775 12.9508 20.6652 12.3631 20.6652 11.6383H18.0402ZM19.3527 7.895L18.0402 7.8772V7.895H19.3527ZM14.4779 2.75L14.4978 1.43766C14.4845 1.43745 14.4714 1.43745 14.4581 1.43766L14.4779 2.75ZM9.60317 7.895H10.9158L10.9155 7.8772L9.60317 7.895ZM8.29067 11.6383C8.29067 12.3631 8.8783 12.9508 9.60317 12.9508C10.3281 12.9508 10.9157 12.3631 10.9157 11.6383H8.29067ZM18.6014 12.7145C19.1959 13.1294 20.014 12.9838 20.4289 12.3895C20.8439 11.795 20.6983 10.9769 20.104 10.562L18.6014 12.7145ZM8.85195 10.562C8.25756 10.9769 8.11203 11.795 8.52692 12.3895C8.94181 12.9838 9.76 13.1294 10.3544 12.7145L8.85195 10.562ZM20.104 10.562C19.51 10.1464 18.6928 10.2919 18.2773 10.8858C17.8617 11.4798 18.0075 12.2991 18.6014 12.7145L20.104 10.562ZM7.38505 13.9115L8.47641 14.6405L8.47799 14.6383L7.38505 13.9115ZM10.3555 12.7121C10.9494 12.2966 11.0942 11.4782 10.6787 10.8842C10.2632 10.2902 9.44595 10.1465 8.85195 10.562L10.3555 12.7121ZM15.7904 19.9V17.45H13.1654V19.9H15.7904ZM20.6652 11.6383V7.895H18.0402V11.6383H20.6652ZM20.665 7.9128C20.7124 4.41929 17.9837 1.49032 14.4978 1.43766L14.4581 4.06234C16.4339 4.0922 18.0687 5.76885 18.0402 7.8772L20.665 7.9128ZM14.4581 1.43766C10.9722 1.49032 8.24344 4.41929 8.29079 7.9128L10.9155 7.8772C10.887 5.76885 12.5219 4.0922 14.4978 4.06234L14.4581 1.43766ZM8.29067 7.895V11.6383H10.9157L10.9158 7.895H8.29067ZM20.104 10.562C16.7111 8.19379 12.2447 8.19379 8.85195 10.562L10.3544 12.7145C12.8446 10.9763 16.1112 10.9763 18.6014 12.7145L20.104 10.562ZM18.6014 12.7145C18.9502 12.9586 19.2769 13.2334 19.5793 13.5372L21.4397 11.6853C21.0283 11.272 20.5805 10.8955 20.104 10.562L18.6014 12.7145ZM19.5793 13.5372C20.581 14.5432 21.2698 15.8386 21.5512 17.2573L24.1262 16.7476C23.7454 14.8274 22.8116 13.0631 21.4397 11.6853L19.5793 13.5372ZM21.5512 17.2573C21.83 18.6683 21.6858 20.1317 21.1391 21.4552L23.5651 22.4582C24.3097 20.6551 24.505 18.6643 24.1262 16.7476L21.5512 17.2573ZM21.1391 21.4552C20.5852 22.794 19.6577 23.9271 18.4794 24.7155L19.9393 26.897C21.5552 25.8159 22.8156 24.2692 23.5651 22.4582L21.1391 21.4552ZM18.4794 24.7155C15.6108 26.6359 11.83 26.2661 9.36394 23.8105L7.51105 25.6699C10.8574 29.0023 16.0238 29.5183 19.9393 26.897L18.4794 24.7155ZM9.36394 23.8105C6.93713 21.3906 6.55647 17.5146 8.47641 14.6405L6.29369 13.1825C3.68241 17.0912 4.19005 22.3584 7.51105 25.6699L9.36394 23.8105ZM8.47799 14.6383C8.98239 13.8796 9.61962 13.2267 10.3555 12.7121L8.85195 10.562C7.84489 11.2664 6.97633 12.1557 6.29212 13.1847L8.47799 14.6383Z" fill="#1C1C1E"/>
</g>
<defs>
<clipPath id="clip0_653_128">
<rect width="30" height="30" fill="white"/>
</clipPath>
</defs>
</svg>
