<svg xmlns="http://www.w3.org/2000/svg" width="380" height="180" viewBox="0 0 380 180" fill="none"><g clip-path="url(#clip0_96_688)"><rect x="0.5" y="0.5" width="379" height="179" rx="15.5" fill="#040A20" stroke="#0F1830"/><g clip-path="url(#clip1_96_688)"><path d="M380.622 -76.3635H379.986V180.727H380.622V-76.3635Z" fill="#0D1328"/><path d="M123.32 52.1819H187.009V52.8182H123.32V52.1819Z" fill="url(#paint0_linear_96_688)"/><path d="M316.297 -75.7273H315.66V181.364H316.297V-75.7273Z" fill="#0D1328"/><path d="M380.623 52.1819H316.297V52.8182H380.623V52.1819Z" fill="#0D1328"/><path d="M380.623 116.455H316.297V117.091H380.623V116.455Z" fill="#0D1328"/><path d="M251.971 -75.7273H251.334V181.364H251.971V-75.7273Z" fill="#0D1328"/><path d="M316.297 52.1819H251.971V52.8182H316.297V52.1819Z" fill="#0D1328"/><path d="M316.297 116.455H251.971V117.091H316.297V116.455Z" fill="#0D1328"/><path d="M187.009 -75.7273H186.372V181.364H187.009V-75.7273Z" fill="#0D1328"/><path d="M251.334 52.1819H187.009V52.8182H251.334V52.1819Z" fill="#0D1328"/><path d="M251.334 116.455H187.009V117.091H251.334V116.455Z" fill="#0D1328"/><path d="M186.372 116.455H-155V117.091H186.372V116.455Z" fill="url(#paint1_linear_96_688)"/></g><path d="M28.7614 78.4773C27.1761 78.4716 25.8068 78.1051 24.6534 77.3778C23.5 76.6506 22.6108 75.6023 21.9858 74.233C21.3608 72.8636 21.0511 71.2216 21.0568 69.3068C21.0625 67.3864 21.375 65.7557 21.9943 64.4148C22.6193 63.0739 23.5057 62.054 24.6534 61.3551C25.8068 60.6562 27.1761 60.3068 28.7614 60.3068C30.3466 60.3068 31.7159 60.6591 32.8693 61.3636C34.0227 62.0625 34.9119 63.0824 35.5369 64.4233C36.1619 65.7642 36.4716 67.392 36.4659 69.3068C36.4659 71.233 36.1534 72.8807 35.5284 74.25C34.9034 75.6193 34.0142 76.6676 32.8608 77.3949C31.7131 78.1165 30.3466 78.4773 28.7614 78.4773ZM28.7614 74.625C29.5795 74.625 30.25 74.1989 30.7727 73.3466C31.3011 72.4886 31.5625 71.142 31.5568 69.3068C31.5568 68.108 31.4375 67.1278 31.1989 66.3665C30.9602 65.6051 30.6307 65.0426 30.2102 64.679C29.7898 64.3097 29.3068 64.125 28.7614 64.125C27.9432 64.125 27.2756 64.5398 26.7585 65.3693C26.2415 66.1989 25.9773 67.5114 25.9659 69.3068C25.9602 70.5284 26.0767 71.5341 26.3153 72.3239C26.554 73.108 26.8835 73.6875 27.304 74.0625C27.7301 74.4375 28.2159 74.625 28.7614 74.625ZM48.679 74.7273V73.8068C48.679 73.0682 48.8381 72.3864 49.1562 71.7614C49.4801 71.1364 49.9489 70.6335 50.5625 70.2528C51.1761 69.8722 51.9233 69.6818 52.804 69.6818C53.7074 69.6818 54.4659 69.8693 55.0795 70.2443C55.6989 70.6193 56.1676 71.1193 56.4858 71.7443C56.804 72.3693 56.9631 73.0568 56.9631 73.8068V74.7273C56.9631 75.4659 56.8011 76.1477 56.4773 76.7727C56.1591 77.3977 55.6903 77.9006 55.071 78.2812C54.4517 78.6619 53.696 78.8523 52.804 78.8523C51.9119 78.8523 51.1591 78.6619 50.5455 78.2812C49.9318 77.9006 49.4659 77.3977 49.1477 76.7727C48.8352 76.1477 48.679 75.4659 48.679 74.7273ZM51.6449 73.8068V74.7273C51.6449 75.0511 51.7244 75.3722 51.8835 75.6903C52.0483 76.0028 52.3551 76.1591 52.804 76.1591C53.2756 76.1591 53.5852 76.0057 53.733 75.6989C53.8864 75.392 53.9631 75.0682 53.9631 74.7273V73.8068C53.9631 73.4659 53.892 73.1364 53.75 72.8182C53.608 72.5 53.2926 72.3409 52.804 72.3409C52.3551 72.3409 52.0483 72.5 51.8835 72.8182C51.7244 73.1364 51.6449 73.4659 51.6449 73.8068ZM39.5426 64.7386V63.8182C39.5426 63.0682 39.7045 62.3807 40.0284 61.7557C40.358 61.1307 40.8295 60.6307 41.4432 60.2557C42.0568 59.8807 42.7983 59.6932 43.6676 59.6932C44.571 59.6932 45.3295 59.8807 45.9432 60.2557C46.5625 60.6307 47.0313 61.1307 47.3494 61.7557C47.6676 62.3807 47.8267 63.0682 47.8267 63.8182V64.7386C47.8267 65.4886 47.6648 66.1733 47.3409 66.7926C47.0227 67.4119 46.554 67.9062 45.9347 68.2756C45.3153 68.6449 44.5597 68.8295 43.6676 68.8295C42.7756 68.8295 42.0227 68.642 41.4091 68.267C40.7955 67.892 40.3295 67.3949 40.0114 66.7756C39.6989 66.1562 39.5426 65.4773 39.5426 64.7386ZM42.5426 63.8182V64.7386C42.5426 65.0795 42.6222 65.4034 42.7812 65.7102C42.9403 66.017 43.2358 66.1705 43.6676 66.1705C44.1392 66.1705 44.4489 66.017 44.5966 65.7102C44.75 65.4034 44.8267 65.0795 44.8267 64.7386V63.8182C44.8267 63.4773 44.7557 63.1477 44.6136 62.8295C44.4716 62.5114 44.1562 62.3523 43.6676 62.3523C43.2188 62.3523 42.9176 62.517 42.7642 62.8466C42.6165 63.1705 42.5426 63.4943 42.5426 63.8182ZM40.9915 78L52.9915 60.5455H55.4119L43.4119 78H40.9915ZM64.3352 64.3636V60.5455H79.5057V64.3636H74.2557V78H69.5852V64.3636H64.3352ZM81.2891 78V60.5455H88.8232C90.1186 60.5455 91.2521 60.7812 92.2237 61.2528C93.1953 61.7244 93.951 62.4034 94.4908 63.2898C95.0305 64.1761 95.3004 65.2386 95.3004 66.4773C95.3004 67.7273 95.022 68.7812 94.4652 69.6392C93.9141 70.4972 93.1385 71.1449 92.1385 71.5824C91.1442 72.0199 89.9822 72.2386 88.6527 72.2386H84.1527V68.5568H87.6982C88.255 68.5568 88.7294 68.4886 89.1214 68.3523C89.5192 68.2102 89.8232 67.9858 90.0334 67.679C90.2493 67.3722 90.3572 66.9716 90.3572 66.4773C90.3572 65.9773 90.2493 65.571 90.0334 65.2585C89.8232 64.9403 89.5192 64.7074 89.1214 64.5597C88.7294 64.4062 88.255 64.3295 87.6982 64.3295H86.0277V78H81.2891ZM91.5163 69.9886L95.88 78H90.7322L86.4709 69.9886H91.5163ZM101.854 78H96.7408L102.502 60.5455H108.979L114.741 78H109.627L105.809 65.3523H105.673L101.854 78ZM100.9 71.1136H110.513V74.6591H100.9V71.1136ZM123.138 78H116.422V60.5455H123.07C124.865 60.5455 126.416 60.8949 127.723 61.5938C129.036 62.2869 130.047 63.2869 130.757 64.5938C131.473 65.8949 131.831 67.4545 131.831 69.2727C131.831 71.0909 131.476 72.6534 130.766 73.9602C130.055 75.2614 129.05 76.2614 127.749 76.9602C126.447 77.6534 124.911 78 123.138 78ZM121.161 73.9773H122.967C123.831 73.9773 124.567 73.8381 125.175 73.5597C125.788 73.2812 126.254 72.8011 126.572 72.1193C126.896 71.4375 127.058 70.4886 127.058 69.2727C127.058 68.0568 126.893 67.108 126.564 66.4261C126.24 65.7443 125.763 65.2642 125.132 64.9858C124.507 64.7074 123.74 64.5682 122.831 64.5682H121.161V73.9773ZM138.762 60.5455V78H134.023V60.5455H138.762ZM156.11 60.5455V78H152.156L145.849 68.8295H145.746V78H141.008V60.5455H145.031L151.235 69.6818H151.371V60.5455H156.11ZM169.687 66.3068C169.613 66.0057 169.496 65.7415 169.337 65.5142C169.178 65.2812 168.979 65.0852 168.741 64.9261C168.508 64.7614 168.235 64.6392 167.923 64.5597C167.616 64.4744 167.278 64.4318 166.908 64.4318C166.113 64.4318 165.434 64.6222 164.871 65.0028C164.315 65.3835 163.888 65.9318 163.593 66.6477C163.303 67.3636 163.158 68.2273 163.158 69.2386C163.158 70.2614 163.298 71.1364 163.576 71.8636C163.854 72.5909 164.269 73.1477 164.82 73.5341C165.371 73.9205 166.056 74.1136 166.874 74.1136C167.596 74.1136 168.195 74.0085 168.673 73.7983C169.156 73.5881 169.516 73.2898 169.755 72.9034C169.994 72.517 170.113 72.0625 170.113 71.5398L170.931 71.625H166.942V68.25H174.681V70.6705C174.681 72.2614 174.343 73.6222 173.667 74.7528C172.996 75.8778 172.07 76.7415 170.888 77.3438C169.712 77.9403 168.363 78.2386 166.84 78.2386C165.141 78.2386 163.65 77.8778 162.366 77.1562C161.082 76.4347 160.079 75.4062 159.357 74.071C158.641 72.7358 158.283 71.1477 158.283 69.3068C158.283 67.8636 158.502 66.5852 158.94 65.4716C159.383 64.358 159.996 63.4176 160.781 62.6506C161.565 61.8778 162.471 61.2955 163.499 60.9034C164.528 60.5057 165.63 60.3068 166.806 60.3068C167.84 60.3068 168.8 60.4545 169.687 60.75C170.579 61.0398 171.366 61.4545 172.048 61.9943C172.735 62.5284 173.289 63.1619 173.71 63.8949C174.13 64.6278 174.386 65.4318 174.477 66.3068H169.687ZM181.672 78V60.5455H193.945V64.3636H186.411V67.3636H193.195V71.1818H186.411V78H181.672ZM195.688 78V60.5455H208.267V64.3636H200.426V67.3636H207.619V71.1818H200.426V74.1818H208.233V78H195.688ZM210.617 78V60.5455H223.197V64.3636H215.356V67.3636H222.549V71.1818H215.356V74.1818H223.163V78H210.617ZM21.125 107V89.5455H33.3977V93.3636H25.8636V96.3636H32.6477V100.182H25.8636V107H21.125ZM52.0497 98.2727C52.0497 100.216 51.6719 101.855 50.9162 103.19C50.1605 104.52 49.1406 105.528 47.8565 106.216C46.5724 106.898 45.1406 107.239 43.5611 107.239C41.9702 107.239 40.5327 106.895 39.2486 106.207C37.9702 105.514 36.9531 104.503 36.1974 103.173C35.4474 101.838 35.0724 100.205 35.0724 98.2727C35.0724 96.3295 35.4474 94.6932 36.1974 93.3636C36.9531 92.0284 37.9702 91.0199 39.2486 90.3381C40.5327 89.6506 41.9702 89.3068 43.5611 89.3068C45.1406 89.3068 46.5724 89.6506 47.8565 90.3381C49.1406 91.0199 50.1605 92.0284 50.9162 93.3636C51.6719 94.6932 52.0497 96.3295 52.0497 98.2727ZM47.1747 98.2727C47.1747 97.2273 47.0355 96.3466 46.7571 95.6307C46.4844 94.9091 46.0781 94.3636 45.5384 93.9943C45.0043 93.6193 44.3452 93.4318 43.5611 93.4318C42.777 93.4318 42.1151 93.6193 41.5753 93.9943C41.0412 94.3636 40.6349 94.9091 40.3565 95.6307C40.0838 96.3466 39.9474 97.2273 39.9474 98.2727C39.9474 99.3182 40.0838 100.202 40.3565 100.923C40.6349 101.639 41.0412 102.185 41.5753 102.56C42.1151 102.929 42.777 103.114 43.5611 103.114C44.3452 103.114 45.0043 102.929 45.5384 102.56C46.0781 102.185 46.4844 101.639 46.7571 100.923C47.0355 100.202 47.1747 99.3182 47.1747 98.2727ZM54.2422 107V89.5455H61.7763C63.0717 89.5455 64.2053 89.7812 65.1768 90.2528C66.1484 90.7244 66.9041 91.4034 67.4439 92.2898C67.9837 93.1761 68.2536 94.2386 68.2536 95.4773C68.2536 96.7273 67.9751 97.7812 67.4183 98.6392C66.8672 99.4972 66.0916 100.145 65.0916 100.582C64.0973 101.02 62.9354 101.239 61.6058 101.239H57.1058V97.5568H60.6513C61.2081 97.5568 61.6825 97.4886 62.0746 97.3523C62.4723 97.2102 62.7763 96.9858 62.9865 96.679C63.2024 96.3722 63.3104 95.9716 63.3104 95.4773C63.3104 94.9773 63.2024 94.571 62.9865 94.2585C62.7763 93.9403 62.4723 93.7074 62.0746 93.5597C61.6825 93.4062 61.2081 93.3295 60.6513 93.3295H58.9808V107H54.2422ZM64.4695 98.9886L68.8331 107H63.6854L59.424 98.9886H64.4695ZM79.5888 107H74.4751L80.2365 89.5455H86.7138L92.4751 107H87.3615L83.5433 94.3523H83.407L79.5888 107ZM78.6342 100.114H88.2479V103.659H78.6342V100.114ZM94.1562 107V89.5455H98.8949V103.182H105.952V107H94.1562ZM107.867 107V89.5455H112.606V103.182H119.663V107H107.867ZM126.359 107V89.5455H133.893C135.189 89.5455 136.322 89.8011 137.294 90.3125C138.266 90.8239 139.021 91.5426 139.561 92.4688C140.101 93.3949 140.371 94.4773 140.371 95.7159C140.371 96.9659 140.092 98.0483 139.536 98.9631C138.984 99.8778 138.209 100.582 137.209 101.077C136.214 101.571 135.053 101.818 133.723 101.818H129.223V98.1364H132.768C133.325 98.1364 133.8 98.0398 134.192 97.8466C134.589 97.6477 134.893 97.3665 135.104 97.0028C135.32 96.6392 135.428 96.2102 135.428 95.7159C135.428 95.2159 135.32 94.7898 135.104 94.4375C134.893 94.0795 134.589 93.8068 134.192 93.6193C133.8 93.4261 133.325 93.3295 132.768 93.3295H131.098V107H126.359ZM144.464 107H139.35L145.112 89.5455H151.589L157.35 107H152.237L148.418 94.3523H148.282L144.464 107ZM143.509 100.114H153.123V103.659H143.509V100.114ZM163.77 89.5455V107H159.031V89.5455H163.77ZM166.016 107V89.5455H173.55C174.845 89.5455 175.979 89.7812 176.95 90.2528C177.922 90.7244 178.678 91.4034 179.217 92.2898C179.757 93.1761 180.027 94.2386 180.027 95.4773C180.027 96.7273 179.749 97.7812 179.192 98.6392C178.641 99.4972 177.865 100.145 176.865 100.582C175.871 101.02 174.709 101.239 173.379 101.239H168.879V97.5568H172.425C172.982 97.5568 173.456 97.4886 173.848 97.3523C174.246 97.2102 174.55 96.9858 174.76 96.679C174.976 96.3722 175.084 95.9716 175.084 95.4773C175.084 94.9773 174.976 94.571 174.76 94.2585C174.55 93.9403 174.246 93.7074 173.848 93.5597C173.456 93.4062 172.982 93.3295 172.425 93.3295H170.754V107H166.016ZM176.243 98.9886L180.607 107H175.459L171.197 98.9886H176.243ZM191.456 95C191.411 94.4318 191.197 93.9886 190.817 93.6705C190.442 93.3523 189.871 93.1932 189.104 93.1932C188.615 93.1932 188.214 93.2528 187.902 93.3722C187.595 93.4858 187.368 93.642 187.22 93.8409C187.072 94.0398 186.996 94.267 186.99 94.5227C186.979 94.733 187.016 94.9233 187.101 95.0938C187.192 95.2585 187.334 95.4091 187.527 95.5455C187.72 95.6761 187.967 95.7955 188.268 95.9034C188.57 96.0114 188.928 96.108 189.342 96.1932L190.774 96.5C191.74 96.7045 192.567 96.9744 193.254 97.3097C193.942 97.6449 194.504 98.0398 194.942 98.4943C195.379 98.9432 195.7 99.4489 195.905 100.011C196.115 100.574 196.223 101.187 196.229 101.852C196.223 103 195.936 103.972 195.368 104.767C194.8 105.562 193.987 106.168 192.93 106.582C191.879 106.997 190.615 107.205 189.138 107.205C187.621 107.205 186.297 106.98 185.166 106.531C184.041 106.082 183.166 105.392 182.541 104.46C181.922 103.523 181.609 102.324 181.604 100.864H186.104C186.132 101.398 186.266 101.847 186.504 102.21C186.743 102.574 187.078 102.849 187.51 103.037C187.947 103.224 188.467 103.318 189.07 103.318C189.575 103.318 189.999 103.256 190.339 103.131C190.68 103.006 190.939 102.832 191.115 102.611C191.291 102.389 191.382 102.136 191.388 101.852C191.382 101.585 191.294 101.352 191.124 101.153C190.959 100.949 190.686 100.767 190.305 100.608C189.925 100.443 189.411 100.29 188.763 100.148L187.024 99.7727C185.479 99.4375 184.26 98.8778 183.368 98.0938C182.482 97.304 182.041 96.2273 182.047 94.8636C182.041 93.7557 182.337 92.7869 182.933 91.9574C183.536 91.1222 184.368 90.4716 185.43 90.0057C186.499 89.5398 187.723 89.3068 189.104 89.3068C190.513 89.3068 191.732 89.5426 192.76 90.0142C193.788 90.4858 194.581 91.1506 195.138 92.0085C195.7 92.8608 195.984 93.858 195.99 95H191.456Z" fill="#E7EDFF"/><rect x="21" y="127" width="168" height="29" rx="6" fill="url(#paint2_linear_96_688)"/><path d="M38.5554 149.199C37.4948 149.199 36.5502 149.017 35.7216 148.652C34.8977 148.283 34.2467 147.776 33.7685 147.132C33.295 146.483 33.0511 145.735 33.0369 144.888H36.1335C36.1525 145.243 36.2685 145.555 36.4815 145.825C36.6993 146.09 36.9882 146.296 37.348 146.443C37.7079 146.59 38.1127 146.663 38.5625 146.663C39.0312 146.663 39.4455 146.58 39.8054 146.415C40.1652 146.249 40.447 146.019 40.6506 145.726C40.8542 145.432 40.956 145.094 40.956 144.71C40.956 144.322 40.8471 143.979 40.6293 143.68C40.4162 143.377 40.1084 143.141 39.706 142.97C39.3082 142.8 38.8348 142.714 38.2855 142.714H36.929V140.456H38.2855C38.7495 140.456 39.1591 140.375 39.5142 140.214C39.8741 140.054 40.1534 139.831 40.3523 139.547C40.5511 139.258 40.6506 138.922 40.6506 138.538C40.6506 138.174 40.563 137.854 40.3878 137.58C40.2173 137.3 39.9759 137.082 39.6634 136.926C39.3556 136.77 38.9957 136.692 38.5838 136.692C38.1671 136.692 37.786 136.768 37.4403 136.919C37.0947 137.066 36.8177 137.277 36.6094 137.551C36.401 137.826 36.2898 138.148 36.2756 138.517H33.3281C33.3423 137.679 33.5814 136.94 34.0455 136.301C34.5095 135.662 35.1345 135.162 35.9205 134.803C36.7112 134.438 37.6037 134.256 38.598 134.256C39.6018 134.256 40.4801 134.438 41.233 134.803C41.9858 135.167 42.5705 135.66 42.9872 136.28C43.4086 136.895 43.617 137.587 43.6122 138.354C43.617 139.168 43.3636 139.848 42.8523 140.392C42.3456 140.937 41.6851 141.282 40.8707 141.429V141.543C41.9408 141.68 42.7552 142.052 43.3139 142.658C43.8774 143.259 44.1567 144.012 44.152 144.916C44.1567 145.745 43.9176 146.481 43.4347 147.125C42.9564 147.769 42.2959 148.276 41.4531 148.645C40.6103 149.014 39.6444 149.199 38.5554 149.199ZM52.0657 149.32C50.8441 149.315 49.793 149.014 48.9123 148.418C48.0363 147.821 47.3616 146.957 46.8881 145.825C46.4194 144.694 46.1874 143.332 46.1921 141.741C46.1921 140.155 46.4265 138.804 46.8952 137.686C47.3687 136.569 48.0434 135.719 48.9194 135.136C49.8001 134.549 50.8488 134.256 52.0657 134.256C53.2826 134.256 54.329 134.549 55.2049 135.136C56.0856 135.723 56.7627 136.576 57.2362 137.693C57.7096 138.806 57.944 140.155 57.9393 141.741C57.9393 143.337 57.7025 144.701 57.229 145.832C56.7603 146.964 56.088 147.828 55.212 148.425C54.3361 149.021 53.2873 149.32 52.0657 149.32ZM52.0657 146.77C52.899 146.77 53.5643 146.351 54.0614 145.513C54.5586 144.675 54.8048 143.418 54.8001 141.741C54.8001 140.638 54.6864 139.72 54.4592 138.986C54.2366 138.252 53.9194 137.7 53.5075 137.331C53.1003 136.962 52.6197 136.777 52.0657 136.777C51.2371 136.777 50.5742 137.191 50.0771 138.02C49.5799 138.848 49.329 140.089 49.3242 141.741C49.3242 142.859 49.4355 143.792 49.658 144.54C49.8853 145.283 50.2049 145.842 50.6168 146.216C51.0288 146.585 51.5117 146.77 52.0657 146.77ZM70.0025 149H64.8462V134.455H70.0451C71.5082 134.455 72.7676 134.746 73.8235 135.328C74.8794 135.906 75.6914 136.737 76.2596 137.821C76.8325 138.905 77.119 140.203 77.119 141.713C77.119 143.228 76.8325 144.53 76.2596 145.619C75.6914 146.708 74.8746 147.544 73.8093 148.126C72.7487 148.709 71.4798 149 70.0025 149ZM67.9215 146.365H69.8746C70.7837 146.365 71.5484 146.204 72.1687 145.882C72.7937 145.555 73.2624 145.051 73.5749 144.369C73.8922 143.683 74.0508 142.797 74.0508 141.713C74.0508 140.638 73.8922 139.76 73.5749 139.078C73.2624 138.396 72.796 137.894 72.1758 137.572C71.5555 137.25 70.7908 137.089 69.8817 137.089H67.9215V146.365ZM81.0838 149H77.7884L82.8097 134.455H86.7727L91.7869 149H88.4915L84.848 137.778H84.7344L81.0838 149ZM80.8778 143.283H88.6619V145.683H80.8778V143.283ZM91.201 134.455H94.6456L97.9624 140.719H98.1044L101.421 134.455H104.866L99.5604 143.858V149H96.5064V143.858L91.201 134.455ZM111.174 149V134.455H120.975V136.99H114.25V140.456H120.471V142.991H114.25V146.464H121.004V149H111.174ZM126.048 134.455L129.564 145.506H129.699L133.222 134.455H136.631L131.616 149H127.653L122.632 134.455H126.048ZM138.381 149V134.455H148.183V136.99H141.457V140.456H147.678V142.991H141.457V146.464H148.211V149H138.381ZM162.794 134.455V149H160.137L153.809 139.845H153.703V149H150.627V134.455H153.326L159.605 143.602H159.733V134.455H162.794ZM164.781 136.99V134.455H176.727V136.99H172.273V149H169.234V136.99H164.781Z" fill="#E7EDFF"/><g filter="url(#filter0_f_96_688)"><circle cx="280" cy="182" r="40" fill="#E76FFB"/></g><g filter="url(#filter1_f_96_688)"><circle cx="-27" cy="196" r="40" fill="#E76FFB"/></g><path d="M294.045 139.045C286.227 139.015 279.5 137.091 273.864 133.273C268.258 129.455 263.939 123.924 260.909 116.682C257.909 109.439 256.424 100.727 256.455 90.5455C256.455 80.3939 257.955 71.7424 260.955 64.5909C263.985 57.4394 268.303 52 273.909 48.2727C279.545 44.5151 286.258 42.6364 294.045 42.6364C301.833 42.6364 308.53 44.5151 314.136 48.2727C319.773 52.0303 324.106 57.4848 327.136 64.6364C330.167 71.7576 331.667 80.3939 331.636 90.5455C331.636 100.758 330.121 109.485 327.091 116.727C324.091 123.97 319.788 129.5 314.182 133.318C308.576 137.136 301.864 139.045 294.045 139.045ZM294.045 122.727C299.379 122.727 303.636 120.045 306.818 114.682C310 109.318 311.576 101.273 311.545 90.5455C311.545 83.4848 310.818 77.6061 309.364 72.9091C307.939 68.2121 305.909 64.6818 303.273 62.3182C300.667 59.9545 297.591 58.7727 294.045 58.7727C288.742 58.7727 284.5 61.4242 281.318 66.7273C278.136 72.0303 276.53 79.9697 276.5 90.5455C276.5 97.697 277.212 103.667 278.636 108.455C280.091 113.212 282.136 116.788 284.773 119.182C287.409 121.545 290.5 122.727 294.045 122.727Z" fill="url(#paint3_linear_96_688)"/><path d="M326.685 136.326V134.836C326.685 133.641 326.941 132.538 327.452 131.527C327.973 130.515 328.726 129.702 329.712 129.086C330.699 128.47 331.9 128.162 333.315 128.162C334.767 128.162 335.986 128.465 336.973 129.072C337.968 129.679 338.721 130.488 339.233 131.499C339.744 132.51 340 133.623 340 134.836V136.326C340 137.521 339.74 138.624 339.219 139.635C338.708 140.646 337.954 141.46 336.959 142.076C335.963 142.692 334.749 143 333.315 143C331.881 143 330.671 142.692 329.685 142.076C328.699 141.46 327.95 140.646 327.438 139.635C326.936 138.624 326.685 137.521 326.685 136.326ZM331.452 134.836V136.326C331.452 136.85 331.58 137.369 331.836 137.884C332.1 138.39 332.594 138.642 333.315 138.642C334.073 138.642 334.571 138.394 334.808 137.898C335.055 137.401 335.178 136.877 335.178 136.326V134.836C335.178 134.285 335.064 133.751 334.836 133.237C334.607 132.722 334.1 132.464 333.315 132.464C332.594 132.464 332.1 132.722 331.836 133.237C331.58 133.751 331.452 134.285 331.452 134.836ZM312 120.164V118.674C312 117.461 312.26 116.348 312.781 115.337C313.311 114.326 314.068 113.517 315.055 112.91C316.041 112.303 317.233 112 318.63 112C320.082 112 321.301 112.303 322.288 112.91C323.283 113.517 324.037 114.326 324.548 115.337C325.059 116.348 325.315 117.461 325.315 118.674V120.164C325.315 121.377 325.055 122.485 324.534 123.487C324.023 124.489 323.269 125.289 322.274 125.887C321.279 126.484 320.064 126.783 318.63 126.783C317.196 126.783 315.986 126.48 315 125.873C314.014 125.266 313.265 124.462 312.753 123.46C312.251 122.457 312 121.359 312 120.164ZM316.822 118.674V120.164C316.822 120.715 316.95 121.239 317.205 121.736C317.461 122.232 317.936 122.48 318.63 122.48C319.388 122.48 319.886 122.232 320.123 121.736C320.37 121.239 320.493 120.715 320.493 120.164V118.674C320.493 118.123 320.379 117.59 320.151 117.075C319.922 116.56 319.416 116.302 318.63 116.302C317.909 116.302 317.425 116.569 317.178 117.102C316.941 117.626 316.822 118.15 316.822 118.674ZM314.329 141.621L333.616 113.379H337.507L318.219 141.621H314.329Z" fill="white"/><path opacity="0.2" d="M221.391 150.34V149.523C221.391 148.868 221.538 148.263 221.83 147.708C222.127 147.154 222.558 146.707 223.121 146.37C223.685 146.032 224.371 145.863 225.18 145.863C226.01 145.863 226.706 146.029 227.27 146.362C227.839 146.695 228.269 147.138 228.562 147.693C228.854 148.248 229 148.858 229 149.523V150.34C229 150.995 228.851 151.6 228.554 152.155C228.262 152.709 227.831 153.156 227.262 153.493C226.693 153.831 225.999 154 225.18 154C224.361 154 223.669 153.831 223.106 153.493C222.542 153.156 222.114 152.709 221.822 152.155C221.535 151.6 221.391 150.995 221.391 150.34ZM224.115 149.523V150.34C224.115 150.627 224.189 150.912 224.335 151.194C224.486 151.472 224.768 151.61 225.18 151.61C225.613 151.61 225.898 151.474 226.033 151.202C226.174 150.93 226.245 150.642 226.245 150.34V149.523C226.245 149.221 226.179 148.928 226.049 148.646C225.918 148.364 225.629 148.222 225.18 148.222C224.768 148.222 224.486 148.364 224.335 148.646C224.189 148.928 224.115 149.221 224.115 149.523ZM213 141.477V140.66C213 139.995 213.149 139.385 213.446 138.83C213.749 138.276 214.182 137.832 214.746 137.499C215.309 137.166 215.99 137 216.789 137C217.618 137 218.315 137.166 218.879 137.499C219.447 137.832 219.878 138.276 220.17 138.83C220.462 139.385 220.609 139.995 220.609 140.66V141.477C220.609 142.142 220.46 142.75 220.162 143.299C219.87 143.849 219.44 144.288 218.871 144.615C218.302 144.943 217.608 145.107 216.789 145.107C215.969 145.107 215.278 144.94 214.714 144.608C214.151 144.275 213.723 143.834 213.431 143.284C213.144 142.735 213 142.132 213 141.477ZM215.755 140.66V141.477C215.755 141.779 215.828 142.067 215.975 142.339C216.121 142.611 216.392 142.747 216.789 142.747C217.222 142.747 217.506 142.611 217.642 142.339C217.783 142.067 217.853 141.779 217.853 141.477V140.66C217.853 140.358 217.788 140.065 217.658 139.783C217.527 139.501 217.237 139.359 216.789 139.359C216.376 139.359 216.1 139.506 215.959 139.798C215.823 140.085 215.755 140.373 215.755 140.66ZM214.331 153.244L225.352 137.756H227.575L216.554 153.244H214.331Z" fill="#E7EDFF"/><path opacity="0.2" d="M289.769 169.201V168.577C289.769 168.075 289.87 167.613 290.07 167.189C290.275 166.765 290.571 166.423 290.958 166.165C291.346 165.907 291.818 165.778 292.374 165.778C292.944 165.778 293.423 165.905 293.811 166.159C294.202 166.414 294.498 166.753 294.699 167.177C294.9 167.601 295 168.068 295 168.577V169.201C295 169.702 294.898 170.165 294.693 170.589C294.492 171.013 294.196 171.354 293.805 171.613C293.414 171.871 292.937 172 292.374 172C291.811 172 291.335 171.871 290.948 171.613C290.56 171.354 290.266 171.013 290.065 170.589C289.868 170.165 289.769 169.702 289.769 169.201ZM291.642 168.577V169.201C291.642 169.421 291.692 169.639 291.793 169.855C291.897 170.067 292.09 170.173 292.374 170.173C292.672 170.173 292.867 170.069 292.96 169.86C293.057 169.652 293.106 169.432 293.106 169.201V168.577C293.106 168.345 293.061 168.122 292.971 167.906C292.881 167.69 292.682 167.582 292.374 167.582C292.09 167.582 291.897 167.69 291.793 167.906C291.692 168.122 291.642 168.345 291.642 168.577ZM284 162.423V161.799C284 161.29 284.102 160.824 284.307 160.399C284.515 159.975 284.813 159.636 285.2 159.382C285.588 159.127 286.056 159 286.605 159C287.175 159 287.654 159.127 288.042 159.382C288.433 159.636 288.729 159.975 288.93 160.399C289.13 160.824 289.231 161.29 289.231 161.799V162.423C289.231 162.932 289.129 163.397 288.924 163.817C288.723 164.237 288.427 164.573 288.036 164.823C287.645 165.074 287.168 165.199 286.605 165.199C286.041 165.199 285.566 165.072 285.179 164.818C284.791 164.563 284.497 164.226 284.296 163.806C284.099 163.385 284 162.925 284 162.423ZM285.894 161.799V162.423C285.894 162.655 285.945 162.875 286.045 163.083C286.145 163.291 286.332 163.395 286.605 163.395C286.902 163.395 287.098 163.291 287.191 163.083C287.288 162.875 287.337 162.655 287.337 162.423V161.799C287.337 161.568 287.292 161.344 287.202 161.128C287.112 160.912 286.913 160.804 286.605 160.804C286.321 160.804 286.131 160.916 286.034 161.14C285.941 161.359 285.894 161.579 285.894 161.799ZM284.915 171.422L292.492 159.578H294.021L286.443 171.422H284.915Z" fill="#E7EDFF"/><path opacity="0.2" d="M238.769 50.2011V49.5765C238.769 49.0753 238.87 48.6127 239.07 48.1886C239.275 47.7645 239.571 47.4233 239.958 47.165C240.346 46.9067 240.818 46.7776 241.374 46.7776C241.944 46.7776 242.423 46.9048 242.811 47.1593C243.202 47.4137 243.498 47.753 243.699 48.177C243.9 48.6011 244 49.0676 244 49.5765V50.2011C244 50.7023 243.898 51.1649 243.693 51.589C243.492 52.013 243.196 52.3542 242.805 52.6125C242.414 52.8708 241.937 53 241.374 53C240.811 53 240.335 52.8708 239.948 52.6125C239.56 52.3542 239.266 52.013 239.065 51.589C238.868 51.1649 238.769 50.7023 238.769 50.2011ZM240.642 49.5765V50.2011C240.642 50.4208 240.692 50.6386 240.793 50.8545C240.897 51.0666 241.09 51.1726 241.374 51.1726C241.672 51.1726 241.867 51.0685 241.96 50.8603C242.057 50.6521 242.106 50.4324 242.106 50.2011V49.5765C242.106 49.3452 242.061 49.1216 241.971 48.9057C241.881 48.6898 241.682 48.5819 241.374 48.5819C241.09 48.5819 240.897 48.6898 240.793 48.9057C240.692 49.1216 240.642 49.3452 240.642 49.5765ZM233 43.4235V42.7989C233 42.29 233.102 41.8235 233.307 41.3995C233.515 40.9754 233.813 40.6361 234.2 40.3817C234.588 40.1272 235.056 40 235.605 40C236.175 40 236.654 40.1272 237.042 40.3817C237.433 40.6361 237.729 40.9754 237.93 41.3995C238.13 41.8235 238.231 42.29 238.231 42.7989V43.4235C238.231 43.9324 238.129 44.3969 237.924 44.8172C237.723 45.2374 237.427 45.5728 237.036 45.8234C236.645 46.074 236.168 46.1993 235.605 46.1993C235.041 46.1993 234.566 46.0721 234.179 45.8176C233.791 45.5632 233.497 45.2258 233.296 44.8056C233.099 44.3854 233 43.9247 233 43.4235ZM234.894 42.7989V43.4235C234.894 43.6548 234.945 43.8746 235.045 44.0827C235.145 44.2909 235.332 44.395 235.605 44.395C235.902 44.395 236.098 44.2909 236.191 44.0827C236.288 43.8746 236.337 43.6548 236.337 43.4235V42.7989C236.337 42.5676 236.292 42.344 236.202 42.1281C236.112 41.9122 235.913 41.8043 235.605 41.8043C235.321 41.8043 235.131 41.9161 235.034 42.1397C234.941 42.3594 234.894 42.5792 234.894 42.7989ZM233.915 52.4217L241.492 40.5783H243.021L235.443 52.4217H233.915Z" fill="#E7EDFF"/><path opacity="0.2" d="M338.342 27.7705V27.0498C338.342 26.4715 338.47 25.9377 338.726 25.4484C338.986 24.9591 339.363 24.5654 339.856 24.2673C340.349 23.9693 340.95 23.8203 341.658 23.8203C342.384 23.8203 342.993 23.9671 343.486 24.2607C343.984 24.5543 344.361 24.9457 344.616 25.4351C344.872 25.9244 345 26.4626 345 27.0498V27.7705C345 28.3488 344.87 28.8826 344.61 29.3719C344.354 29.8612 343.977 30.2549 343.479 30.5529C342.982 30.851 342.374 31 341.658 31C340.941 31 340.336 30.851 339.842 30.5529C339.349 30.2549 338.975 29.8612 338.719 29.3719C338.468 28.8826 338.342 28.3488 338.342 27.7705ZM340.726 27.0498V27.7705C340.726 28.024 340.79 28.2754 340.918 28.5245C341.05 28.7691 341.297 28.8915 341.658 28.8915C342.037 28.8915 342.285 28.7714 342.404 28.5311C342.527 28.2909 342.589 28.0374 342.589 27.7705V27.0498C342.589 26.7829 342.532 26.5249 342.418 26.2758C342.304 26.0267 342.05 25.9021 341.658 25.9021C341.297 25.9021 341.05 26.0267 340.918 26.2758C340.79 26.5249 340.726 26.7829 340.726 27.0498ZM331 19.9502V19.2295C331 18.6423 331.13 18.1041 331.39 17.6148C331.655 17.1254 332.034 16.734 332.527 16.4404C333.021 16.1468 333.616 16 334.315 16C335.041 16 335.651 16.1468 336.144 16.4404C336.642 16.734 337.018 17.1254 337.274 17.6148C337.53 18.1041 337.658 18.6423 337.658 19.2295V19.9502C337.658 20.5374 337.527 21.0734 337.267 21.5583C337.011 22.0431 336.635 22.4302 336.137 22.7193C335.639 23.0085 335.032 23.153 334.315 23.153C333.598 23.153 332.993 23.0062 332.5 22.7126C332.007 22.419 331.632 22.0298 331.377 21.5449C331.126 21.0601 331 20.5285 331 19.9502ZM333.411 19.2295V19.9502C333.411 20.2171 333.475 20.4706 333.603 20.7109C333.731 20.9511 333.968 21.0712 334.315 21.0712C334.694 21.0712 334.943 20.9511 335.062 20.7109C335.185 20.4706 335.247 20.2171 335.247 19.9502V19.2295C335.247 18.9626 335.189 18.7046 335.075 18.4555C334.961 18.2064 334.708 18.0819 334.315 18.0819C333.954 18.0819 333.712 18.2109 333.589 18.4689C333.47 18.7224 333.411 18.976 333.411 19.2295ZM332.164 30.3327L341.808 16.6673H343.753L334.11 30.3327H332.164Z" fill="#E7EDFF"/><path opacity="0.2" d="M350.769 77.4164V76.8399C350.769 76.3772 350.87 75.9502 351.07 75.5587C351.275 75.1673 351.571 74.8523 351.958 74.6139C352.346 74.3754 352.818 74.2562 353.374 74.2562C353.944 74.2562 354.423 74.3737 354.811 74.6085C355.202 74.8434 355.498 75.1566 355.699 75.548C355.9 75.9395 356 76.3701 356 76.8399V77.4164C356 77.879 355.898 78.306 355.693 78.6975C355.492 79.089 355.196 79.4039 354.805 79.6423C354.414 79.8808 353.937 80 353.374 80C352.811 80 352.335 79.8808 351.948 79.6423C351.56 79.4039 351.266 79.089 351.065 78.6975C350.868 78.306 350.769 77.879 350.769 77.4164ZM352.642 76.8399V77.4164C352.642 77.6192 352.692 77.8203 352.793 78.0196C352.897 78.2153 353.09 78.3132 353.374 78.3132C353.672 78.3132 353.867 78.2171 353.96 78.0249C354.057 77.8327 354.106 77.6299 354.106 77.4164V76.8399C354.106 76.6263 354.061 76.4199 353.971 76.2206C353.881 76.0214 353.682 75.9217 353.374 75.9217C353.09 75.9217 352.897 76.0214 352.793 76.2206C352.692 76.4199 352.642 76.6263 352.642 76.8399ZM345 71.1601V70.5836C345 70.1139 345.102 69.6833 345.307 69.2918C345.515 68.9004 345.813 68.5872 346.2 68.3523C346.588 68.1174 347.056 68 347.605 68C348.175 68 348.654 68.1174 349.042 68.3523C349.433 68.5872 349.729 68.9004 349.93 69.2918C350.13 69.6833 350.231 70.1139 350.231 70.5836V71.1601C350.231 71.6299 350.129 72.0587 349.924 72.4466C349.723 72.8345 349.427 73.1441 349.036 73.3754C348.645 73.6068 348.168 73.7224 347.605 73.7224C347.041 73.7224 346.566 73.605 346.179 73.3701C345.791 73.1352 345.497 72.8238 345.296 72.4359C345.099 72.048 345 71.6228 345 71.1601ZM346.894 70.5836V71.1601C346.894 71.3737 346.945 71.5765 347.045 71.7687C347.145 71.9609 347.332 72.0569 347.605 72.0569C347.902 72.0569 348.098 71.9609 348.191 71.7687C348.288 71.5765 348.337 71.3737 348.337 71.1601V70.5836C348.337 70.3701 348.292 70.1637 348.202 69.9644C348.112 69.7651 347.913 69.6655 347.605 69.6655C347.321 69.6655 347.131 69.7687 347.034 69.9751C346.941 70.1779 346.894 70.3808 346.894 70.5836ZM345.915 79.4662L353.492 68.5338H355.021L347.443 79.4662H345.915Z" fill="#E7EDFF"/><path d="M26.1109 19.9379C25.7463 20.5468 24.9531 20.7475 24.3394 20.3858C23.7257 20.0241 23.5234 19.2372 23.888 18.6283C24.2525 18.0195 25.0457 17.8188 25.6595 18.1805C26.2732 18.5422 26.4755 19.329 26.1109 19.9379Z" fill="url(#paint4_linear_96_688)"/><path d="M21.6983 19.3687C21.4411 19.7984 20.8799 19.9401 20.4468 19.685C20.0136 19.4299 19.8707 18.8743 20.1279 18.4435C20.385 18.0126 20.9462 17.872 21.3794 18.1271C21.8137 18.3834 21.9566 18.939 21.6983 19.3687Z" fill="url(#paint5_linear_96_688)"/><path d="M33.9822 37.9299C38.7184 37.3777 42.5278 33.5362 42.8386 28.6471C43.1884 23.1457 38.9756 18.4051 33.4302 18.0593C32.7799 18.0185 32.1273 18.0412 31.4815 18.1251C30.1489 18.2328 29.0231 18.7373 29.0231 18.7373C28.1111 19.1795 27.5225 19.9188 27.5225 20.9075C27.5225 22.1933 28.5728 23.2364 29.8689 23.2364C30.086 23.2364 30.8358 23.0006 31.0141 22.9394C31.6952 22.7035 32.4176 22.606 33.1376 22.6525C35.0531 22.7727 36.6726 23.8657 37.5401 25.4157C38.043 26.3137 38.275 27.3353 38.2087 28.3603C38.0201 31.3253 35.4451 33.5782 32.4553 33.3911C30.6895 33.28 29.1751 32.3423 28.2688 30.9828C27.1853 29.5769 27.4356 27.3285 27.4345 27.3001C27.3899 26.0495 26.3578 25.0494 25.0869 25.0494C24.0012 25.0494 23.0903 25.7808 22.8194 26.7729C22.7668 26.9679 22.7394 27.5394 22.7474 27.6153C22.5234 33.0215 26.6939 37.6396 32.1638 37.9809C32.7707 38.0183 33.3788 38.0013 33.9822 37.9299Z" fill="url(#paint6_linear_96_688)"/><path d="M24.7645 23.4981C24.2914 24.2884 23.2628 24.5481 22.4673 24.0787C21.6718 23.6093 21.4089 22.5888 21.8821 21.7996C22.3553 21.0105 23.3839 20.7497 24.1794 21.2191C24.9748 21.6885 25.2366 22.709 24.7645 23.4981Z" fill="url(#paint7_linear_96_688)"/></g><defs><filter id="filter0_f_96_688" x="40" y="-58" width="480" height="480" filterUnits="userSpaceOnUse" color-interpolation-filters="sRGB"><feFlood flood-opacity="0" result="BackgroundImageFix"/><feBlend mode="normal" in="SourceGraphic" in2="BackgroundImageFix" result="shape"/><feGaussianBlur stdDeviation="100" result="effect1_foregroundBlur_96_688"/></filter><filter id="filter1_f_96_688" x="-267" y="-44" width="480" height="480" filterUnits="userSpaceOnUse" color-interpolation-filters="sRGB"><feFlood flood-opacity="0" result="BackgroundImageFix"/><feBlend mode="normal" in="SourceGraphic" in2="BackgroundImageFix" result="shape"/><feGaussianBlur stdDeviation="100" result="effect1_foregroundBlur_96_688"/></filter><linearGradient id="paint0_linear_96_688" x1="122.842" y1="52.1819" x2="187.486" y2="52.1819" gradientUnits="userSpaceOnUse"><stop stop-color="#0D1328" stop-opacity="0"/><stop offset="1" stop-color="#0D1328"/></linearGradient><linearGradient id="paint1_linear_96_688" x1="188.932" y1="116.455" x2="-157.56" y2="116.455" gradientUnits="userSpaceOnUse"><stop stop-color="#0D1328"/><stop offset="0.0001" stop-color="#0D1328"/><stop offset="1" stop-color="#1C2235" stop-opacity="0"/></linearGradient><linearGradient id="paint2_linear_96_688" x1="21" y1="141.5" x2="189" y2="141.5" gradientUnits="userSpaceOnUse"><stop stop-color="#CD7BFA"/><stop offset="1" stop-color="#E76FFB"/></linearGradient><linearGradient id="paint3_linear_96_688" x1="250" y1="90.5" x2="339" y2="90.5" gradientUnits="userSpaceOnUse"><stop stop-color="#CD7BFA"/><stop offset="1" stop-color="#E76FFB"/></linearGradient><linearGradient id="paint4_linear_96_688" x1="26.2923" y1="19.2831" x2="23.7065" y2="19.2831" gradientUnits="userSpaceOnUse"><stop stop-color="#0BA2FB"/><stop offset="1" stop-color="#48E1F4"/></linearGradient><linearGradient id="paint5_linear_96_688" x1="21.8269" y1="18.906" x2="20" y2="18.906" gradientUnits="userSpaceOnUse"><stop stop-color="#0BA2FB"/><stop offset="1" stop-color="#48E1F4"/></linearGradient><linearGradient id="paint6_linear_96_688" x1="42.8589" y1="28.0199" x2="22.7388" y2="28.0199" gradientUnits="userSpaceOnUse"><stop stop-color="#0BA2FB"/><stop offset="1" stop-color="#48E1F4"/></linearGradient><linearGradient id="paint7_linear_96_688" x1="24.9994" y1="22.649" x2="21.6467" y2="22.649" gradientUnits="userSpaceOnUse"><stop stop-color="#0BA2FB"/><stop offset="1" stop-color="#48E1F4"/></linearGradient><clipPath id="clip0_96_688"><rect width="380" height="180" rx="16" fill="white"/></clipPath><clipPath id="clip1_96_688"><rect width="663" height="385" fill="white" transform="translate(-155 -140)"/></clipPath></defs></svg>