<svg xmlns="http://www.w3.org/2000/svg" width="380" height="180" viewBox="0 0 380 180" fill="none"><g clip-path="url(#clip0_132_160)"><rect x="0.5" y="0.5" width="379" height="179" rx="15.5" fill="#040A20" stroke="#0F1830"/><g clip-path="url(#clip1_132_160)"><path d="M380.622 -76.3635H379.986V180.727H380.622V-76.3635Z" fill="#0D1328"/><path d="M123.32 52.1819H187.009V52.8182H123.32V52.1819Z" fill="url(#paint0_linear_132_160)"/><path d="M316.297 -75.7273H315.66V181.364H316.297V-75.7273Z" fill="#0D1328"/><path d="M380.623 52.1819H316.297V52.8182H380.623V52.1819Z" fill="#0D1328"/><path d="M380.623 116.455H316.297V117.091H380.623V116.455Z" fill="#0D1328"/><path d="M251.971 -75.7273H251.334V181.364H251.971V-75.7273Z" fill="#0D1328"/><path d="M316.297 52.1819H251.971V52.8182H316.297V52.1819Z" fill="#0D1328"/><path d="M316.297 116.455H251.971V117.091H316.297V116.455Z" fill="#0D1328"/><path d="M187.009 -75.7273H186.372V181.364H187.009V-75.7273Z" fill="#0D1328"/><path d="M251.334 52.1819H187.009V52.8182H251.334V52.1819Z" fill="#0D1328"/><path d="M251.334 116.455H187.009V117.091H251.334V116.455Z" fill="#0D1328"/><path d="M186.372 116.455H-155V117.091H186.372V116.455Z" fill="url(#paint1_linear_132_160)"/></g><g filter="url(#filter0_f_132_160)"><circle cx="280" cy="182" r="40" fill="#FFC32A"/></g><g filter="url(#filter1_f_132_160)"><circle cx="-27" cy="196" r="40" fill="#FFC32A"/></g><path d="M26.9318 49.4545H30.8239V59.4261C30.8191 60.3731 30.58 61.2064 30.1065 61.9261C29.6378 62.6411 28.9891 63.1998 28.1605 63.6023C27.3366 64 26.3873 64.1989 25.3125 64.1989C24.3797 64.1989 23.5275 64.0379 22.7557 63.7159C21.9839 63.3892 21.3684 62.8778 20.9091 62.1818C20.4498 61.4811 20.2225 60.572 20.2273 59.4545H24.1761C24.1903 59.8191 24.2519 60.1269 24.3608 60.3778C24.4744 60.6288 24.6307 60.8182 24.8295 60.946C25.0331 61.0691 25.2794 61.1307 25.5682 61.1307C25.8617 61.1307 26.108 61.0668 26.3068 60.9389C26.5104 60.8111 26.6643 60.6217 26.7685 60.3707C26.8726 60.1151 26.9271 59.8002 26.9318 59.4261V49.4545ZM38.0078 64.1989C36.8241 64.1989 35.8108 63.9645 34.968 63.4957C34.1252 63.0223 33.4789 62.3641 33.0291 61.5213C32.5793 60.6738 32.3544 59.6913 32.3544 58.5739C32.3544 57.4564 32.5793 56.4763 33.0291 55.6335C33.4789 54.786 34.1252 54.1278 34.968 53.6591C35.8108 53.1856 36.8241 52.9489 38.0078 52.9489C39.1915 52.9489 40.2048 53.1856 41.0476 53.6591C41.8904 54.1278 42.5367 54.786 42.9865 55.6335C43.4363 56.4763 43.6612 57.4564 43.6612 58.5739C43.6612 59.6913 43.4363 60.6738 42.9865 61.5213C42.5367 62.3641 41.8904 63.0223 41.0476 63.4957C40.2048 63.9645 39.1915 64.1989 38.0078 64.1989ZM38.0362 61.3011C38.3677 61.3011 38.6541 61.1899 38.8956 60.9673C39.1371 60.7448 39.3241 60.4276 39.4567 60.0156C39.5893 59.6037 39.6555 59.1136 39.6555 58.5455C39.6555 57.9725 39.5893 57.4825 39.4567 57.0753C39.3241 56.6634 39.1371 56.3461 38.8956 56.1236C38.6541 55.901 38.3677 55.7898 38.0362 55.7898C37.6858 55.7898 37.3852 55.901 37.1342 56.1236C36.8833 56.3461 36.6915 56.6634 36.5589 57.0753C36.4264 57.4825 36.3601 57.9725 36.3601 58.5455C36.3601 59.1136 36.4264 59.6037 36.5589 60.0156C36.6915 60.4276 36.8833 60.7448 37.1342 60.9673C37.3852 61.1899 37.6858 61.3011 38.0362 61.3011ZM45.2521 64V53.0909H49.1726V64H45.2521ZM47.2124 51.9545C46.6821 51.9545 46.2275 51.7794 45.8487 51.429C45.4699 51.0786 45.2805 50.6572 45.2805 50.1648C45.2805 49.6723 45.4699 49.2509 45.8487 48.9006C46.2275 48.5502 46.6821 48.375 47.2124 48.375C47.7474 48.375 48.2019 48.5502 48.576 48.9006C48.9548 49.2509 49.1442 49.6723 49.1442 50.1648C49.1442 50.6572 48.9548 51.0786 48.576 51.429C48.2019 51.7794 47.7474 51.9545 47.2124 51.9545ZM55.0906 57.8636V64H51.1701V53.0909H54.8917V55.1648H55.0053C55.2421 54.4735 55.6587 53.9313 56.2553 53.5384C56.8567 53.1454 57.5574 52.9489 58.3576 52.9489C59.1294 52.9489 59.7994 53.1264 60.3675 53.4815C60.9405 53.8319 61.3832 54.3149 61.6957 54.9304C62.0129 55.5459 62.1692 56.2491 62.1644 57.0398V64H58.244V57.8636C58.2487 57.3239 58.1114 56.9001 57.832 56.5923C57.5574 56.2846 57.1739 56.1307 56.6815 56.1307C56.3595 56.1307 56.0778 56.2017 55.8363 56.3438C55.5996 56.4811 55.4173 56.6799 55.2894 56.9403C55.1616 57.196 55.0953 57.5038 55.0906 57.8636ZM73.3398 64.1989C72.1561 64.1989 71.1429 63.9645 70.3001 63.4957C69.4573 63.0223 68.811 62.3641 68.3612 61.5213C67.9113 60.6738 67.6864 59.6913 67.6864 58.5739C67.6864 57.4564 67.9113 56.4763 68.3612 55.6335C68.811 54.786 69.4573 54.1278 70.3001 53.6591C71.1429 53.1856 72.1561 52.9489 73.3398 52.9489C74.5236 52.9489 75.5368 53.1856 76.3796 53.6591C77.2224 54.1278 77.8687 54.786 78.3185 55.6335C78.7683 56.4763 78.9933 57.4564 78.9933 58.5739C78.9933 59.6913 78.7683 60.6738 78.3185 61.5213C77.8687 62.3641 77.2224 63.0223 76.3796 63.4957C75.5368 63.9645 74.5236 64.1989 73.3398 64.1989ZM73.3683 61.3011C73.6997 61.3011 73.9862 61.1899 74.2276 60.9673C74.4691 60.7448 74.6561 60.4276 74.7887 60.0156C74.9213 59.6037 74.9876 59.1136 74.9876 58.5455C74.9876 57.9725 74.9213 57.4825 74.7887 57.0753C74.6561 56.6634 74.4691 56.3461 74.2276 56.1236C73.9862 55.901 73.6997 55.7898 73.3683 55.7898C73.0179 55.7898 72.7172 55.901 72.4663 56.1236C72.2153 56.3461 72.0236 56.6634 71.891 57.0753C71.7584 57.4825 71.6921 57.9725 71.6921 58.5455C71.6921 59.1136 71.7584 59.6037 71.891 60.0156C72.0236 60.4276 72.2153 60.7448 72.4663 60.9673C72.7172 61.1899 73.0179 61.3011 73.3683 61.3011ZM87.658 59.2273V53.0909H91.5785V64H87.8569V61.9261H87.7433C87.5065 62.6222 87.0922 63.1667 86.5004 63.5597C85.9085 63.9479 85.2054 64.142 84.391 64.142C83.6287 64.142 82.9611 63.9669 82.3881 63.6165C81.82 63.2661 81.3772 62.7831 81.06 62.1676C80.7475 61.5521 80.5889 60.8466 80.5842 60.0511V53.0909H84.5046V59.2273C84.5094 59.767 84.6467 60.1908 84.9165 60.4986C85.1912 60.8063 85.5747 60.9602 86.0671 60.9602C86.3938 60.9602 86.6755 60.8916 86.9123 60.7543C87.1538 60.6122 87.3384 60.4134 87.4663 60.1577C87.5988 59.8973 87.6628 59.5871 87.658 59.2273ZM93.5724 64V53.0909H97.3793V55.1648H97.4929C97.6918 54.3977 98.0066 53.8366 98.4375 53.4815C98.8731 53.1264 99.3821 52.9489 99.9645 52.9489C100.135 52.9489 100.303 52.9631 100.469 52.9915C100.639 53.0152 100.803 53.0507 100.959 53.098V56.4432C100.765 56.3769 100.526 56.3272 100.241 56.294C99.9574 56.2609 99.7135 56.2443 99.5099 56.2443C99.1264 56.2443 98.7808 56.3319 98.473 56.5071C98.17 56.6776 97.9309 56.919 97.7557 57.2315C97.5805 57.5393 97.4929 57.9015 97.4929 58.3182V64H93.5724ZM113.292 88.1705C112.596 88.1705 111.98 88.0568 111.445 87.8295C110.915 87.5975 110.498 87.2472 110.195 86.7784C109.892 86.3097 109.741 85.7131 109.741 84.9886C109.741 84.392 109.843 83.883 110.046 83.4616C110.25 83.0355 110.534 82.6875 110.898 82.4176C111.263 82.1477 111.687 81.9418 112.17 81.7997C112.657 81.6577 113.183 81.5653 113.746 81.5227C114.357 81.4754 114.847 81.4186 115.217 81.3523C115.591 81.2812 115.861 81.1842 116.026 81.0611C116.192 80.9332 116.275 80.7652 116.275 80.5568V80.5284C116.275 80.2443 116.166 80.0265 115.948 79.875C115.73 79.7235 115.451 79.6477 115.11 79.6477C114.736 79.6477 114.431 79.7306 114.194 79.8963C113.962 80.0573 113.822 80.3059 113.775 80.642H110.167C110.214 79.9792 110.425 79.3684 110.799 78.8097C111.178 78.2462 111.729 77.7964 112.454 77.4602C113.178 77.1193 114.083 76.9489 115.167 76.9489C115.948 76.9489 116.649 77.0412 117.269 77.2259C117.889 77.4058 118.417 77.6591 118.853 77.9858C119.289 78.3078 119.62 78.6866 119.847 79.1222C120.079 79.553 120.195 80.0218 120.195 80.5284V88H116.531V86.4659H116.445C116.228 86.8731 115.962 87.2022 115.65 87.4531C115.342 87.7041 114.989 87.8864 114.592 88C114.199 88.1136 113.765 88.1705 113.292 88.1705ZM114.57 85.6989C114.869 85.6989 115.148 85.6373 115.408 85.5142C115.674 85.3911 115.889 85.2135 116.055 84.9815C116.22 84.7495 116.303 84.4678 116.303 84.1364V83.2273C116.199 83.2699 116.088 83.3101 115.969 83.348C115.856 83.3859 115.733 83.4214 115.6 83.4545C115.472 83.4877 115.335 83.5185 115.188 83.5469C115.046 83.5753 114.897 83.6013 114.741 83.625C114.438 83.6723 114.189 83.7505 113.995 83.8594C113.806 83.9635 113.664 84.0938 113.569 84.25C113.479 84.4015 113.434 84.572 113.434 84.7614C113.434 85.0644 113.54 85.2964 113.754 85.4574C113.967 85.6184 114.239 85.6989 114.57 85.6989ZM125.989 81.8636V88H122.069V77.0909H125.79V79.1648H125.904C126.141 78.4735 126.557 77.9313 127.154 77.5384C127.755 77.1454 128.456 76.9489 129.256 76.9489C130.028 76.9489 130.698 77.1264 131.266 77.4815C131.839 77.8319 132.282 78.3149 132.594 78.9304C132.911 79.5459 133.068 80.2491 133.063 81.0398V88H129.142V81.8636C129.147 81.3239 129.01 80.9001 128.73 80.5923C128.456 80.2846 128.072 80.1307 127.58 80.1307C127.258 80.1307 126.976 80.2017 126.735 80.3438C126.498 80.4811 126.316 80.6799 126.188 80.9403C126.06 81.196 125.994 81.5038 125.989 81.8636ZM138.947 88.142C138.171 88.142 137.456 87.9384 136.802 87.5312C136.154 87.1241 135.633 86.5062 135.24 85.6776C134.851 84.849 134.657 83.8049 134.657 82.5455C134.657 81.2292 134.861 80.1591 135.268 79.3352C135.68 78.5114 136.21 77.9077 136.859 77.5241C137.512 77.1406 138.199 76.9489 138.919 76.9489C139.458 76.9489 139.932 77.0436 140.339 77.233C140.746 77.4176 141.087 77.6662 141.362 77.9787C141.636 78.2865 141.845 78.625 141.987 78.9943H142.044V73.4545H145.964V88H142.072V86.2102H141.987C141.835 86.5795 141.618 86.911 141.333 87.2045C141.054 87.4934 140.713 87.723 140.311 87.8935C139.913 88.0592 139.458 88.142 138.947 88.142ZM140.396 85.1307C140.756 85.1307 141.064 85.0265 141.319 84.8182C141.58 84.6051 141.779 84.3068 141.916 83.9233C142.058 83.535 142.129 83.0758 142.129 82.5455C142.129 82.0057 142.058 81.544 141.916 81.1605C141.779 80.7723 141.58 80.4763 141.319 80.2727C141.064 80.0644 140.756 79.9602 140.396 79.9602C140.036 79.9602 139.728 80.0644 139.473 80.2727C139.222 80.4763 139.028 80.7723 138.89 81.1605C138.758 81.544 138.691 82.0057 138.691 82.5455C138.691 83.0852 138.758 83.5492 138.89 83.9375C139.028 84.321 139.222 84.617 139.473 84.8253C139.728 85.0289 140.036 85.1307 140.396 85.1307ZM26.2216 112.199C25.0568 112.199 24.053 111.976 23.2102 111.531C22.3722 111.081 21.7259 110.437 21.2713 109.599C20.8215 108.757 20.5966 107.748 20.5966 106.574C20.5966 105.447 20.8239 104.462 21.2784 103.619C21.733 102.777 22.3745 102.121 23.2031 101.652C24.0317 101.183 25.0095 100.949 26.1364 100.949C26.9602 100.949 27.706 101.077 28.3736 101.332C29.0412 101.588 29.6117 101.96 30.0852 102.447C30.5587 102.93 30.9233 103.518 31.179 104.209C31.4347 104.9 31.5625 105.679 31.5625 106.545V107.455H21.8182V105.295H27.9545C27.9498 104.983 27.8693 104.708 27.7131 104.472C27.5616 104.23 27.3556 104.043 27.0952 103.911C26.8395 103.773 26.5483 103.705 26.2216 103.705C25.9044 103.705 25.6132 103.773 25.348 103.911C25.0829 104.043 24.8698 104.228 24.7088 104.464C24.5526 104.701 24.4697 104.978 24.4602 105.295V107.625C24.4602 107.975 24.5336 108.288 24.6804 108.562C24.8272 108.837 25.0379 109.053 25.3125 109.209C25.5871 109.365 25.9186 109.443 26.3068 109.443C26.5767 109.443 26.8229 109.405 27.0455 109.33C27.2727 109.254 27.4669 109.145 27.6278 109.003C27.7888 108.856 27.9072 108.681 27.983 108.477H31.5625C31.4394 109.235 31.1482 109.893 30.6889 110.452C30.2296 111.006 29.6212 111.437 28.8636 111.744C28.1108 112.047 27.2301 112.199 26.2216 112.199ZM36.2021 112.17C35.506 112.17 34.8905 112.057 34.3555 111.83C33.8252 111.598 33.4085 111.247 33.1055 110.778C32.8024 110.31 32.6509 109.713 32.6509 108.989C32.6509 108.392 32.7527 107.883 32.9563 107.462C33.1599 107.036 33.444 106.688 33.8086 106.418C34.1732 106.148 34.5969 105.942 35.0799 105.8C35.5676 105.658 36.0932 105.565 36.6566 105.523C37.2674 105.475 37.7575 105.419 38.1268 105.352C38.5008 105.281 38.7707 105.184 38.9364 105.061C39.1022 104.933 39.185 104.765 39.185 104.557V104.528C39.185 104.244 39.0761 104.027 38.8583 103.875C38.6405 103.723 38.3612 103.648 38.0202 103.648C37.6462 103.648 37.3408 103.731 37.104 103.896C36.872 104.057 36.7324 104.306 36.685 104.642H33.0771C33.1244 103.979 33.3351 103.368 33.7092 102.81C34.0879 102.246 34.6396 101.796 35.364 101.46C36.0884 101.119 36.9928 100.949 38.0771 100.949C38.8583 100.949 39.5591 101.041 40.1793 101.226C40.7996 101.406 41.3275 101.659 41.7631 101.986C42.1987 102.308 42.5302 102.687 42.7575 103.122C42.9895 103.553 43.1055 104.022 43.1055 104.528V112H39.4407V110.466H39.3555C39.1377 110.873 38.8725 111.202 38.56 111.453C38.2522 111.704 37.8995 111.886 37.5018 112C37.1088 112.114 36.6755 112.17 36.2021 112.17ZM37.4805 109.699C37.7788 109.699 38.0581 109.637 38.3185 109.514C38.5837 109.391 38.7991 109.214 38.9648 108.982C39.1306 108.75 39.2134 108.468 39.2134 108.136V107.227C39.1093 107.27 38.998 107.31 38.8796 107.348C38.766 107.386 38.6429 107.421 38.5103 107.455C38.3825 107.488 38.2451 107.518 38.0984 107.547C37.9563 107.575 37.8072 107.601 37.6509 107.625C37.3479 107.672 37.0993 107.75 36.9052 107.859C36.7158 107.964 36.5737 108.094 36.479 108.25C36.3891 108.402 36.3441 108.572 36.3441 108.761C36.3441 109.064 36.4506 109.296 36.6637 109.457C36.8768 109.618 37.149 109.699 37.4805 109.699ZM44.9787 112V101.091H48.7855V103.165H48.8991C49.098 102.398 49.4129 101.837 49.8438 101.482C50.2794 101.126 50.7884 100.949 51.3707 100.949C51.5412 100.949 51.7093 100.963 51.875 100.991C52.0455 101.015 52.2088 101.051 52.3651 101.098V104.443C52.1709 104.377 51.9318 104.327 51.6477 104.294C51.3636 104.261 51.1198 104.244 50.9162 104.244C50.5327 104.244 50.187 104.332 49.8793 104.507C49.5762 104.678 49.3371 104.919 49.1619 105.232C48.9867 105.539 48.8991 105.902 48.8991 106.318V112H44.9787ZM57.571 105.864V112H53.6506V101.091H57.3722V103.165H57.4858C57.7225 102.473 58.1392 101.931 58.7358 101.538C59.3371 101.145 60.0379 100.949 60.8381 100.949C61.6098 100.949 62.2798 101.126 62.848 101.482C63.4209 101.832 63.8636 102.315 64.1761 102.93C64.4934 103.546 64.6496 104.249 64.6449 105.04V112H60.7244V105.864C60.7292 105.324 60.5919 104.9 60.3125 104.592C60.0379 104.285 59.6544 104.131 59.1619 104.131C58.84 104.131 58.5582 104.202 58.3168 104.344C58.08 104.481 57.8977 104.68 57.7699 104.94C57.642 105.196 57.5758 105.504 57.571 105.864ZM70.5646 112V101.091H74.2862V103.165H74.3999C74.6271 102.483 75.0154 101.943 75.5646 101.545C76.1139 101.148 76.7673 100.949 77.5249 100.949C78.2919 100.949 78.9524 101.152 79.5064 101.56C80.0604 101.962 80.3942 102.497 80.5078 103.165H80.6214C80.8061 102.497 81.1991 101.962 81.8004 101.56C82.4018 101.152 83.1072 100.949 83.9169 100.949C84.9633 100.949 85.8108 101.285 86.4595 101.957C87.1129 102.63 87.4396 103.525 87.4396 104.642V112H83.5192V105.636C83.5192 105.158 83.3984 104.784 83.157 104.514C82.9155 104.24 82.5911 104.102 82.1839 104.102C81.7815 104.102 81.4619 104.24 81.2251 104.514C80.9931 104.784 80.8771 105.158 80.8771 105.636V112H77.1271V105.636C77.1271 105.158 77.0064 104.784 76.7649 104.514C76.5234 104.24 76.1991 104.102 75.7919 104.102C75.522 104.102 75.29 104.164 75.0959 104.287C74.9018 104.41 74.7502 104.588 74.6413 104.82C74.5372 105.047 74.4851 105.319 74.4851 105.636V112H70.5646ZM94.6289 112.199C93.4452 112.199 92.4319 111.964 91.5891 111.496C90.7463 111.022 90.1 110.364 89.6502 109.521C89.2004 108.674 88.9755 107.691 88.9755 106.574C88.9755 105.456 89.2004 104.476 89.6502 103.634C90.1 102.786 90.7463 102.128 91.5891 101.659C92.4319 101.186 93.4452 100.949 94.6289 100.949C95.8126 100.949 96.8259 101.186 97.6687 101.659C98.5115 102.128 99.1578 102.786 99.6076 103.634C100.057 104.476 100.282 105.456 100.282 106.574C100.282 107.691 100.057 108.674 99.6076 109.521C99.1578 110.364 98.5115 111.022 97.6687 111.496C96.8259 111.964 95.8126 112.199 94.6289 112.199ZM94.6573 109.301C94.9888 109.301 95.2752 109.19 95.5167 108.967C95.7582 108.745 95.9452 108.428 96.0778 108.016C96.2103 107.604 96.2766 107.114 96.2766 106.545C96.2766 105.973 96.2103 105.482 96.0778 105.075C95.9452 104.663 95.7582 104.346 95.5167 104.124C95.2752 103.901 94.9888 103.79 94.6573 103.79C94.3069 103.79 94.0063 103.901 93.7553 104.124C93.5044 104.346 93.3126 104.663 93.18 105.075C93.0475 105.482 92.9812 105.973 92.9812 106.545C92.9812 107.114 93.0475 107.604 93.18 108.016C93.3126 108.428 93.5044 108.745 93.7553 108.967C94.0063 109.19 94.3069 109.301 94.6573 109.301ZM105.794 105.864V112H101.873V101.091H105.595V103.165H105.708C105.945 102.473 106.362 101.931 106.958 101.538C107.56 101.145 108.261 100.949 109.061 100.949C109.833 100.949 110.502 101.126 111.071 101.482C111.644 101.832 112.086 102.315 112.399 102.93C112.716 103.546 112.872 104.249 112.868 105.04V112H108.947V105.864C108.952 105.324 108.815 104.9 108.535 104.592C108.261 104.285 107.877 104.131 107.385 104.131C107.063 104.131 106.781 104.202 106.539 104.344C106.303 104.481 106.12 104.68 105.993 104.94C105.865 105.196 105.798 105.504 105.794 105.864ZM120.03 112.199C118.865 112.199 117.862 111.976 117.019 111.531C116.181 111.081 115.534 110.437 115.08 109.599C114.63 108.757 114.405 107.748 114.405 106.574C114.405 105.447 114.632 104.462 115.087 103.619C115.542 102.777 116.183 102.121 117.012 101.652C117.84 101.183 118.818 100.949 119.945 100.949C120.769 100.949 121.515 101.077 122.182 101.332C122.85 101.588 123.42 101.96 123.894 102.447C124.367 102.93 124.732 103.518 124.988 104.209C125.243 104.9 125.371 105.679 125.371 106.545V107.455H115.627V105.295H121.763C121.758 104.983 121.678 104.708 121.522 104.472C121.37 104.23 121.164 104.043 120.904 103.911C120.648 103.773 120.357 103.705 120.03 103.705C119.713 103.705 119.422 103.773 119.157 103.911C118.891 104.043 118.678 104.228 118.517 104.464C118.361 104.701 118.278 104.978 118.269 105.295V107.625C118.269 107.975 118.342 108.288 118.489 108.562C118.636 108.837 118.846 109.053 119.121 109.209C119.396 109.365 119.727 109.443 120.115 109.443C120.385 109.443 120.632 109.405 120.854 109.33C121.081 109.254 121.275 109.145 121.436 109.003C121.597 108.856 121.716 108.681 121.792 108.477H125.371C125.248 109.235 124.957 109.893 124.498 110.452C124.038 111.006 123.43 111.437 122.672 111.744C121.919 112.047 121.039 112.199 120.03 112.199ZM129.084 116.091C128.634 116.091 128.205 116.055 127.798 115.984C127.391 115.918 127.034 115.826 126.726 115.707L127.578 112.923C127.9 113.037 128.194 113.11 128.459 113.143C128.729 113.177 128.958 113.158 129.148 113.087C129.342 113.016 129.482 112.881 129.567 112.682L129.652 112.483L125.817 101.091H129.908L131.669 108.648H131.783L133.572 101.091H137.692L133.714 112.909C133.516 113.51 133.227 114.05 132.848 114.528C132.474 115.011 131.982 115.393 131.371 115.672C130.76 115.951 129.998 116.091 129.084 116.091ZM20.9375 136V121.455H24.858V126.994H24.9148C25.0568 126.625 25.2652 126.286 25.5398 125.979C25.8144 125.666 26.1553 125.418 26.5625 125.233C26.9697 125.044 27.4432 124.949 27.983 124.949C28.7027 124.949 29.3868 125.141 30.0355 125.524C30.6889 125.908 31.2192 126.511 31.6264 127.335C32.0384 128.159 32.2443 129.229 32.2443 130.545C32.2443 131.805 32.0478 132.849 31.6548 133.678C31.2666 134.506 30.7457 135.124 30.0923 135.531C29.4437 135.938 28.7311 136.142 27.9545 136.142C27.4432 136.142 26.9863 136.059 26.5838 135.893C26.1861 135.723 25.8452 135.493 25.5611 135.205C25.2817 134.911 25.0663 134.58 24.9148 134.21H24.8295V136H20.9375ZM24.7727 130.545C24.7727 131.076 24.8414 131.535 24.9787 131.923C25.1207 132.307 25.3196 132.605 25.5753 132.818C25.8357 133.027 26.1458 133.131 26.5057 133.131C26.8655 133.131 27.1709 133.029 27.4219 132.825C27.6776 132.617 27.8717 132.321 28.0043 131.938C28.1416 131.549 28.2102 131.085 28.2102 130.545C28.2102 130.006 28.1416 129.544 28.0043 129.161C27.8717 128.772 27.6776 128.476 27.4219 128.273C27.1709 128.064 26.8655 127.96 26.5057 127.96C26.1458 127.96 25.8357 128.064 25.5753 128.273C25.3196 128.476 25.1207 128.772 24.9787 129.161C24.8414 129.544 24.7727 130.006 24.7727 130.545ZM35.9393 140.091C35.4895 140.091 35.061 140.055 34.6538 139.984C34.2466 139.918 33.8891 139.826 33.5813 139.707L34.4336 136.923C34.7556 137.037 35.0491 137.11 35.3143 137.143C35.5842 137.177 35.8138 137.158 36.0032 137.087C36.1973 137.016 36.337 136.881 36.4222 136.682L36.5075 136.483L32.6722 125.091H36.7631L38.5245 132.648H38.6381L40.4279 125.091H44.5472L40.57 136.909C40.3711 137.51 40.0823 138.05 39.7035 138.528C39.3294 139.011 38.837 139.393 38.2262 139.672C37.6154 139.951 36.8531 140.091 35.9393 140.091ZM49.6467 140.091V125.091H53.5387V126.994H53.6239C53.766 126.625 53.9743 126.286 54.2489 125.979C54.5236 125.666 54.8645 125.418 55.2717 125.233C55.6789 125.044 56.1523 124.949 56.6921 124.949C57.4118 124.949 58.096 125.141 58.7447 125.524C59.3981 125.908 59.9284 126.511 60.3356 127.335C60.7475 128.159 60.9535 129.229 60.9535 130.545C60.9535 131.805 60.757 132.849 60.364 133.678C59.9757 134.506 59.4549 135.124 58.8015 135.531C58.1528 135.938 57.4402 136.142 56.6637 136.142C56.1523 136.142 55.6954 136.059 55.293 135.893C54.8952 135.723 54.5543 135.493 54.2702 135.205C53.9909 134.911 53.7754 134.58 53.6239 134.21H53.5671V140.091H49.6467ZM53.4819 130.545C53.4819 131.076 53.5505 131.535 53.6879 131.923C53.8299 132.307 54.0288 132.605 54.2844 132.818C54.5449 133.027 54.855 133.131 55.2148 133.131C55.5747 133.131 55.8801 133.029 56.131 132.825C56.3867 132.617 56.5808 132.321 56.7134 131.938C56.8507 131.549 56.9194 131.085 56.9194 130.545C56.9194 130.006 56.8507 129.544 56.7134 129.161C56.5808 128.772 56.3867 128.476 56.131 128.273C55.8801 128.064 55.5747 127.96 55.2148 127.96C54.855 127.96 54.5449 128.064 54.2844 128.273C54.0288 128.476 53.8299 128.772 53.6879 129.161C53.5505 129.544 53.4819 130.006 53.4819 130.545ZM62.5959 136V125.091H66.4027V127.165H66.5163C66.7152 126.398 67.0301 125.837 67.4609 125.482C67.8965 125.126 68.4055 124.949 68.9879 124.949C69.1584 124.949 69.3265 124.963 69.4922 124.991C69.6626 125.015 69.826 125.051 69.9822 125.098V128.443C69.7881 128.377 69.549 128.327 69.2649 128.294C68.9808 128.261 68.737 128.244 68.5334 128.244C68.1499 128.244 67.8042 128.332 67.4964 128.507C67.1934 128.678 66.9543 128.919 66.7791 129.232C66.6039 129.539 66.5163 129.902 66.5163 130.318V136H62.5959ZM75.8984 136.199C74.7147 136.199 73.7015 135.964 72.8587 135.496C72.0159 135.022 71.3696 134.364 70.9197 133.521C70.4699 132.674 70.245 131.691 70.245 130.574C70.245 129.456 70.4699 128.476 70.9197 127.634C71.3696 126.786 72.0159 126.128 72.8587 125.659C73.7015 125.186 74.7147 124.949 75.8984 124.949C77.0821 124.949 78.0954 125.186 78.9382 125.659C79.781 126.128 80.4273 126.786 80.8771 127.634C81.3269 128.476 81.5518 129.456 81.5518 130.574C81.5518 131.691 81.3269 132.674 80.8771 133.521C80.4273 134.364 79.781 135.022 78.9382 135.496C78.0954 135.964 77.0821 136.199 75.8984 136.199ZM75.9268 133.301C76.2583 133.301 76.5447 133.19 76.7862 132.967C77.0277 132.745 77.2147 132.428 77.3473 132.016C77.4799 131.604 77.5462 131.114 77.5462 130.545C77.5462 129.973 77.4799 129.482 77.3473 129.075C77.2147 128.663 77.0277 128.346 76.7862 128.124C76.5447 127.901 76.2583 127.79 75.9268 127.79C75.5765 127.79 75.2758 127.901 75.0249 128.124C74.7739 128.346 74.5821 128.663 74.4496 129.075C74.317 129.482 74.2507 129.973 74.2507 130.545C74.2507 131.114 74.317 131.604 74.4496 132.016C74.5821 132.428 74.7739 132.745 75.0249 132.967C75.2758 133.19 75.5765 133.301 75.9268 133.301ZM83.1428 136V125.091H86.8643V127.165H86.978C87.2053 126.483 87.5935 125.943 88.1428 125.545C88.692 125.148 89.3454 124.949 90.103 124.949C90.87 124.949 91.5305 125.152 92.0845 125.56C92.6385 125.962 92.9723 126.497 93.0859 127.165H93.1996C93.3842 126.497 93.7772 125.962 94.3786 125.56C94.9799 125.152 95.6854 124.949 96.495 124.949C97.5414 124.949 98.389 125.285 99.0376 125.957C99.6911 126.63 100.018 127.525 100.018 128.642V136H96.0973V129.636C96.0973 129.158 95.9766 128.784 95.7351 128.514C95.4936 128.24 95.1693 128.102 94.7621 128.102C94.3596 128.102 94.04 128.24 93.8033 128.514C93.5713 128.784 93.4553 129.158 93.4553 129.636V136H89.7053V129.636C89.7053 129.158 89.5845 128.784 89.343 128.514C89.1016 128.24 88.7772 128.102 88.37 128.102C88.1001 128.102 87.8681 128.164 87.674 128.287C87.4799 128.41 87.3284 128.588 87.2195 128.82C87.1153 129.047 87.0632 129.319 87.0632 129.636V136H83.1428ZM107.207 136.199C106.023 136.199 105.01 135.964 104.167 135.496C103.324 135.022 102.678 134.364 102.228 133.521C101.779 132.674 101.554 131.691 101.554 130.574C101.554 129.456 101.779 128.476 102.228 127.634C102.678 126.786 103.324 126.128 104.167 125.659C105.01 125.186 106.023 124.949 107.207 124.949C108.391 124.949 109.404 125.186 110.247 125.659C111.09 126.128 111.736 126.786 112.186 127.634C112.636 128.476 112.86 129.456 112.86 130.574C112.86 131.691 112.636 132.674 112.186 133.521C111.736 134.364 111.09 135.022 110.247 135.496C109.404 135.964 108.391 136.199 107.207 136.199ZM107.235 133.301C107.567 133.301 107.853 133.19 108.095 132.967C108.336 132.745 108.523 132.428 108.656 132.016C108.788 131.604 108.855 131.114 108.855 130.545C108.855 129.973 108.788 129.482 108.656 129.075C108.523 128.663 108.336 128.346 108.095 128.124C107.853 127.901 107.567 127.79 107.235 127.79C106.885 127.79 106.584 127.901 106.333 128.124C106.083 128.346 105.891 128.663 105.758 129.075C105.626 129.482 105.559 129.973 105.559 130.545C105.559 131.114 105.626 131.604 105.758 132.016C105.891 132.428 106.083 132.745 106.333 132.967C106.584 133.19 106.885 133.301 107.235 133.301ZM120.957 125.091V127.932H113.77V125.091H120.957ZM115.162 122.477H119.082V132.491C119.082 132.643 119.108 132.771 119.16 132.875C119.212 132.974 119.293 133.05 119.402 133.102C119.511 133.15 119.65 133.173 119.821 133.173C119.939 133.173 120.076 133.159 120.233 133.131C120.394 133.102 120.512 133.079 120.588 133.06L121.156 135.815C120.981 135.867 120.73 135.931 120.403 136.007C120.081 136.083 119.698 136.133 119.252 136.156C118.353 136.204 117.598 136.111 116.987 135.879C116.376 135.643 115.917 135.271 115.609 134.764C115.301 134.258 115.152 133.623 115.162 132.861V122.477ZM122.557 136V125.091H126.477V136H122.557ZM124.517 123.955C123.987 123.955 123.532 123.779 123.153 123.429C122.775 123.079 122.585 122.657 122.585 122.165C122.585 121.672 122.775 121.251 123.153 120.901C123.532 120.55 123.987 120.375 124.517 120.375C125.052 120.375 125.507 120.55 125.881 120.901C126.259 121.251 126.449 121.672 126.449 122.165C126.449 122.657 126.259 123.079 125.881 123.429C125.507 123.779 125.052 123.955 124.517 123.955ZM132.395 129.864V136H128.475V125.091H132.196V127.165H132.31C132.547 126.473 132.963 125.931 133.56 125.538C134.161 125.145 134.862 124.949 135.662 124.949C136.434 124.949 137.104 125.126 137.672 125.482C138.245 125.832 138.688 126.315 139 126.93C139.318 127.546 139.474 128.249 139.469 129.04V136H135.549V129.864C135.553 129.324 135.416 128.9 135.137 128.592C134.862 128.285 134.479 128.131 133.986 128.131C133.664 128.131 133.382 128.202 133.141 128.344C132.904 128.481 132.722 128.68 132.594 128.94C132.466 129.196 132.4 129.504 132.395 129.864ZM146.66 140.318C145.566 140.318 144.629 140.162 143.848 139.849C143.071 139.542 142.467 139.116 142.037 138.571C141.61 138.031 141.371 137.411 141.319 136.71H145.098C145.136 136.942 145.23 137.129 145.382 137.271C145.533 137.413 145.727 137.515 145.964 137.577C146.206 137.643 146.475 137.676 146.774 137.676C147.28 137.676 147.699 137.553 148.031 137.307C148.367 137.061 148.535 136.616 148.535 135.972V134.125H148.422C148.279 134.494 148.062 134.809 147.768 135.07C147.475 135.325 147.122 135.522 146.71 135.659C146.298 135.792 145.846 135.858 145.353 135.858C144.577 135.858 143.862 135.678 143.208 135.318C142.56 134.958 142.039 134.388 141.646 133.607C141.258 132.825 141.064 131.805 141.064 130.545C141.064 129.229 141.267 128.159 141.674 127.335C142.086 126.511 142.617 125.908 143.265 125.524C143.919 125.141 144.605 124.949 145.325 124.949C145.865 124.949 146.338 125.044 146.745 125.233C147.153 125.418 147.493 125.666 147.768 125.979C148.043 126.286 148.251 126.625 148.393 126.994H148.478V125.091H152.399V135.972C152.399 136.895 152.16 137.679 151.681 138.322C151.208 138.971 150.54 139.466 149.679 139.807C148.817 140.148 147.811 140.318 146.66 140.318ZM146.802 133.074C147.162 133.074 147.47 132.974 147.725 132.776C147.986 132.572 148.185 132.283 148.322 131.909C148.464 131.53 148.535 131.076 148.535 130.545C148.535 130.006 148.464 129.544 148.322 129.161C148.185 128.772 147.986 128.476 147.725 128.273C147.47 128.064 147.162 127.96 146.802 127.96C146.442 127.96 146.135 128.064 145.879 128.273C145.628 128.476 145.434 128.772 145.297 129.161C145.164 129.544 145.098 130.006 145.098 130.545C145.098 131.085 145.164 131.545 145.297 131.923C145.434 132.297 145.628 132.584 145.879 132.783C146.135 132.977 146.442 133.074 146.802 133.074Z" fill="#E7EDFF"/><path d="M109.268 64.1705C108.572 64.1705 107.957 64.0568 107.422 63.8295C106.892 63.5975 106.475 63.2472 106.172 62.7784C105.869 62.3097 105.717 61.7131 105.717 60.9886C105.717 60.392 105.819 59.883 106.023 59.4616C106.226 59.0355 106.51 58.6875 106.875 58.4176C107.24 58.1477 107.663 57.9418 108.146 57.7997C108.634 57.6577 109.16 57.5653 109.723 57.5227C110.334 57.4754 110.824 57.4186 111.193 57.3523C111.567 57.2812 111.837 57.1842 112.003 57.0611C112.169 56.9332 112.251 56.7652 112.251 56.5568V56.5284C112.251 56.2443 112.143 56.0265 111.925 55.875C111.707 55.7235 111.428 55.6477 111.087 55.6477C110.713 55.6477 110.407 55.7306 110.17 55.8963C109.938 56.0573 109.799 56.3059 109.751 56.642H106.143C106.191 55.9792 106.402 55.3684 106.776 54.8097C107.154 54.2462 107.706 53.7964 108.43 53.4602C109.155 53.1193 110.059 52.9489 111.143 52.9489C111.925 52.9489 112.625 53.0412 113.246 53.2259C113.866 53.4058 114.394 53.6591 114.83 53.9858C115.265 54.3078 115.597 54.6866 115.824 55.1222C116.056 55.553 116.172 56.0218 116.172 56.5284V64H112.507V62.4659H112.422C112.204 62.8731 111.939 63.2022 111.626 63.4531C111.319 63.7041 110.966 63.8864 110.568 64C110.175 64.1136 109.742 64.1705 109.268 64.1705ZM110.547 61.6989C110.845 61.6989 111.125 61.6373 111.385 61.5142C111.65 61.3911 111.866 61.2135 112.031 60.9815C112.197 60.7495 112.28 60.4678 112.28 60.1364V59.2273C112.176 59.2699 112.064 59.3101 111.946 59.348C111.832 59.3859 111.709 59.4214 111.577 59.4545C111.449 59.4877 111.312 59.5185 111.165 59.5469C111.023 59.5753 110.874 59.6013 110.717 59.625C110.414 59.6723 110.166 59.7505 109.972 59.8594C109.782 59.9635 109.64 60.0938 109.545 60.25C109.455 60.4015 109.411 60.572 109.411 60.7614C109.411 61.0644 109.517 61.2964 109.73 61.4574C109.943 61.6184 110.215 61.6989 110.547 61.6989ZM124.579 53.0909V55.9318H117.278V53.0909H124.579ZM118.67 64V52.7784C118.67 51.8788 118.831 51.133 119.153 50.5412C119.475 49.9493 119.93 49.5066 120.517 49.2131C121.104 48.9195 121.795 48.7727 122.591 48.7727C123.088 48.7727 123.571 48.8106 124.039 48.8864C124.513 48.9621 124.863 49.0284 125.091 49.0852L124.522 51.8977C124.38 51.8551 124.215 51.822 124.025 51.7983C123.836 51.7699 123.67 51.7557 123.528 51.7557C123.159 51.7557 122.91 51.8338 122.782 51.9901C122.654 52.1463 122.591 52.3523 122.591 52.608V64H118.67ZM132.626 53.0909V55.9318H125.325V53.0909H132.626ZM126.717 64V52.7784C126.717 51.8788 126.878 51.133 127.2 50.5412C127.522 49.9493 127.976 49.5066 128.564 49.2131C129.151 48.9195 129.842 48.7727 130.637 48.7727C131.135 48.7727 131.618 48.8106 132.086 48.8864C132.56 48.9621 132.91 49.0284 133.137 49.0852L132.569 51.8977C132.427 51.8551 132.261 51.822 132.072 51.7983C131.883 51.7699 131.717 51.7557 131.575 51.7557C131.206 51.7557 130.957 51.8338 130.829 51.9901C130.701 52.1463 130.637 52.3523 130.637 52.608V64H126.717ZM134.139 64V53.0909H138.059V64H134.139ZM136.099 51.9545C135.569 51.9545 135.114 51.7794 134.735 51.429C134.357 51.0786 134.167 50.6572 134.167 50.1648C134.167 49.6723 134.357 49.2509 134.735 48.9006C135.114 48.5502 135.569 48.375 136.099 48.375C136.634 48.375 137.089 48.5502 137.463 48.9006C137.842 49.2509 138.031 49.6723 138.031 50.1648C138.031 50.6572 137.842 51.0786 137.463 51.429C137.089 51.7794 136.634 51.9545 136.099 51.9545ZM143.977 49.4545V64H140.057V49.4545H143.977ZM145.975 64V53.0909H149.895V64H145.975ZM147.935 51.9545C147.405 51.9545 146.95 51.7794 146.571 51.429C146.193 51.0786 146.003 50.6572 146.003 50.1648C146.003 49.6723 146.193 49.2509 146.571 48.9006C146.95 48.5502 147.405 48.375 147.935 48.375C148.47 48.375 148.925 48.5502 149.299 48.9006C149.677 49.2509 149.867 49.6723 149.867 50.1648C149.867 50.6572 149.677 51.0786 149.299 51.429C148.925 51.7794 148.47 51.9545 147.935 51.9545ZM154.933 64.1705C154.237 64.1705 153.621 64.0568 153.086 63.8295C152.556 63.5975 152.139 63.2472 151.836 62.7784C151.533 62.3097 151.381 61.7131 151.381 60.9886C151.381 60.392 151.483 59.883 151.687 59.4616C151.89 59.0355 152.174 58.6875 152.539 58.4176C152.904 58.1477 153.327 57.9418 153.81 57.7997C154.298 57.6577 154.824 57.5653 155.387 57.5227C155.998 57.4754 156.488 57.4186 156.857 57.3523C157.231 57.2812 157.501 57.1842 157.667 57.0611C157.833 56.9332 157.915 56.7652 157.915 56.5568V56.5284C157.915 56.2443 157.807 56.0265 157.589 55.875C157.371 55.7235 157.092 55.6477 156.751 55.6477C156.377 55.6477 156.071 55.7306 155.835 55.8963C155.603 56.0573 155.463 56.3059 155.415 56.642H151.808C151.855 55.9792 152.066 55.3684 152.44 54.8097C152.818 54.2462 153.37 53.7964 154.094 53.4602C154.819 53.1193 155.723 52.9489 156.808 52.9489C157.589 52.9489 158.29 53.0412 158.91 53.2259C159.53 53.4058 160.058 53.6591 160.494 53.9858C160.929 54.3078 161.261 54.6866 161.488 55.1222C161.72 55.553 161.836 56.0218 161.836 56.5284V64H158.171V62.4659H158.086C157.868 62.8731 157.603 63.2022 157.29 63.4531C156.983 63.7041 156.63 63.8864 156.232 64C155.839 64.1136 155.406 64.1705 154.933 64.1705ZM156.211 61.6989C156.509 61.6989 156.789 61.6373 157.049 61.5142C157.314 61.3911 157.53 61.2135 157.695 60.9815C157.861 60.7495 157.944 60.4678 157.944 60.1364V59.2273C157.84 59.2699 157.728 59.3101 157.61 59.348C157.496 59.3859 157.373 59.4214 157.241 59.4545C157.113 59.4877 156.976 59.5185 156.829 59.5469C156.687 59.5753 156.538 59.6013 156.381 59.625C156.078 59.6723 155.83 59.7505 155.636 59.8594C155.446 59.9635 155.304 60.0938 155.21 60.25C155.12 60.4015 155.075 60.572 155.075 60.7614C155.075 61.0644 155.181 61.2964 155.394 61.4574C155.607 61.6184 155.879 61.6989 156.211 61.6989ZM170.215 53.0909V55.9318H163.027V53.0909H170.215ZM164.419 50.4773H168.34V60.4915C168.34 60.643 168.366 60.7708 168.418 60.875C168.47 60.9744 168.551 61.0502 168.659 61.1023C168.768 61.1496 168.908 61.1733 169.078 61.1733C169.197 61.1733 169.334 61.1591 169.49 61.1307C169.651 61.1023 169.77 61.0786 169.846 61.0597L170.414 63.8153C170.239 63.8674 169.988 63.9313 169.661 64.0071C169.339 64.0829 168.955 64.1326 168.51 64.1562C167.611 64.2036 166.855 64.1113 166.245 63.8793C165.634 63.6425 165.175 63.2708 164.867 62.7642C164.559 62.2576 164.41 61.6231 164.419 60.8608V50.4773ZM176.925 64.1989C175.76 64.1989 174.756 63.9763 173.913 63.5312C173.075 63.0814 172.429 62.4375 171.974 61.5994C171.525 60.7566 171.3 59.7481 171.3 58.5739C171.3 57.447 171.527 56.4621 171.982 55.6193C172.436 54.7765 173.078 54.1207 173.906 53.652C174.735 53.1832 175.713 52.9489 176.839 52.9489C177.663 52.9489 178.409 53.0767 179.077 53.3324C179.744 53.5881 180.315 53.9598 180.788 54.4474C181.262 54.9304 181.626 55.5175 181.882 56.2088C182.138 56.9001 182.266 57.679 182.266 58.5455V59.4545H172.521V57.2955H178.658C178.653 56.983 178.572 56.7083 178.416 56.4716C178.265 56.2301 178.059 56.0431 177.798 55.9105C177.543 55.7732 177.251 55.7045 176.925 55.7045C176.607 55.7045 176.316 55.7732 176.051 55.9105C175.786 56.0431 175.573 56.2277 175.412 56.4645C175.256 56.7012 175.173 56.9782 175.163 57.2955V59.625C175.163 59.9754 175.237 60.2879 175.384 60.5625C175.53 60.8371 175.741 61.0526 176.016 61.2088C176.29 61.3651 176.622 61.4432 177.01 61.4432C177.28 61.4432 177.526 61.4053 177.749 61.3295C177.976 61.2538 178.17 61.1449 178.331 61.0028C178.492 60.8561 178.61 60.6809 178.686 60.4773H182.266C182.143 61.2348 181.851 61.893 181.392 62.4517C180.933 63.0057 180.324 63.4366 179.567 63.7443C178.814 64.0473 177.933 64.1989 176.925 64.1989ZM20.9943 92.0909V77.0909H24.8864V78.9943H24.9716C25.1136 78.625 25.322 78.2865 25.5966 77.9787C25.8712 77.6662 26.2121 77.4176 26.6193 77.233C27.0265 77.0436 27.5 76.9489 28.0398 76.9489C28.7595 76.9489 29.4437 77.1406 30.0923 77.5241C30.7457 77.9077 31.276 78.5114 31.6832 79.3352C32.0952 80.1591 32.3011 81.2292 32.3011 82.5455C32.3011 83.8049 32.1046 84.849 31.7116 85.6776C31.3234 86.5062 30.8026 87.1241 30.1491 87.5312C29.5005 87.9384 28.7879 88.142 28.0114 88.142C27.5 88.142 27.0431 88.0592 26.6406 87.8935C26.2429 87.723 25.902 87.4934 25.6179 87.2045C25.3385 86.911 25.1231 86.5795 24.9716 86.2102H24.9148V92.0909H20.9943ZM24.8295 82.5455C24.8295 83.0758 24.8982 83.535 25.0355 83.9233C25.1776 84.3068 25.3764 84.6051 25.6321 84.8182C25.8925 85.0265 26.2027 85.1307 26.5625 85.1307C26.9223 85.1307 27.2277 85.0289 27.4787 84.8253C27.7344 84.617 27.9285 84.321 28.0611 83.9375C28.1984 83.5492 28.267 83.0852 28.267 82.5455C28.267 82.0057 28.1984 81.544 28.0611 81.1605C27.9285 80.7723 27.7344 80.4763 27.4787 80.2727C27.2277 80.0644 26.9223 79.9602 26.5625 79.9602C26.2027 79.9602 25.8925 80.0644 25.6321 80.2727C25.3764 80.4763 25.1776 80.7723 25.0355 81.1605C24.8982 81.544 24.8295 82.0057 24.8295 82.5455ZM33.9435 88V77.0909H37.7504V79.1648H37.864C38.0629 78.3977 38.3777 77.8366 38.8086 77.4815C39.2442 77.1264 39.7532 76.9489 40.3356 76.9489C40.506 76.9489 40.6741 76.9631 40.8398 76.9915C41.0103 77.0152 41.1737 77.0507 41.3299 77.098V80.4432C41.1358 80.3769 40.8967 80.3272 40.6126 80.294C40.3285 80.2609 40.0846 80.2443 39.881 80.2443C39.4975 80.2443 39.1519 80.3319 38.8441 80.5071C38.5411 80.6776 38.302 80.919 38.1268 81.2315C37.9516 81.5393 37.864 81.9015 37.864 82.3182V88H33.9435ZM47.2461 88.1989C46.0624 88.1989 45.0491 87.9645 44.2063 87.4957C43.3635 87.0223 42.7172 86.3641 42.2674 85.5213C41.8176 84.6738 41.5927 83.6913 41.5927 82.5739C41.5927 81.4564 41.8176 80.4763 42.2674 79.6335C42.7172 78.786 43.3635 78.1278 44.2063 77.6591C45.0491 77.1856 46.0624 76.9489 47.2461 76.9489C48.4298 76.9489 49.4431 77.1856 50.2859 77.6591C51.1287 78.1278 51.775 78.786 52.2248 79.6335C52.6746 80.4763 52.8995 81.4564 52.8995 82.5739C52.8995 83.6913 52.6746 84.6738 52.2248 85.5213C51.775 86.3641 51.1287 87.0223 50.2859 87.4957C49.4431 87.9645 48.4298 88.1989 47.2461 88.1989ZM47.2745 85.3011C47.6059 85.3011 47.8924 85.1899 48.1339 84.9673C48.3754 84.7448 48.5624 84.4276 48.695 84.0156C48.8275 83.6037 48.8938 83.1136 48.8938 82.5455C48.8938 81.9725 48.8275 81.4825 48.695 81.0753C48.5624 80.6634 48.3754 80.3461 48.1339 80.1236C47.8924 79.901 47.6059 79.7898 47.2745 79.7898C46.9241 79.7898 46.6235 79.901 46.3725 80.1236C46.1216 80.3461 45.9298 80.6634 45.7972 81.0753C45.6647 81.4825 45.5984 81.9725 45.5984 82.5455C45.5984 83.1136 45.6647 83.6037 45.7972 84.0156C45.9298 84.4276 46.1216 84.7448 46.3725 84.9673C46.6235 85.1899 46.9241 85.3011 47.2745 85.3011ZM59.7461 92.3182C58.6523 92.3182 57.7148 92.1619 56.9336 91.8494C56.1571 91.5417 55.5534 91.1155 55.1225 90.571C54.6964 90.0313 54.4573 89.411 54.4052 88.7102H58.1836C58.2215 88.9422 58.3162 89.1293 58.4677 89.2713C58.6192 89.4134 58.8133 89.5152 59.0501 89.5767C59.2915 89.643 59.5614 89.6761 59.8597 89.6761C60.3664 89.6761 60.7854 89.553 61.1168 89.3068C61.453 89.0606 61.6211 88.6155 61.6211 87.9716V86.125H61.5075C61.3654 86.4943 61.1476 86.8092 60.854 87.0696C60.5605 87.3253 60.2077 87.5218 59.7958 87.6591C59.3839 87.7917 58.9317 87.858 58.4393 87.858C57.6628 87.858 56.9478 87.678 56.2944 87.3182C55.6457 86.9583 55.1249 86.3878 54.7319 85.6065C54.3436 84.8253 54.1495 83.8049 54.1495 82.5455C54.1495 81.2292 54.3531 80.1591 54.7603 79.3352C55.1722 78.5114 55.7025 77.9077 56.3512 77.5241C57.0046 77.1406 57.6912 76.9489 58.4109 76.9489C58.9506 76.9489 59.4241 77.0436 59.8313 77.233C60.2385 77.4176 60.5794 77.6662 60.854 77.9787C61.1287 78.2865 61.337 78.625 61.479 78.9943H61.5643V77.0909H65.4847V87.9716C65.4847 88.8949 65.2456 89.6785 64.7674 90.3224C64.2939 90.9711 63.6263 91.4659 62.7646 91.8068C61.9028 92.1477 60.8967 92.3182 59.7461 92.3182ZM59.8881 85.0739C60.248 85.0739 60.5558 84.9744 60.8114 84.7756C61.0719 84.572 61.2707 84.2831 61.408 83.9091C61.5501 83.5303 61.6211 83.0758 61.6211 82.5455C61.6211 82.0057 61.5501 81.544 61.408 81.1605C61.2707 80.7723 61.0719 80.4763 60.8114 80.2727C60.5558 80.0644 60.248 79.9602 59.8881 79.9602C59.5283 79.9602 59.2205 80.0644 58.9648 80.2727C58.7139 80.4763 58.5198 80.7723 58.3825 81.1605C58.2499 81.544 58.1836 82.0057 58.1836 82.5455C58.1836 83.0852 58.2499 83.5445 58.3825 83.9233C58.5198 84.2973 58.7139 84.5838 58.9648 84.7827C59.2205 84.9768 59.5283 85.0739 59.8881 85.0739ZM67.4787 88V77.0909H71.2855V79.1648H71.3991C71.598 78.3977 71.9129 77.8366 72.3438 77.4815C72.7794 77.1264 73.2884 76.9489 73.8707 76.9489C74.0412 76.9489 74.2093 76.9631 74.375 76.9915C74.5455 77.0152 74.7088 77.0507 74.8651 77.098V80.4432C74.6709 80.3769 74.4318 80.3272 74.1477 80.294C73.8636 80.2609 73.6198 80.2443 73.4162 80.2443C73.0327 80.2443 72.687 80.3319 72.3793 80.5071C72.0762 80.6776 71.8371 80.919 71.6619 81.2315C71.4867 81.5393 71.3991 81.9015 71.3991 82.3182V88H67.4787ZM78.6825 88.1705C77.9865 88.1705 77.371 88.0568 76.8359 87.8295C76.3056 87.5975 75.889 87.2472 75.5859 86.7784C75.2829 86.3097 75.1314 85.7131 75.1314 84.9886C75.1314 84.392 75.2332 83.883 75.4368 83.4616C75.6404 83.0355 75.9245 82.6875 76.2891 82.4176C76.6536 82.1477 77.0774 81.9418 77.5604 81.7997C78.0481 81.6577 78.5736 81.5653 79.1371 81.5227C79.7479 81.4754 80.2379 81.4186 80.6072 81.3523C80.9813 81.2812 81.2512 81.1842 81.4169 81.0611C81.5826 80.9332 81.6655 80.7652 81.6655 80.5568V80.5284C81.6655 80.2443 81.5566 80.0265 81.3388 79.875C81.121 79.7235 80.8416 79.6477 80.5007 79.6477C80.1267 79.6477 79.8213 79.7306 79.5845 79.8963C79.3525 80.0573 79.2128 80.3059 79.1655 80.642H75.5575C75.6049 79.9792 75.8156 79.3684 76.1896 78.8097C76.5684 78.2462 77.12 77.7964 77.8445 77.4602C78.5689 77.1193 79.4732 76.9489 80.5575 76.9489C81.3388 76.9489 82.0395 77.0412 82.6598 77.2259C83.2801 77.4058 83.808 77.6591 84.2436 77.9858C84.6792 78.3078 85.0107 78.6866 85.2379 79.1222C85.4699 79.553 85.5859 80.0218 85.5859 80.5284V88H81.9212V86.4659H81.8359C81.6181 86.8731 81.353 87.2022 81.0405 87.4531C80.7327 87.7041 80.38 87.8864 79.9822 88C79.5893 88.1136 79.156 88.1705 78.6825 88.1705ZM79.9609 85.6989C80.2592 85.6989 80.5386 85.6373 80.799 85.5142C81.0642 85.3911 81.2796 85.2135 81.4453 84.9815C81.611 84.7495 81.6939 84.4678 81.6939 84.1364V83.2273C81.5897 83.2699 81.4785 83.3101 81.3601 83.348C81.2464 83.3859 81.1233 83.4214 80.9908 83.4545C80.8629 83.4877 80.7256 83.5185 80.5788 83.5469C80.4368 83.5753 80.2876 83.6013 80.1314 83.625C79.8284 83.6723 79.5798 83.7505 79.3857 83.8594C79.1963 83.9635 79.0542 84.0938 78.9595 84.25C78.8696 84.4015 78.8246 84.572 78.8246 84.7614C78.8246 85.0644 78.9311 85.2964 79.1442 85.4574C79.3572 85.6184 79.6295 85.6989 79.9609 85.6989ZM87.4592 88V77.0909H91.1808V79.1648H91.2944C91.5217 78.483 91.9099 77.9432 92.4592 77.5455C93.0084 77.1477 93.6618 76.9489 94.4194 76.9489C95.1864 76.9489 95.8469 77.1525 96.4009 77.5597C96.9549 77.9621 97.2887 78.4972 97.4023 79.1648H97.516C97.7006 78.4972 98.0936 77.9621 98.695 77.5597C99.2963 77.1525 100.002 76.9489 100.811 76.9489C101.858 76.9489 102.705 77.285 103.354 77.9574C104.007 78.6297 104.334 79.5246 104.334 80.642V88H100.414V81.6364C100.414 81.1581 100.293 80.7841 100.051 80.5142C99.81 80.2396 99.4857 80.1023 99.0785 80.1023C98.676 80.1023 98.3564 80.2396 98.1197 80.5142C97.8877 80.7841 97.7717 81.1581 97.7717 81.6364V88H94.0217V81.6364C94.0217 81.1581 93.9009 80.7841 93.6594 80.5142C93.418 80.2396 93.0936 80.1023 92.6864 80.1023C92.4165 80.1023 92.1845 80.1638 91.9904 80.2869C91.7963 80.41 91.6448 80.5876 91.5359 80.8196C91.4317 81.0469 91.3796 81.3191 91.3796 81.6364V88H87.4592Z" fill="url(#paint2_linear_132_160)"/><mask id="mask0_132_160" style="mask-type:luminance" maskUnits="userSpaceOnUse" x="208" y="-28" width="173" height="264"><path d="M220.123 218.306L208 -24.8672C254.944 -37.9844 377.804 -5.66767 377.804 -5.66767C379.085 -5.66767 380.127 -4.62587 380.127 -3.34502V220.332C380.127 221.613 379.085 222.654 377.804 222.654C377.805 222.654 287.16 255.075 220.123 218.306Z" fill="white"/></mask><g mask="url(#mask0_132_160)"><path d="M360.795 129.05L344.461 170.914C342.066 177.051 345.615 183.895 352.011 185.474C357.25 186.767 362.648 184.036 364.709 179.049L383.436 133.744C383.436 133.744 366.727 122.052 360.795 129.05Z" fill="url(#paint3_linear_132_160)"/><path d="M282.185 23.3928L316.738 55.7316C336.373 74.1081 360.393 87.1425 386.503 93.5873L392.956 95.1804C395.521 108.808 392.048 122.877 383.436 133.746L376.983 132.153C350.873 125.708 323.548 126.067 297.616 133.197L251.983 145.742L282.185 23.3928Z" fill="url(#paint4_linear_132_160)"/><path d="M255.354 81.6714C247.014 115.457 245.505 144.142 251.985 145.741C258.463 147.341 270.476 121.248 278.815 87.4626C287.155 53.6771 288.664 24.9921 282.185 23.3928C275.706 21.7935 263.693 47.885 255.354 81.6714Z" fill="url(#paint5_linear_132_160)"/><mask id="mask1_132_160" style="mask-type:luminance" maskUnits="userSpaceOnUse" x="247" y="23" width="40" height="123"><path d="M278.817 87.4461C287.155 53.6591 288.661 24.9731 282.182 23.3741C275.703 21.7752 263.691 47.8687 255.353 81.6557C247.015 115.443 245.508 144.129 251.988 145.728C258.467 147.327 270.479 121.233 278.817 87.4461Z" fill="white"/></mask><g mask="url(#mask1_132_160)"><path d="M269.472 99.5036L275.943 101.101C283.412 102.945 290.961 98.385 292.804 90.9161C294.648 83.4471 290.088 75.8987 282.619 74.0551L276.148 72.4575C268.679 70.6139 261.131 75.1736 259.287 82.6426C257.443 90.1107 262.003 97.6599 269.472 99.5036Z" fill="url(#paint6_radial_132_160)"/></g></g><path d="M313.049 165C319.953 165 325.549 159.404 325.549 152.5C325.549 145.596 319.953 140 313.049 140C306.145 140 300.549 145.596 300.549 152.5C300.549 159.404 306.145 165 313.049 165Z" fill="url(#paint7_linear_132_160)"/><path d="M313.049 163.011C318.854 163.011 323.56 158.305 323.56 152.5C323.56 146.695 318.854 141.989 313.049 141.989C307.244 141.989 302.538 146.695 302.538 152.5C302.538 158.305 307.244 163.011 313.049 163.011Z" fill="url(#paint8_linear_132_160)"/><path d="M314.054 158.317V160.093H312.467V158.363C310.896 158.268 309.389 157.777 308.517 157.095L309.389 155.159C310.183 155.746 311.325 156.175 312.467 156.285V153.636C310.706 153.207 308.739 152.62 308.739 150.351C308.739 148.67 309.96 147.226 312.467 146.94V145.179H314.054V146.909C315.243 147.004 316.402 147.321 317.274 147.876L316.482 149.828C315.673 149.367 314.847 149.099 314.055 149.002V151.7C315.816 152.112 317.751 152.699 317.751 154.936C317.75 156.587 316.545 158.015 314.054 158.317ZM312.467 151.304V149.05C311.627 149.24 311.293 149.701 311.293 150.225C311.293 150.78 311.769 151.082 312.467 151.304ZM315.196 155.127C315.196 154.572 314.736 154.27 314.054 154.033V156.222C314.847 156.048 315.196 155.636 315.196 155.127Z" fill="#FFC431"/><path d="M357.5 65C364.404 65 370 59.4036 370 52.5C370 45.5964 364.404 40 357.5 40C350.596 40 345 45.5964 345 52.5C345 59.4036 350.596 65 357.5 65Z" fill="url(#paint9_linear_132_160)"/><path d="M357.5 63.0108C363.305 63.0108 368.011 58.305 368.011 52.5C368.011 46.6951 363.305 41.9893 357.5 41.9893C351.695 41.9893 346.989 46.6951 346.989 52.5C346.989 58.305 351.695 63.0108 357.5 63.0108Z" fill="url(#paint10_linear_132_160)"/><path d="M358.505 58.3166V60.0932H356.918V58.3633C355.347 58.2683 353.84 57.7768 352.968 57.0945L353.84 55.1591C354.634 55.7463 355.776 56.1747 356.918 56.2853V53.6356C355.157 53.2072 353.19 52.62 353.19 50.3511C353.19 48.6696 354.411 47.2256 356.918 46.9405V45.1787H358.505V46.9086C359.694 47.0036 360.853 47.3206 361.725 47.8759L360.932 49.8277C360.124 49.3674 359.298 49.0987 358.506 49.0022V51.7001C360.267 52.1121 362.202 52.6994 362.202 54.9363C362.201 56.5867 360.996 58.0152 358.505 58.3166ZM356.918 51.3037V49.0504C356.078 49.2405 355.744 49.7008 355.744 50.225C355.744 50.7803 356.22 51.0817 356.918 51.3037ZM359.647 55.1271C359.647 54.5718 359.187 54.2704 358.505 54.0328V56.2222C359.298 56.0477 359.647 55.6357 359.647 55.1271Z" fill="#FFC431"/><path d="M248 28C252.418 28 256 24.4183 256 20C256 15.5817 252.418 12 248 12C243.582 12 240 15.5817 240 20C240 24.4183 243.582 28 248 28Z" fill="url(#paint11_linear_132_160)"/><path d="M248 26.727C251.715 26.727 254.727 23.7152 254.727 20.0001C254.727 16.2849 251.715 13.2732 248 13.2732C244.285 13.2732 241.273 16.2849 241.273 20.0001C241.273 23.7152 244.285 26.727 248 26.727Z" fill="url(#paint12_linear_132_160)"/><path d="M248.643 23.7227V24.8597H247.628V23.7526C246.622 23.6918 245.658 23.3772 245.099 22.9406L245.658 21.7019C246.166 22.0777 246.896 22.3519 247.628 22.4227V20.7269C246.501 20.4527 245.241 20.0769 245.241 18.6248C245.241 17.5486 246.023 16.6244 247.628 16.442V15.3145H248.643V16.4216C249.404 16.4824 250.146 16.6852 250.704 17.0407L250.197 18.2898C249.679 17.9952 249.151 17.8233 248.644 17.7615V19.4882C249.771 19.7519 251.009 20.1277 251.009 21.5593C251.009 22.6156 250.237 23.5298 248.643 23.7227ZM247.628 19.2344V17.7924C247.09 17.914 246.876 18.2086 246.876 18.5441C246.876 18.8995 247.181 19.0924 247.628 19.2344ZM249.374 21.6814C249.374 21.326 249.08 21.1331 248.643 20.9811V22.3823C249.15 22.2706 249.374 22.0069 249.374 21.6814Z" fill="#FFC431"/><path d="M26.1109 19.9379C25.7463 20.5468 24.9531 20.7475 24.3394 20.3858C23.7257 20.0241 23.5234 19.2372 23.888 18.6283C24.2525 18.0195 25.0457 17.8188 25.6595 18.1805C26.2732 18.5422 26.4755 19.329 26.1109 19.9379Z" fill="url(#paint13_linear_132_160)"/><path d="M21.6983 19.3687C21.4411 19.7984 20.8799 19.9401 20.4468 19.685C20.0136 19.4299 19.8707 18.8743 20.1279 18.4435C20.385 18.0126 20.9462 17.872 21.3794 18.1271C21.8137 18.3834 21.9566 18.939 21.6983 19.3687Z" fill="url(#paint14_linear_132_160)"/><path d="M33.9822 37.9299C38.7184 37.3777 42.5278 33.5362 42.8386 28.6471C43.1884 23.1457 38.9756 18.4051 33.4302 18.0593C32.7799 18.0185 32.1273 18.0412 31.4815 18.1251C30.1489 18.2328 29.0231 18.7373 29.0231 18.7373C28.1111 19.1795 27.5225 19.9188 27.5225 20.9075C27.5225 22.1933 28.5728 23.2364 29.8689 23.2364C30.086 23.2364 30.8358 23.0006 31.0141 22.9394C31.6952 22.7035 32.4176 22.606 33.1376 22.6525C35.0531 22.7727 36.6726 23.8657 37.5401 25.4157C38.043 26.3137 38.275 27.3353 38.2087 28.3603C38.0201 31.3253 35.4451 33.5782 32.4553 33.3911C30.6895 33.28 29.1751 32.3423 28.2688 30.9828C27.1853 29.5769 27.4356 27.3285 27.4345 27.3001C27.3899 26.0495 26.3578 25.0494 25.0869 25.0494C24.0012 25.0494 23.0903 25.7808 22.8194 26.7729C22.7668 26.9679 22.7394 27.5394 22.7474 27.6153C22.5234 33.0215 26.6939 37.6396 32.1638 37.9809C32.7707 38.0183 33.3788 38.0013 33.9822 37.9299Z" fill="url(#paint15_linear_132_160)"/><path d="M24.7645 23.4981C24.2914 24.2884 23.2628 24.5481 22.4673 24.0787C21.6718 23.6093 21.4089 22.5888 21.8821 21.7996C22.3553 21.0105 23.3839 20.7497 24.1794 21.2191C24.9748 21.6885 25.2366 22.709 24.7645 23.4981Z" fill="url(#paint16_linear_132_160)"/></g><defs><filter id="filter0_f_132_160" x="40" y="-58" width="480" height="480" filterUnits="userSpaceOnUse" color-interpolation-filters="sRGB"><feFlood flood-opacity="0" result="BackgroundImageFix"/><feBlend mode="normal" in="SourceGraphic" in2="BackgroundImageFix" result="shape"/><feGaussianBlur stdDeviation="100" result="effect1_foregroundBlur_132_160"/></filter><filter id="filter1_f_132_160" x="-267" y="-44" width="480" height="480" filterUnits="userSpaceOnUse" color-interpolation-filters="sRGB"><feFlood flood-opacity="0" result="BackgroundImageFix"/><feBlend mode="normal" in="SourceGraphic" in2="BackgroundImageFix" result="shape"/><feGaussianBlur stdDeviation="100" result="effect1_foregroundBlur_132_160"/></filter><linearGradient id="paint0_linear_132_160" x1="122.842" y1="52.1819" x2="187.486" y2="52.1819" gradientUnits="userSpaceOnUse"><stop stop-color="#0D1328" stop-opacity="0"/><stop offset="1" stop-color="#0D1328"/></linearGradient><linearGradient id="paint1_linear_132_160" x1="188.932" y1="116.455" x2="-157.56" y2="116.455" gradientUnits="userSpaceOnUse"><stop stop-color="#0D1328"/><stop offset="0.0001" stop-color="#0D1328"/><stop offset="1" stop-color="#1C2235" stop-opacity="0"/></linearGradient><linearGradient id="paint2_linear_132_160" x1="76" y1="49" x2="189" y2="78" gradientUnits="userSpaceOnUse"><stop stop-color="#FFCD72"/><stop offset="1" stop-color="#FAA50A"/></linearGradient><linearGradient id="paint3_linear_132_160" x1="371.208" y1="160.34" x2="353.259" y2="153.263" gradientUnits="userSpaceOnUse"><stop stop-color="#F5F0FF"/><stop offset="0.6951" stop-color="#D2C1F7"/><stop offset="1" stop-color="#DCCEF9"/></linearGradient><linearGradient id="paint4_linear_132_160" x1="338.661" y1="66.3862" x2="310.634" y2="139.329" gradientUnits="userSpaceOnUse"><stop stop-color="#F59513"/><stop offset="0.3699" stop-color="#FAAD1E"/><stop offset="0.9959" stop-color="#F2830B"/></linearGradient><linearGradient id="paint5_linear_132_160" x1="254.05" y1="81.3501" x2="278.164" y2="87.301" gradientUnits="userSpaceOnUse"><stop stop-color="#E6971C"/><stop offset="0.9959" stop-color="#DE6D0A"/></linearGradient><radialGradient id="paint6_radial_132_160" cx="0" cy="0" r="1" gradientUnits="userSpaceOnUse" gradientTransform="translate(264.082 85.3227) rotate(-166.137) scale(20.3564 20.3564)"><stop stop-color="#FFD042"/><stop offset="1" stop-color="#F2830B"/></radialGradient><linearGradient id="paint7_linear_132_160" x1="319.645" y1="129.895" x2="310.842" y2="160.065" gradientUnits="userSpaceOnUse"><stop stop-color="#FFE14D"/><stop offset="1" stop-color="#F7A523"/></linearGradient><linearGradient id="paint8_linear_132_160" x1="318.595" y1="133.493" x2="311.194" y2="158.861" gradientUnits="userSpaceOnUse"><stop stop-color="#FAAD1E"/><stop offset="0.9959" stop-color="#F2830B"/></linearGradient><linearGradient id="paint9_linear_132_160" x1="364.095" y1="29.8948" x2="355.293" y2="60.0647" gradientUnits="userSpaceOnUse"><stop stop-color="#FFE14D"/><stop offset="1" stop-color="#F7A523"/></linearGradient><linearGradient id="paint10_linear_132_160" x1="363.046" y1="33.4928" x2="355.644" y2="58.8607" gradientUnits="userSpaceOnUse"><stop stop-color="#FAAD1E"/><stop offset="0.9959" stop-color="#F2830B"/></linearGradient><linearGradient id="paint11_linear_132_160" x1="252.221" y1="5.53266" x2="246.588" y2="24.8414" gradientUnits="userSpaceOnUse"><stop stop-color="#FFE14D"/><stop offset="1" stop-color="#F7A523"/></linearGradient><linearGradient id="paint12_linear_132_160" x1="251.549" y1="7.83545" x2="246.813" y2="24.0709" gradientUnits="userSpaceOnUse"><stop stop-color="#FAAD1E"/><stop offset="0.9959" stop-color="#F2830B"/></linearGradient><linearGradient id="paint13_linear_132_160" x1="26.2923" y1="19.2831" x2="23.7065" y2="19.2831" gradientUnits="userSpaceOnUse"><stop stop-color="#0BA2FB"/><stop offset="1" stop-color="#48E1F4"/></linearGradient><linearGradient id="paint14_linear_132_160" x1="21.8269" y1="18.906" x2="20" y2="18.906" gradientUnits="userSpaceOnUse"><stop stop-color="#0BA2FB"/><stop offset="1" stop-color="#48E1F4"/></linearGradient><linearGradient id="paint15_linear_132_160" x1="42.8589" y1="28.0199" x2="22.7388" y2="28.0199" gradientUnits="userSpaceOnUse"><stop stop-color="#0BA2FB"/><stop offset="1" stop-color="#48E1F4"/></linearGradient><linearGradient id="paint16_linear_132_160" x1="24.9994" y1="22.649" x2="21.6467" y2="22.649" gradientUnits="userSpaceOnUse"><stop stop-color="#0BA2FB"/><stop offset="1" stop-color="#48E1F4"/></linearGradient><clipPath id="clip0_132_160"><rect width="380" height="180" rx="16" fill="white"/></clipPath><clipPath id="clip1_132_160"><rect width="663" height="385" fill="white" transform="translate(-155 -140)"/></clipPath></defs></svg>