<svg xmlns="http://www.w3.org/2000/svg" width="156" height="31" viewBox="0 0 212 40" fill="none"><g clip-path="url(#clip0_969_24931)"><path d="M25.095 32.1875H22.604L19.6218 29.4792V28.0903L22.7092 25.1736V20.5555L26.744 17.9514L31.3402 21.3889L25.095 32.1875ZM14.78 24.8959L15.2361 20.5555L13.7274 16.6667H22.6391L21.1655 20.5555L21.5865 24.8959H18.1482H14.78ZM16.815 29.4792L13.8327 32.2222H11.3066L5.02634 21.3889L9.65758 17.9861L13.7274 20.5555V25.1736L16.815 28.0903V29.4792ZM11.2715 8.64587H25.06L26.709 15.5903H9.65758L11.2715 8.64587ZM18.1832 0L0.675781 10V30L18.1832 40L35.6908 30V10L18.1832 0Z" fill="#5F6579" fill-opacity="0.4"/><path d="M119.088 16.528V24.0974C119.088 25.4516 119.79 26.0071 121.018 26.0071H122.421V29.1669H119.965C117.369 29.1669 115.51 28.021 115.51 24.653V16.528H113.545V13.5071H115.51V9.271H119.088V13.5071H122.421V16.528H119.088Z" fill="#5F6579" fill-opacity="0.4"/><path d="M92.6694 13.1597L84.7754 33.5763H81.1614L82.8807 29.2707L76.1094 13.1597H79.9334L84.5294 25.0694L88.9507 13.1597H92.6694Z" fill="#5F6579" fill-opacity="0.4"/><path d="M47.3047 21.2846C47.3047 25.6943 50.708 29.2707 55.3392 29.2707C58.3565 29.2707 60.1458 28.0554 61.6896 26.4235L59.5494 24.3054C58.4267 25.4165 57.1987 26.2151 55.5146 26.2151C52.778 26.2151 50.8483 23.9929 50.8483 21.2151C50.8483 18.5068 52.7429 16.2846 55.3392 16.2846C57.1285 16.2846 58.2864 17.0485 59.374 18.1943L61.5844 15.8332C60.1458 14.2707 58.3214 13.1943 55.3743 13.1943C50.743 13.1943 47.3047 16.8749 47.3047 21.2846Z" fill="#5F6579" fill-opacity="0.4"/><path d="M64.8809 29.2708H68.4596V23.0902C68.4596 18.993 70.6349 16.9791 73.7576 16.9791H73.9683V13.2291C71.2316 13.0902 69.4423 14.6874 68.4596 16.9791V13.2291H64.8809V29.2708Z" fill="#5F6579" fill-opacity="0.4"/><path fill-rule="evenodd" clip-rule="evenodd" d="M98.7388 26.5277C99.8262 27.9513 101.44 29.2361 104.001 29.2361C107.72 29.2361 111.264 26.3194 111.264 21.1805C111.264 16.0416 107.685 13.1597 104.001 13.1597C101.51 13.1597 99.8962 14.4444 98.7388 16.0416V13.1597H95.1602V33.5763H98.7388V26.5277ZM98.6682 21.2152C98.6682 18.1944 100.773 16.2499 103.194 16.2499C105.615 16.2499 107.65 18.1597 107.65 21.2152C107.65 24.2707 105.65 26.1805 103.194 26.1805C100.809 26.1805 98.6682 24.2361 98.6682 21.2152Z" fill="#5F6579" fill-opacity="0.4"/><path fill-rule="evenodd" clip-rule="evenodd" d="M125.438 21.2846C125.438 25.6943 128.946 29.2707 133.683 29.2707C138.525 29.2707 142.033 25.5901 142.033 21.2151C142.033 16.7707 138.525 13.1943 133.753 13.1943C128.982 13.1943 125.438 16.8401 125.438 21.2846ZM128.982 21.1804C128.982 18.4721 130.805 16.2499 133.683 16.2499C136.489 16.2499 138.49 18.5068 138.42 21.2499C138.42 23.9582 136.595 26.1804 133.718 26.1804C130.946 26.1804 128.982 23.9235 128.982 21.1804Z" fill="#5F6579" fill-opacity="0.4"/><path fill-rule="evenodd" clip-rule="evenodd" d="M176.172 29.2707C171.436 29.2707 167.928 25.6943 167.928 21.2846C167.928 16.8401 171.471 13.1943 176.242 13.1943C181.014 13.1943 184.522 16.7707 184.522 21.2151C184.522 25.5901 180.979 29.2707 176.172 29.2707ZM176.172 16.2499C173.296 16.2499 171.471 18.4721 171.471 21.1804C171.471 23.9235 173.436 26.1804 176.208 26.1804C179.084 26.1804 180.909 23.9582 180.909 21.2499C180.944 18.5068 178.979 16.2499 176.172 16.2499Z" fill="#5F6579" fill-opacity="0.4"/><path d="M211.187 19.0625C211.187 15.2777 209.117 13.1597 205.713 13.1597C203.363 13.1597 201.713 14.2361 200.415 15.9027C199.573 14.2708 198.029 13.1944 195.784 13.1944C193.398 13.1944 192.065 14.4791 191.047 15.8333V13.1944H187.469V29.2707H191.047V20.243C191.047 17.8471 192.416 16.3888 194.381 16.3888C196.345 16.3888 197.538 17.743 197.538 20.1388V29.2707H201.117V20.2083C201.117 17.743 202.521 16.3888 204.45 16.3888C206.45 16.3888 207.608 17.6735 207.608 20.1388V29.2361H211.187V19.0625Z" fill="#5F6579" fill-opacity="0.4"/><path d="M145.156 25.8334L146.7 24.9653H146.911L148.489 25.8334L148.595 26.007V27.8126L148.489 27.9862L146.911 28.8543H146.7L145.156 27.9862L145.051 27.8126V26.007L145.156 25.8334Z" fill="#5F6579" fill-opacity="0.4"/><path d="M151.542 21.0766C151.472 25.4863 154.805 29.1321 159.437 29.2363C162.489 29.3057 164.313 28.1252 165.892 26.4932L163.787 24.3404C162.664 25.4516 161.401 26.2154 159.717 26.1808C156.981 26.146 155.086 23.8891 155.156 21.1113C155.191 18.3682 157.121 16.2154 159.717 16.2502C161.507 16.2849 162.664 17.1182 163.717 18.264L165.962 15.9377C164.559 14.3404 162.735 13.2294 159.787 13.1599C155.121 13.0558 151.613 16.6668 151.542 21.0766Z" fill="#5F6579" fill-opacity="0.4"/></g><defs><clipPath id="clip0_969_24931"><rect width="210.667" height="40" fill="white" transform="translate(0.675781)"/></clipPath></defs></svg>