<svg xmlns="http://www.w3.org/2000/svg" width="156" height="31" viewBox="0 0 196 40" fill="none"><g clip-path="url(#clip0_969_24908)"><mask id="mask0_969_24908" style="mask-type:luminance" maskUnits="userSpaceOnUse" x="0" y="0" width="196" height="40"><path d="M195.088 0H0V40H195.088V0Z" fill="white"/></mask><g mask="url(#mask0_969_24908)"><path d="M41.2486 34.1195V7.4248H45.3328V40.0002H23.9434L41.2486 34.1195Z" fill="#5F6579" fill-opacity="0.4"/><path d="M34.6241 28.8281V9.74035L23.9434 13.4035V5.89474L41.2486 0V34.1053L23.9434 40V32.4912L34.6241 28.8281Z" fill="#5F6579" fill-opacity="0.4"/><path d="M15.6354 38.0492L21.3898 40.0001V32.4913L12.9687 29.6001L7.76172 35.3966L15.6354 38.0492Z" fill="#5F6579" fill-opacity="0.4"/><path d="M10.7226 9.72632L21.4033 13.3895V5.8807L4.08398 0V22.4842L10.7226 18.1474V9.72632Z" fill="#5F6579" fill-opacity="0.4"/><path d="M15.6354 38.049L7.74764 35.3823L3.53711 39.9999H21.3897L15.6354 38.049Z" fill="#5F6579" fill-opacity="0.4"/><path d="M4.08421 7.4248H0V25.2073L4.08421 22.4985V7.4248Z" fill="#5F6579" fill-opacity="0.4"/><path d="M22.6526 23.0736L16.014 17.8666L0 28.3649V40L16.014 22.3158L22.6526 25.8386L29.6561 17.2491L29.993 19.9579L32.2386 13.5298L26.3158 15.9298L28.8982 16.3368L22.6526 23.0736Z" fill="#5F6579" fill-opacity="0.4"/><path d="M67.495 21.4454C67.2423 19.5928 66.1195 18.5542 64.3651 18.5542C61.6564 18.5542 60.7722 21.5437 60.7722 23.9858C60.7722 26.3858 61.6423 29.277 64.2809 29.277C66.2458 29.277 67.3687 27.9156 67.6634 25.8805H71.7476C71.2002 30.3156 68.3651 32.7577 64.323 32.7577C59.6494 32.7577 56.5195 29.1788 56.5195 24.2103C56.5195 19.0033 59.3967 15.1577 64.4072 15.1577C68.0423 15.1577 71.3687 17.2349 71.6634 21.4875H67.495V21.4454Z" fill="#5F6579" fill-opacity="0.4"/><path d="M81.5852 15.1157C86.4694 15.1157 89.5993 18.5964 89.5993 23.9438C89.5993 29.235 86.4694 32.7157 81.5852 32.7157C76.7431 32.7157 73.6133 29.235 73.6133 23.9438C73.6273 18.5964 76.7431 15.1157 81.5852 15.1157ZM81.5852 29.2771C84.4624 29.2771 85.3326 26.6105 85.3326 23.9438C85.3326 21.2771 84.4624 18.5543 81.5852 18.5543C78.708 18.5543 77.8659 21.221 77.8659 23.9438C77.8799 26.6105 78.7501 29.2771 81.5852 29.2771Z" fill="#5F6579" fill-opacity="0.4"/><path d="M96.6882 12.9822H92.4355V9.17871H96.6882V12.9822ZM92.4355 15.5647H96.6882V32.3085H92.4355V15.5647Z" fill="#5F6579" fill-opacity="0.4"/><path d="M100.028 15.5647H104.071V17.8665H104.155C105.235 16.0138 107.074 15.1016 108.871 15.1016C113.376 15.1016 114.499 17.8665 114.499 21.9788V32.2524H110.246V22.8489C110.246 20.084 109.488 18.7367 107.537 18.7367C105.249 18.7367 104.239 20.1402 104.239 23.5366V32.3086H99.9863V15.5647H100.028Z" fill="#5F6579" fill-opacity="0.4"/><path d="M128.773 20.8559C128.267 18.3717 126.85 16.8279 124.436 16.8279C120.801 16.8279 119.06 20.4068 119.06 23.9296C119.06 27.5086 120.857 31.0314 124.436 31.0314C126.766 31.0314 128.688 29.0384 128.899 26.2875H130.78C130.274 30.3156 127.86 32.7577 124.436 32.7577C119.72 32.7577 117.18 28.7296 117.18 23.9296C117.18 19.1296 119.72 15.1016 124.436 15.1016C127.734 15.1016 130.232 16.9963 130.653 20.8419H128.773V20.8559Z" fill="#5F6579" fill-opacity="0.4"/><path d="M147.159 23.9296C147.159 28.7296 144.618 32.7577 139.903 32.7577C135.187 32.7577 132.646 28.7296 132.646 23.9296C132.646 19.1296 135.187 15.1016 139.903 15.1016C144.618 15.1016 147.159 19.1437 147.159 23.9296ZM134.485 23.9296C134.485 27.5086 136.282 31.0314 139.861 31.0314C143.496 31.0314 145.236 27.4524 145.236 23.9296C145.236 20.3507 143.439 16.8279 139.861 16.8279C136.282 16.8279 134.485 20.4068 134.485 23.9296Z" fill="#5F6579" fill-opacity="0.4"/><path d="M163.466 32.3089H161.754V29.137H161.712C160.926 31.3124 158.456 32.8001 156.21 32.8001C151.537 32.8001 149.291 28.6878 149.291 23.9721C149.291 19.2703 151.537 15.144 156.21 15.144C158.498 15.144 160.758 16.4071 161.544 18.8071H161.586V9.16504H163.466V32.3089ZM156.21 31.0878C160.21 31.0878 161.586 27.4247 161.586 23.9861C161.586 20.5475 160.168 16.8843 156.21 16.8843C152.617 16.8843 151.158 20.5475 151.158 23.9861C151.158 27.4247 152.631 31.0878 156.21 31.0878Z" fill="#5F6579" fill-opacity="0.4"/><path d="M168.183 24.4774C168.225 27.4668 169.643 31.0318 173.278 31.0318C176.029 31.0318 177.53 29.2633 178.12 26.7791H180.001C179.215 30.5826 177.166 32.744 173.278 32.744C168.394 32.744 166.316 28.6739 166.316 23.916C166.316 19.523 168.366 15.0879 173.278 15.0879C178.246 15.0879 180.197 19.7896 180.029 24.4493H168.183V24.4774ZM178.106 22.8072C178.022 19.7335 176.267 16.8423 173.222 16.8423C170.134 16.8423 168.464 19.7335 168.127 22.8072H178.106Z" fill="#5F6579" fill-opacity="0.4"/><path d="M186.75 23.621L181.248 15.6069H183.578L187.957 21.9368L192.252 15.6069H194.582L189.038 23.621L195.045 32.3087H192.673L187.831 25.2911L183.115 32.3087H180.785L186.75 23.621Z" fill="#5F6579" fill-opacity="0.4"/></g></g><defs><clipPath id="clip0_969_24908"><rect width="195.088" height="40" fill="white"/></clipPath></defs></svg>