<svg xmlns="http://www.w3.org/2000/svg" width="380" height="180" viewBox="0 0 380 180" fill="none"><g clip-path="url(#clip0_94_28)"><rect x="0.5" y="0.5" width="379" height="179" rx="15.5" fill="#040A20" stroke="#0F1830"/><g clip-path="url(#clip1_94_28)"><path d="M380.622 -76.3635H379.986V180.727H380.622V-76.3635Z" fill="#0D1328"/><path d="M123.32 52.1819H187.009V52.8182H123.32V52.1819Z" fill="url(#paint0_linear_94_28)"/><path d="M316.297 -75.7273H315.66V181.364H316.297V-75.7273Z" fill="#0D1328"/><path d="M380.623 52.1819H316.297V52.8182H380.623V52.1819Z" fill="#0D1328"/><path d="M380.623 116.455H316.297V117.091H380.623V116.455Z" fill="#0D1328"/><path d="M251.971 -75.7273H251.334V181.364H251.971V-75.7273Z" fill="#0D1328"/><path d="M316.297 52.1819H251.971V52.8182H316.297V52.1819Z" fill="#0D1328"/><path d="M316.297 116.455H251.971V117.091H316.297V116.455Z" fill="#0D1328"/><path d="M187.009 -75.7273H186.372V181.364H187.009V-75.7273Z" fill="#0D1328"/><path d="M251.334 52.1819H187.009V52.8182H251.334V52.1819Z" fill="#0D1328"/><path d="M251.334 116.455H187.009V117.091H251.334V116.455Z" fill="#0D1328"/><path d="M186.372 116.455H-155V117.091H186.372V116.455Z" fill="url(#paint1_linear_94_28)"/><path opacity="0.2" d="M191.521 134.671C191.743 133.611 193.257 133.611 193.479 134.671L194.532 139.695C194.613 140.083 194.917 140.387 195.305 140.469L200.329 141.521C201.389 141.743 201.389 143.257 200.329 143.479L195.305 144.532C194.917 144.613 194.613 144.917 194.532 145.305L193.479 150.329C193.257 151.389 191.743 151.389 191.521 150.329L190.469 145.305C190.387 144.917 190.083 144.613 189.695 144.532L184.671 143.479C183.611 143.257 183.611 141.743 184.671 141.521L189.695 140.469C190.083 140.387 190.387 140.083 190.469 139.695L191.521 134.671Z" fill="#E7EDFF"/><path opacity="0.2" d="M203.206 32.6452C203.386 31.7849 204.614 31.7849 204.794 32.6452L205.649 36.7231C205.715 37.0385 205.961 37.285 206.277 37.3511L210.355 38.2056C211.215 38.3858 211.215 39.6142 210.355 39.7944L206.277 40.6489C205.961 40.715 205.715 40.9615 205.649 41.2769L204.794 45.3548C204.614 46.2151 203.386 46.2151 203.206 45.3548L202.351 41.2769C202.285 40.9615 202.039 40.715 201.723 40.6489L197.645 39.7944C196.785 39.6142 196.785 38.3858 197.645 38.2056L201.723 37.3511C202.039 37.285 202.285 37.0385 202.351 36.7231L203.206 32.6452Z" fill="#E7EDFF"/><path opacity="0.2" d="M310.433 153.461C310.561 152.846 311.439 152.846 311.567 153.461L312.178 156.374C312.225 156.599 312.401 156.775 312.626 156.822L315.539 157.433C316.154 157.561 316.154 158.439 315.539 158.567L312.626 159.178C312.401 159.225 312.225 159.401 312.178 159.626L311.567 162.539C311.439 163.154 310.561 163.154 310.433 162.539L309.822 159.626C309.775 159.401 309.599 159.225 309.374 159.178L306.461 158.567C305.846 158.439 305.846 157.561 306.461 157.433L309.374 156.822C309.599 156.775 309.775 156.599 309.822 156.374L310.433 153.461Z" fill="#E7EDFF"/><path opacity="0.2" d="M359.433 18.4609C359.561 17.8464 360.439 17.8464 360.567 18.4609L361.178 21.3737C361.225 21.599 361.401 21.775 361.626 21.8222L364.539 22.4325C365.154 22.5613 365.154 23.4387 364.539 23.5674L361.626 24.1778C361.401 24.225 361.225 24.401 361.178 24.6263L360.567 27.5391C360.439 28.1536 359.561 28.1536 359.433 27.5391L358.822 24.6263C358.775 24.401 358.599 24.225 358.374 24.1778L355.461 23.5674C354.846 23.4387 354.846 22.5613 355.461 22.4325L358.374 21.8222C358.599 21.775 358.775 21.599 358.822 21.3737L359.433 18.4609Z" fill="#E7EDFF"/><path opacity="0.2" d="M330.433 39.4609C330.561 38.8464 331.439 38.8464 331.567 39.4609L332.178 42.3737C332.225 42.599 332.401 42.775 332.626 42.8222L335.539 43.4325C336.154 43.5613 336.154 44.4387 335.539 44.5674L332.626 45.1778C332.401 45.225 332.225 45.401 332.178 45.6263L331.567 48.5391C331.439 49.1536 330.561 49.1536 330.433 48.5391L329.822 45.6263C329.775 45.401 329.599 45.225 329.374 45.1778L326.461 44.5674C325.846 44.4387 325.846 43.5613 326.461 43.4325L329.374 42.8222C329.599 42.775 329.775 42.599 329.822 42.3737L330.433 39.4609Z" fill="#E7EDFF"/></g><path d="M25.1803 25.9072V25.3227C24.977 25.2906 24.7717 25.273 24.5658 25.27C22.5732 25.2658 20.809 26.5545 20.2106 28.4514C19.6122 30.3483 20.3185 32.4132 21.9543 33.549C20.729 32.2403 20.3887 30.3352 21.0856 28.6846C21.7824 27.0341 23.3861 25.9463 25.1803 25.9072Z" fill="#25F4EE"/><path d="M25.2908 32.5286C26.405 32.5271 27.3208 31.6511 27.3696 30.5403V20.6276H29.1843C29.1472 20.4205 29.1295 20.2104 29.1314 20H26.6495V29.9031C26.6082 31.0196 25.6902 31.9039 24.5707 31.9058C24.2362 31.9029 23.9071 31.8208 23.6106 31.6662C23.8028 31.9319 24.0551 32.1486 24.3471 32.2984C24.6391 32.4483 24.9625 32.5272 25.2908 32.5286ZM32.5736 23.991V23.44C31.9057 23.4402 31.2527 23.2435 30.6965 22.8746C31.1841 23.4403 31.843 23.8322 32.5736 23.991Z" fill="#25F4EE"/><path d="M30.6965 22.8748C30.1486 22.2522 29.8465 21.4517 29.8467 20.623H29.1842C29.2698 21.0812 29.448 21.5172 29.708 21.9043C29.968 22.2915 30.3044 22.6217 30.6965 22.8748ZM24.5659 27.7473C23.6099 27.7522 22.7798 28.4059 22.5527 29.3328C22.3257 30.2597 22.7598 31.2218 23.6058 31.6664C23.1474 31.0349 23.0827 30.2001 23.4382 29.5057C23.7937 28.8112 24.5094 28.3744 25.2909 28.375C25.4992 28.3776 25.7061 28.4098 25.9054 28.4708V25.9507C25.7019 25.9203 25.4966 25.9043 25.2909 25.9028H25.1804V27.8192C24.9802 27.7656 24.7732 27.7414 24.5659 27.7473Z" fill="#FE2C55"/><path d="M32.5736 23.991V25.9074C31.3372 25.905 30.133 25.5144 29.1314 24.7911V29.8265C29.1261 32.3391 27.0837 34.3732 24.566 34.3732C23.6309 34.3748 22.7184 34.0869 21.9543 33.5491C23.2295 34.9178 25.2141 35.3684 26.9571 34.6849C28.7 34.0013 29.8464 32.323 29.8467 30.4541V25.4331C30.8517 26.1517 32.0574 26.5372 33.2937 26.535V24.0676C33.0516 24.0669 32.8103 24.0412 32.5736 23.991Z" fill="#FE2C55"/><path d="M29.1313 29.8267V24.7913C30.136 25.5105 31.3419 25.896 32.5783 25.8932V23.9768C31.8478 23.8229 31.1873 23.4361 30.6964 22.8748C30.3042 22.6217 29.9679 22.2915 29.7079 21.9043C29.4479 21.5172 29.2697 21.0812 29.1841 20.623H27.3695V30.5405C27.3332 31.4253 26.7393 32.1901 25.8899 32.4461C25.0404 32.702 24.1217 32.3929 23.6009 31.676C22.7549 31.2314 22.3208 30.2692 22.5478 29.3424C22.7749 28.4155 23.6049 27.7618 24.561 27.7569C24.7694 27.7588 24.9765 27.7911 25.1755 27.8528V25.9363C23.3712 25.9668 21.7554 27.0584 21.0566 28.7188C20.3578 30.3793 20.7081 32.2949 21.9494 33.602C22.7211 34.1221 23.6349 34.3915 24.5658 34.3734C27.0835 34.3734 29.126 32.3393 29.1313 29.8267Z" fill="white"/><path d="M41.162 34.3792H38.538V25.8672H35.9191L35.9141 23.5339H44.0017L43.2592 25.8672H41.162V34.3792ZM62.4999 34.3792H59.881V25.8672H57.252L57.247 23.5339H65.5202L64.7777 25.8672H62.4999V34.3792ZM44.4934 26.9838H47.0872V34.3792H44.5134L44.4934 26.9838ZM51.4722 30.7791L50.7046 31.5202V34.3792H48.1158V23.5039H50.7046V28.556L53.2734 26.0525H56.3639L53.1178 29.1969L56.7553 34.3792H53.9005L51.4722 30.7791ZM78.916 30.7791L78.1735 31.5202V34.3792H75.5796L75.5545 23.5039H78.1735V28.556L80.7372 26.0525H83.8278L80.5817 29.1969L84.194 34.3792H81.3393L78.916 30.7791Z" fill="white"/><path d="M45.7927 26.1376C46.5132 26.1376 47.0972 25.5547 47.0972 24.8358C47.0972 24.1168 46.5132 23.5339 45.7927 23.5339C45.0723 23.5339 44.4883 24.1168 44.4883 24.8358C44.4883 25.5547 45.0723 26.1376 45.7927 26.1376Z" fill="white"/><path d="M65.1891 29.9532C65.1899 27.6432 66.9705 25.7223 69.2781 25.542H68.8917C66.5466 25.6785 64.7148 27.6163 64.7148 29.9607C64.7148 32.3051 66.5466 34.2429 68.8917 34.3794H69.2781C66.9647 34.1987 65.182 32.2689 65.1891 29.9532Z" fill="#25F4EE"/><path d="M70.2866 25.5266H69.8953C72.1954 25.7162 73.9653 27.6345 73.9653 29.9378C73.9653 32.2411 72.1954 34.1594 69.8953 34.349H70.2866C72.7361 34.349 74.7218 32.3673 74.7218 29.9228C74.7218 27.4783 72.7361 25.4966 70.2866 25.4966V25.5266Z" fill="#FE2C55"/><path d="M69.5843 32.1058C68.3928 32.1058 67.427 31.1419 67.427 29.9528C67.427 28.7637 68.3928 27.7998 69.5843 27.7998C70.7758 27.7998 71.7417 28.7637 71.7417 29.9528C71.7389 31.1408 70.7747 32.1031 69.5843 32.1058ZM69.5843 25.5266C67.1349 25.5266 65.1492 27.5083 65.1492 29.9528C65.1492 32.3974 67.1349 34.379 69.5843 34.379C72.0338 34.379 74.0195 32.3974 74.0195 29.9528C74.0195 28.7789 73.5522 27.6531 72.7204 26.823C71.8887 25.9929 70.7606 25.5266 69.5843 25.5266Z" fill="white"/><path d="M92 26L98 32" stroke="#484E63" stroke-width="1.5" stroke-linecap="round"/><path d="M98 26L92 32" stroke="#484E63" stroke-width="1.5" stroke-linecap="round"/><path d="M25.1477 61.4318V58.3636H26.5455V61.4318H25.1477ZM28.25 61.4318V58.3636H29.6477V61.4318H28.25ZM25.1477 80.1818V77.1136H26.5455V80.1818H25.1477ZM28.25 80.1818V77.1136H29.6477V80.1818H28.25ZM21.125 78V60.5455H28.6932C30.0227 60.5455 31.1392 60.7244 32.0426 61.0824C32.9517 61.4403 33.6364 61.946 34.0966 62.5994C34.5625 63.2528 34.7955 64.0227 34.7955 64.9091C34.7955 65.5511 34.6534 66.1364 34.3693 66.6648C34.0909 67.1932 33.6989 67.6364 33.1932 67.9943C32.6875 68.3466 32.0966 68.5909 31.4205 68.7273V68.8977C32.1705 68.9261 32.8523 69.1165 33.4659 69.4688C34.0795 69.8153 34.5682 70.2955 34.9318 70.9091C35.2955 71.517 35.4773 72.233 35.4773 73.0568C35.4773 74.0114 35.2273 74.8608 34.7273 75.6051C34.233 76.3494 33.5284 76.9347 32.6136 77.3608C31.6989 77.7869 30.608 78 29.3409 78H21.125ZM25.8636 74.2159H28.0795C28.875 74.2159 29.4716 74.0682 29.8693 73.7727C30.267 73.4716 30.4659 73.0284 30.4659 72.4432C30.4659 72.0341 30.3722 71.6875 30.1847 71.4034C29.9972 71.1193 29.7301 70.9034 29.3835 70.7557C29.0426 70.608 28.6307 70.5341 28.1477 70.5341H25.8636V74.2159ZM25.8636 67.6023H27.8068C28.2216 67.6023 28.5881 67.5369 28.9062 67.4062C29.2244 67.2756 29.4716 67.0881 29.6477 66.8438C29.8295 66.5938 29.9205 66.2898 29.9205 65.9318C29.9205 65.392 29.7273 64.9801 29.3409 64.696C28.9545 64.4062 28.4659 64.2614 27.875 64.2614H25.8636V67.6023ZM36.679 64.3636V60.5455H51.8494V64.3636H46.5994V78H41.929V64.3636H36.679ZM69.108 67.0909H64.3011C64.267 66.6932 64.1761 66.3324 64.0284 66.0085C63.8864 65.6847 63.6875 65.4062 63.4318 65.1733C63.1818 64.9347 62.8778 64.7528 62.5199 64.6278C62.1619 64.4972 61.7557 64.4318 61.3011 64.4318C60.5057 64.4318 59.8324 64.625 59.2812 65.0114C58.7358 65.3977 58.321 65.9517 58.0369 66.6733C57.7585 67.3949 57.6193 68.2614 57.6193 69.2727C57.6193 70.3409 57.7614 71.2358 58.0455 71.9574C58.3352 72.6733 58.7528 73.2131 59.2983 73.5767C59.8438 73.9347 60.5 74.1136 61.267 74.1136C61.7045 74.1136 62.0966 74.0597 62.4432 73.9517C62.7898 73.8381 63.0909 73.6761 63.3466 73.4659C63.6023 73.2557 63.8097 73.0028 63.9688 72.7074C64.1335 72.4062 64.2443 72.0682 64.3011 71.6932L69.108 71.7273C69.0511 72.4659 68.8438 73.2187 68.4858 73.9858C68.1278 74.7472 67.6193 75.4517 66.9602 76.0994C66.3068 76.7415 65.4972 77.2585 64.5312 77.6506C63.5653 78.0426 62.4432 78.2386 61.1648 78.2386C59.5625 78.2386 58.125 77.8949 56.8523 77.2074C55.5852 76.5199 54.5824 75.5085 53.8438 74.1733C53.1108 72.8381 52.7443 71.2045 52.7443 69.2727C52.7443 67.3295 53.1193 65.6932 53.8693 64.3636C54.6193 63.0284 55.6307 62.0199 56.9034 61.3381C58.1761 60.6506 59.5966 60.3068 61.1648 60.3068C62.267 60.3068 63.2813 60.4574 64.2074 60.7585C65.1335 61.0597 65.946 61.5 66.6449 62.0795C67.3438 62.6534 67.9063 63.3608 68.3324 64.2017C68.7585 65.0426 69.017 66.0057 69.108 67.0909ZM76.0391 78V60.5455H88.3118V64.3636H80.7777V67.3636H87.5618V71.1818H80.7777V78H76.0391ZM106.964 69.2727C106.964 71.2159 106.586 72.8551 105.83 74.1903C105.075 75.5199 104.055 76.5284 102.771 77.2159C101.487 77.8977 100.055 78.2386 98.4751 78.2386C96.8842 78.2386 95.4467 77.8949 94.1626 77.2074C92.8842 76.5142 91.8672 75.5028 91.1115 74.1733C90.3615 72.8381 89.9865 71.2045 89.9865 69.2727C89.9865 67.3295 90.3615 65.6932 91.1115 64.3636C91.8672 63.0284 92.8842 62.0199 94.1626 61.3381C95.4467 60.6506 96.8842 60.3068 98.4751 60.3068C100.055 60.3068 101.487 60.6506 102.771 61.3381C104.055 62.0199 105.075 63.0284 105.83 64.3636C106.586 65.6932 106.964 67.3295 106.964 69.2727ZM102.089 69.2727C102.089 68.2273 101.95 67.3466 101.671 66.6307C101.398 65.9091 100.992 65.3636 100.452 64.9943C99.9183 64.6193 99.2592 64.4318 98.4751 64.4318C97.6911 64.4318 97.0291 64.6193 96.4893 64.9943C95.9553 65.3636 95.549 65.9091 95.2706 66.6307C94.9979 67.3466 94.8615 68.2273 94.8615 69.2727C94.8615 70.3182 94.9979 71.2017 95.2706 71.9233C95.549 72.6392 95.9553 73.1847 96.4893 73.5597C97.0291 73.929 97.6911 74.1136 98.4751 74.1136C99.2592 74.1136 99.9183 73.929 100.452 73.5597C100.992 73.1847 101.398 72.6392 101.671 71.9233C101.95 71.2017 102.089 70.3182 102.089 69.2727ZM109.156 78V60.5455H116.69C117.986 60.5455 119.119 60.7812 120.091 61.2528C121.063 61.7244 121.818 62.4034 122.358 63.2898C122.898 64.1761 123.168 65.2386 123.168 66.4773C123.168 67.7273 122.889 68.7812 122.332 69.6392C121.781 70.4972 121.006 71.1449 120.006 71.5824C119.011 72.0199 117.849 72.2386 116.52 72.2386H112.02V68.5568H115.565C116.122 68.5568 116.597 68.4886 116.989 68.3523C117.386 68.2102 117.69 67.9858 117.901 67.679C118.116 67.3722 118.224 66.9716 118.224 66.4773C118.224 65.9773 118.116 65.571 117.901 65.2585C117.69 64.9403 117.386 64.7074 116.989 64.5597C116.597 64.4062 116.122 64.3295 115.565 64.3295H113.895V78H109.156ZM119.384 69.9886L123.747 78H118.599L114.338 69.9886H119.384ZM21.125 107V89.5455H33.7045V93.3636H25.8636V96.3636H33.0568V100.182H25.8636V103.182H33.6705V107H21.125ZM40.8274 89.5455L44.407 101.852H44.5433L48.1229 89.5455H53.4751L47.7138 107H41.2365L35.4751 89.5455H40.8274ZM55.1562 107V89.5455H67.7358V93.3636H59.8949V96.3636H67.0881V100.182H59.8949V103.182H67.7017V107H55.1562ZM70.0859 107V89.5455H77.62C78.9155 89.5455 80.049 89.7812 81.0206 90.2528C81.9922 90.7244 82.7479 91.4034 83.2876 92.2898C83.8274 93.1761 84.0973 94.2386 84.0973 95.4773C84.0973 96.7273 83.8189 97.7812 83.2621 98.6392C82.7109 99.4972 81.9354 100.145 80.9354 100.582C79.9411 101.02 78.7791 101.239 77.4496 101.239H72.9496V97.5568H76.495C77.0518 97.5568 77.5263 97.4886 77.9183 97.3523C78.3161 97.2102 78.62 96.9858 78.8303 96.679C79.0462 96.3722 79.1541 95.9716 79.1541 95.4773C79.1541 94.9773 79.0462 94.571 78.8303 94.2585C78.62 93.9403 78.3161 93.7074 77.9183 93.5597C77.5263 93.4062 77.0518 93.3295 76.495 93.3295H74.8246V107H70.0859ZM80.3132 98.9886L84.6768 107H79.5291L75.2678 98.9886H80.3132ZM84.581 89.5455H89.8651L93.2741 96.6364H93.4105L96.8196 89.5455H102.104L95.6946 101.511V107H90.9901V101.511L84.581 89.5455ZM119.339 98.2727C119.339 100.216 118.961 101.855 118.205 103.19C117.45 104.52 116.43 105.528 115.146 106.216C113.862 106.898 112.43 107.239 110.85 107.239C109.259 107.239 107.822 106.895 106.538 106.207C105.259 105.514 104.242 104.503 103.487 103.173C102.737 101.838 102.362 100.205 102.362 98.2727C102.362 96.3295 102.737 94.6932 103.487 93.3636C104.242 92.0284 105.259 91.0199 106.538 90.3381C107.822 89.6506 109.259 89.3068 110.85 89.3068C112.43 89.3068 113.862 89.6506 115.146 90.3381C116.43 91.0199 117.45 92.0284 118.205 93.3636C118.961 94.6932 119.339 96.3295 119.339 98.2727ZM114.464 98.2727C114.464 97.2273 114.325 96.3466 114.046 95.6307C113.773 94.9091 113.367 94.3636 112.827 93.9943C112.293 93.6193 111.634 93.4318 110.85 93.4318C110.066 93.4318 109.404 93.6193 108.864 93.9943C108.33 94.3636 107.924 94.9091 107.646 95.6307C107.373 96.3466 107.237 97.2273 107.237 98.2727C107.237 99.3182 107.373 100.202 107.646 100.923C107.924 101.639 108.33 102.185 108.864 102.56C109.404 102.929 110.066 103.114 110.85 103.114C111.634 103.114 112.293 102.929 112.827 102.56C113.367 102.185 113.773 101.639 114.046 100.923C114.325 100.202 114.464 99.3182 114.464 98.2727ZM136.634 89.5455V107H132.679L126.372 97.8295H126.27V107H121.531V89.5455H125.554L131.759 98.6818H131.895V89.5455H136.634ZM138.875 107V89.5455H151.455V93.3636H143.614V96.3636H150.807V100.182H143.614V103.182H151.42V107H138.875Z" fill="#E7EDFF"/><rect x="21" y="127" width="132" height="29" rx="6" fill="url(#paint2_linear_94_28)"/><path d="M42.9091 139.156C42.8097 138.811 42.67 138.505 42.4901 138.24C42.3101 137.97 42.09 137.743 41.8295 137.558C41.5739 137.369 41.2803 137.224 40.9489 137.125C40.6222 137.026 40.2599 136.976 39.8622 136.976C39.1188 136.976 38.4654 137.161 37.902 137.53C37.3433 137.899 36.9077 138.437 36.5952 139.142C36.2827 139.843 36.1264 140.7 36.1264 141.713C36.1264 142.726 36.2803 143.588 36.5881 144.298C36.8958 145.009 37.3314 145.551 37.8949 145.925C38.4583 146.294 39.1236 146.479 39.8906 146.479C40.5866 146.479 41.1809 146.356 41.6733 146.109C42.1705 145.858 42.5492 145.506 42.8097 145.051C43.0748 144.597 43.2074 144.059 43.2074 143.439L43.8324 143.531H40.0824V141.216H46.169V143.048C46.169 144.327 45.8991 145.425 45.3594 146.344C44.8196 147.258 44.0762 147.963 43.1293 148.46C42.1823 148.953 41.098 149.199 39.8764 149.199C38.5128 149.199 37.3149 148.898 36.2827 148.297C35.2505 147.691 34.4455 146.831 33.8679 145.719C33.295 144.601 33.0085 143.276 33.0085 141.741C33.0085 140.562 33.179 139.511 33.5199 138.588C33.8655 137.66 34.3485 136.874 34.9688 136.23C35.589 135.586 36.3111 135.096 37.1349 134.76C37.9588 134.424 38.8513 134.256 39.8125 134.256C40.6364 134.256 41.4034 134.376 42.1136 134.618C42.8239 134.855 43.4536 135.191 44.0028 135.626C44.5568 136.062 45.009 136.58 45.3594 137.182C45.7098 137.778 45.9347 138.437 46.0341 139.156H42.9091ZM51.5543 134.455V149H48.479V134.455H51.5543ZM56.7124 134.455L60.228 145.506H60.3629L63.8857 134.455H67.2947L62.2805 149H58.3175L53.2962 134.455H56.7124ZM69.0455 149V134.455H78.8466V136.99H72.1207V140.456H78.3423V142.991H72.1207V146.464H78.875V149H69.0455ZM83.7987 149H80.5032L85.5245 134.455H89.4876L94.5018 149H91.2063L87.5629 137.778H87.4492L83.7987 149ZM83.5927 143.283H91.3768V145.683H83.5927V143.283ZM98.0618 149L93.8999 134.455H97.2592L99.6669 144.561H99.7876L102.444 134.455H105.32L107.969 144.582H108.097L110.505 134.455H113.864L109.702 149H106.705L103.935 139.49H103.822L101.059 149H98.0618ZM116.553 149H113.257L118.278 134.455H122.241L127.256 149H123.96L120.317 137.778H120.203L116.553 149ZM116.347 143.283H124.131V145.683H116.347V143.283ZM126.67 134.455H130.114L133.431 140.719H133.573L136.89 134.455H140.335L135.029 143.858V149H131.975V143.858L126.67 134.455Z" fill="#E7EDFF"/><g filter="url(#filter0_f_94_28)"><circle cx="280" cy="182" r="40" fill="#48E1F4"/></g><g filter="url(#filter1_f_94_28)"><circle cx="-27" cy="196" r="40" fill="#0EA5FB"/></g><path d="M310.636 72.5325C309.463 75.2094 308.342 79.0328 308.651 83.4987C308.691 84.0684 308.765 84.6455 308.865 85.2264C307.082 85.5076 305.378 86.0226 303.955 86.8916C301.459 88.4153 300.326 89.1817 299.864 89.5544L294.209 79.4623C294.209 79.4623 303.07 73.1 310.636 72.5325Z" fill="#09357C"/><path d="M310.637 72.532C311.162 72.4927 311.681 72.4798 312.19 72.5005C320.038 72.8171 324.354 75.7386 324.354 75.7386L314.669 78.7153L321.864 86.0329C321.864 86.0329 314.911 84.272 308.866 85.226C308.765 84.645 308.691 84.068 308.652 83.4982C308.342 79.0327 309.464 75.2094 310.637 72.532Z" fill="#103E9B"/><path d="M299.864 89.5542L299.992 89.7823C299.992 89.7823 299.169 90.1144 299.864 89.5542Z" fill="#007EAF"/><path d="M240.354 85.6662L240.48 85.501C240.965 86.0177 240.354 85.6662 240.354 85.6662Z" fill="#007EAF"/><path d="M222.754 71.9652C222.754 71.9652 226.465 70.1426 232.664 70.7537C233.088 70.7956 233.517 70.8689 233.947 70.9646C233.675 73.1845 233.777 76.9681 236.001 81.9585C231.185 79.4894 223.582 80.3256 223.582 80.3256L230.036 75.3646L222.754 71.9652Z" fill="#103E9B"/><path d="M233.947 70.9646C239.81 72.2692 246.028 78.1921 246.028 78.1921L240.48 85.501C240.158 85.1577 239.352 84.4314 237.558 82.9612C237.089 82.5765 236.563 82.2465 236.001 81.9585C233.777 76.9676 233.675 73.1844 233.947 70.9646Z" fill="#09357C"/><path d="M260.271 82.7616C260.271 82.7616 254.168 78.9796 249.167 71.3571C244.166 63.7346 245.898 56.8427 245.898 56.8427L238.293 56.144C238.293 56.144 232.344 69.8019 244.141 82.169L260.271 82.7616Z" fill="#103E9B"/><path d="M261.709 56.56C262.059 57.6076 262.376 58.7022 262.664 59.8257C260.754 62.5626 257.369 68.0938 255.453 75.2652C254.745 72.8022 253.813 70.1653 252.607 67.7967C252.092 66.7871 251.431 65.8309 250.681 64.93C254.501 60.8875 257.544 55.126 259.335 51.2488C260.188 52.6681 260.992 54.4153 261.709 56.56Z" fill="#2753B7"/><path d="M265.456 84.9537L257.383 84.3935C257.383 84.3935 256.865 80.1764 255.453 75.265C257.369 68.0936 260.753 62.5624 262.664 59.8254C265.515 70.956 265.456 84.9537 265.456 84.9537Z" fill="#103E9B"/><path d="M244.186 59.3711C249.202 56.221 253.81 50.6553 256.192 47.4966C257.263 48.3669 258.332 49.5801 259.335 51.2496C257.544 55.1264 254.501 60.8884 250.681 64.9308C248.821 62.6967 246.398 60.8133 244.186 59.3711Z" fill="#3A6BCE"/><path d="M244.186 59.3716C241.021 57.3083 238.294 56.1447 238.294 56.1447C240.09 52.2218 245.931 46.5275 248.76 45.7547C250.434 45.2975 253.322 45.1655 256.192 47.4971C253.811 50.6558 249.203 56.2215 244.186 59.3716Z" fill="#2753B7"/><path d="M269.266 80.7663C269.266 80.7663 279.512 77.2988 285.801 68.5873C292.091 59.8762 293.571 52.5112 293.571 52.5112C293.571 52.5112 301.399 50.6032 305.956 58.045C310.513 65.4868 306.201 80.3717 291.351 82.8628L269.266 80.7663Z" fill="#103E9B"/><path d="M277.641 42.9694C278.066 42.7477 278.509 42.5304 278.968 42.3242C282.006 45.0327 286.628 49.6051 290.25 55.1415C288.33 55.848 286.343 57.0172 284.354 58.8264C282.832 60.2104 281.48 61.7691 280.279 63.4261C278.482 57.872 275.006 51.7948 272.544 47.8684C274.443 45.4493 276.244 43.697 277.641 42.9694Z" fill="#3A6BCE"/><path d="M278.968 42.3239C282.786 40.6105 287.838 39.7423 295.006 44.972C303.037 50.8306 305.956 58.0451 305.956 58.0451C305.956 58.0451 298.778 52.0028 290.249 55.1417C286.628 49.6049 282.005 45.0324 278.968 42.3239Z" fill="#2753B7"/><path d="M260.523 75.7231C261.073 72.6709 261.865 69.2383 263.007 65.7824C265.249 59.0014 269.06 52.3083 272.544 47.8687C275.006 51.7951 278.482 57.8723 280.279 63.4263C277.82 66.8197 275.998 70.6249 274.66 74.186L262.714 77.6194L260.523 75.7231Z" fill="#2753B7"/><path d="M262.714 77.6192L274.659 74.1858C272.001 81.2636 271.26 87.3779 271.26 87.3779L259.286 86.5472C259.286 86.5472 259.403 81.9243 260.522 75.7229L262.714 77.6192Z" fill="#103E9B"/><path d="M272.627 106.115L271.141 149.312L270.97 154.309L270.308 173.527L269.988 182.846L262.21 182.478L265.599 106.133L272.627 106.115Z" fill="#2753B7"/><path d="M265.599 106.133L265.872 99.9934L272.837 100.026L272.627 106.115L265.599 106.133Z" fill="#103E9B"/><path d="M263.598 106.138L263.916 99.9846L265.872 99.9937L265.599 106.133L263.598 106.138Z" fill="#EF9F20"/><path d="M265.599 106.133L262.21 182.478L259.67 182.357L263.598 106.138L265.599 106.133Z" fill="#FFBC45"/><path d="M209.52 159.528L209.081 165.016L227.216 180.819L207.889 179.903L209.52 159.528Z" fill="#F2336E"/><path d="M243.912 106.186L244.15 99.8931L263.915 99.9845L263.598 106.138L243.912 106.186Z" fill="#103E9B"/><path d="M263.598 106.138L259.67 182.357L241.073 181.476L243.913 106.186L263.598 106.138Z" fill="#2753B7"/><path d="M234.993 106.208L235.262 99.8521L242.082 99.8835L241.79 106.191L234.993 106.208Z" fill="#103E9B"/><path d="M232.727 159.757L232.884 156.038L233.216 148.204L233.883 132.44L234.992 106.208L241.79 106.191L238.315 181.345L231.827 181.038L232.013 176.626L232.727 159.757Z" fill="#2753B7"/><path d="M241.79 106.191L242.082 99.8838L244.15 99.8933L243.913 106.186L241.79 106.191Z" fill="#EF9F20"/><path d="M243.913 106.186L241.073 181.476L238.315 181.345L241.79 106.191L243.913 106.186Z" fill="#FFBC45"/><path d="M293.42 164.79L293.436 172.724L270.969 154.309L271.141 149.313L271.234 146.62L293.42 164.79Z" fill="#40E4FF"/><path d="M270.969 154.309L293.436 172.724L293.419 164.79L271.234 146.62L271.141 149.313L272.627 106.116L293.299 106.065L293.458 183.958L274.165 183.044L270.099 179.585L269.987 182.846L270.308 173.527L270.969 154.309ZM293.349 130.345L272.425 112.001L272.161 119.659L293.364 137.584L293.349 130.345Z" fill="#F2336E"/><path d="M272.425 112.001L293.349 130.345L293.364 137.584L272.161 119.659L272.425 112.001Z" fill="#40E4FF"/><path d="M274.165 183.044L269.987 182.846L270.099 179.586L274.165 183.044Z" fill="#40E4FF"/><path d="M272.836 100.026L293.287 100.12L293.3 106.065L272.627 106.116L272.836 100.026Z" fill="#CE1558"/><path d="M221.931 106.24L213.781 106.26L214.284 99.9763L221.931 106.24Z" fill="#16B4D8"/><path d="M221.932 106.24L214.285 99.9761L214.302 99.7549L235.262 99.8519L234.993 106.208L221.932 106.24Z" fill="#CE1558"/><path d="M209.081 165.017L209.52 159.528L209.678 157.551L232.014 176.626L231.827 181.038L227.216 180.82L209.081 165.017Z" fill="#40E4FF"/><path d="M233.216 148.204L232.884 156.039L232.829 157.341L211.191 138.632L211.614 133.353L211.878 130.05L233.216 148.204Z" fill="#40E4FF"/><path d="M232.829 157.34L232.884 156.038L232.727 159.757L232.014 176.626L209.678 157.551L211.192 138.632L232.829 157.34Z" fill="#F2336E"/><path d="M234.231 124.196L234.554 116.578L221.931 106.24L234.992 106.208L233.882 132.44L233.216 148.204L211.878 130.05L211.614 133.353L213.781 106.26L213.693 107.362L234.231 124.196Z" fill="#F2336E"/><path d="M234.554 116.578L234.232 124.196L213.693 107.362L213.781 106.26L221.931 106.24L234.554 116.578Z" fill="#40E4FF"/><path d="M262.489 80.8599L262.118 99.9757L240.699 99.8765L241.388 80.8401L262.489 80.8599Z" fill="#2753B7"/><path d="M270.732 80.8679L270.384 100.014L264.414 99.9867L264.718 80.8623L270.732 80.8679Z" fill="#2753B7"/><path d="M297.701 80.8932L296.475 98.5702L280.107 80.8768L272.196 80.8695L290.67 100.108L270.384 100.015L270.732 80.8682L297.701 80.8932Z" fill="#F2336E"/><path d="M264.718 80.8628L264.413 99.9872L262.119 99.9764L262.49 80.8606L264.718 80.8628Z" fill="#FFBC45"/><path d="M233.523 97.012C233.513 97.3182 233.502 97.6188 233.492 97.9116C233.503 97.6188 233.513 97.3186 233.523 97.012Z" fill="#F2336E"/><path d="M233.456 98.9216C233.466 98.6374 233.477 98.3433 233.488 98.0427C233.49 97.9991 233.491 97.956 233.493 97.912C233.503 97.6192 233.514 97.3186 233.524 97.0123C233.526 96.9653 233.527 96.9183 233.529 96.8709C233.539 96.575 233.549 96.274 233.559 95.9673C233.562 95.8906 233.564 95.8138 233.567 95.7366C233.577 95.4339 233.587 95.1263 233.597 94.8154C233.599 94.7529 233.6 94.6903 233.603 94.6273C233.613 94.3069 233.623 93.983 233.633 93.6552C233.635 93.5905 233.637 93.525 233.639 93.4599C233.65 93.12 233.66 92.7776 233.671 92.4321C233.672 92.4041 233.672 92.376 233.673 92.348C233.684 91.9875 233.695 91.6248 233.706 91.2603C233.706 91.2444 233.707 91.2284 233.707 91.2124C233.707 91.1939 233.708 91.1758 233.709 91.1572C233.721 90.7484 233.733 90.3374 233.744 89.9264C233.747 89.8375 233.75 89.7487 233.752 89.6594C233.763 89.2807 233.774 88.9021 233.785 88.5243C233.786 88.4777 233.787 88.4315 233.788 88.385C233.8 87.9869 233.811 87.5897 233.822 87.1955C233.823 87.1265 233.826 87.0579 233.827 86.9893C233.838 86.6111 233.848 86.2354 233.858 85.8632C233.86 85.7994 233.862 85.736 233.864 85.6726C233.873 85.3129 233.883 84.9571 233.892 84.6056C233.895 84.5176 233.897 84.4301 233.899 84.3425C233.909 83.982 233.918 83.6275 233.928 83.2781C233.929 83.2298 233.93 83.1815 233.932 83.1332C233.941 82.7834 233.95 82.4414 233.959 82.1059C233.961 82.0429 233.962 81.9791 233.964 81.917C233.973 81.5457 233.983 81.1842 233.992 80.8345L239.101 80.8392L238.849 99.8696L233.42 99.8446C233.431 99.5651 233.442 99.2731 233.453 98.9721C233.454 98.9548 233.455 98.9385 233.456 98.9216Z" fill="#2753B7"/><path d="M241.389 80.8405L240.7 99.877L238.85 99.8683L239.101 80.8384L241.389 80.8405Z" fill="#FFBC45"/><path d="M272.196 80.8699L280.107 80.8772L296.475 98.5706L296.367 100.135L290.67 100.109L272.196 80.8699Z" fill="#40E4FF"/><path d="M233.959 82.1054C233.95 82.4409 233.941 82.7834 233.932 83.1327C233.93 83.181 233.929 83.2293 233.928 83.2776C233.919 83.6265 233.909 83.9815 233.899 84.342C233.897 84.4296 233.894 84.5171 233.892 84.6051C233.883 84.9566 233.873 85.3124 233.863 85.6721C233.862 85.7355 233.86 85.7989 233.858 85.8627C233.848 86.2349 233.838 86.6106 233.827 86.9888C233.825 87.0578 233.823 87.1259 233.822 87.1949C233.811 87.5896 233.8 87.9864 233.788 88.3844C233.787 88.431 233.786 88.4772 233.784 88.5237C233.774 88.9015 233.763 89.2802 233.752 89.6589C233.75 89.7477 233.747 89.8366 233.744 89.9258C233.732 90.3368 233.721 90.7479 233.709 91.1567C233.708 91.1753 233.707 91.1938 233.707 91.2119L224.766 80.8245L233.991 80.8331C233.982 81.1833 233.973 81.5447 233.963 81.9156C233.962 81.979 233.96 82.0424 233.959 82.1054Z" fill="#F2336E"/><path d="M216.395 80.8169L224.766 80.8247L233.707 91.2121C233.706 91.2281 233.706 91.244 233.705 91.26C233.695 91.6244 233.684 91.9876 233.673 92.3477C233.672 92.3757 233.671 92.4038 233.671 92.4318C233.66 92.7772 233.649 93.1197 233.639 93.4595C233.637 93.5247 233.635 93.5898 233.633 93.6549C233.623 93.9827 233.613 94.3061 233.602 94.627C233.6 94.6896 233.599 94.7525 233.596 94.8151C233.586 95.1264 233.577 95.4335 233.567 95.7363C233.564 95.8135 233.561 95.8902 233.559 95.967C233.549 96.2732 233.539 96.5751 233.529 96.8706C233.527 96.918 233.526 96.965 233.524 97.012C233.514 97.3182 233.503 97.6188 233.492 97.9117C233.491 97.9557 233.489 97.9984 233.488 98.0424C233.477 98.343 233.466 98.6375 233.455 98.9213C233.454 98.9381 233.454 98.9545 233.454 98.9713C233.442 99.2719 233.431 99.5639 233.42 99.8438L232.954 99.8417L216.395 80.8169Z" fill="#40E4FF"/><path d="M216.395 80.8169L232.953 99.8413L210.885 99.7395L210.831 80.8118L216.395 80.8169Z" fill="#F2336E"/><path d="M319.003 92.378L318.179 110.811L316.753 110.113L317.287 91.4529L319.003 92.378Z" fill="#EF9F20"/><path d="M317.287 91.4532L316.753 110.113L310.267 106.938L311.107 88.1211L317.287 91.4532Z" fill="#103E9B"/><path d="M311.107 88.121L310.267 106.938L308.858 106.249L309.403 87.2024L311.107 88.121Z" fill="#EF9F20"/><path d="M321.336 93.6367L320.612 109.86L320.518 111.956L318.179 110.811L319.003 92.3782L321.336 93.6367Z" fill="#103E9B"/><path d="M307.096 89.8643L307.205 86.0181L309.403 87.2028L308.858 106.249L306.657 105.172L306.857 98.2113L307.096 89.8643Z" fill="#103E9B"/><path d="M330.959 110.775L330.936 117.055L320.519 111.956L325.727 114.506L330.959 110.775Z" fill="#CE1558"/><path d="M330.99 102.234L330.958 110.775L325.727 114.506L320.518 111.956L320.612 109.86L330.99 102.234Z" fill="#16B4D8"/><path d="M320.612 109.861L321.337 93.637L331.002 98.8477L330.99 102.234L320.612 109.861Z" fill="#CE1558"/><path d="M306.856 98.2109L306.657 105.171L301.928 102.857L306.856 98.2109Z" fill="#CE1558"/><path d="M307.206 86.0173L307.096 89.8635L296.367 100.134L297.702 80.8928L307.206 86.0173Z" fill="#CE1558"/><path d="M307.095 89.864L306.857 98.2111L301.928 102.857L296.367 100.135L307.095 89.864Z" fill="#16B4D8"/><path d="M314.392 115.606L314.314 108.919L315.921 109.706L315.998 116.332L314.392 115.606Z" fill="#BC740C"/><path d="M315.999 116.332L316.88 191.692L315.276 191.163L314.393 115.605L315.999 116.332Z" fill="#EF9F20"/><path d="M318.41 117.423L318.431 119.21L318.718 143.813L318.765 147.789L318.935 162.318L319.088 175.423L319.167 182.224L319.288 192.488L316.88 191.693L315.999 116.332L318.41 117.423Z" fill="#103E9B"/><path d="M315.998 116.332L315.921 109.706L318.333 110.887L318.41 117.423L315.998 116.332Z" fill="#042F75"/><path d="M314.393 115.605L315.275 191.163L309.165 189.145L308.273 112.837L314.393 115.605Z" fill="#103E9B"/><path d="M308.273 112.838L308.192 105.923L314.314 108.919L314.393 115.606L308.273 112.838Z" fill="#042F75"/><path d="M304.934 155.242L304.734 129.25L304.678 121.885L304.595 111.174L306.667 112.111L307.561 188.615L305.185 187.831L304.956 158.015L304.934 155.242Z" fill="#103E9B"/><path d="M304.595 111.174L304.541 104.136L306.585 105.137L306.667 112.111L304.595 111.174Z" fill="#042F75"/><path d="M306.667 112.111L306.585 105.136L308.193 105.923L308.273 112.837L306.667 112.111Z" fill="#BC740C"/><path d="M308.273 112.837L309.165 189.145L307.561 188.615L306.667 112.111L308.273 112.837Z" fill="#EF9F20"/><path d="M319.93 118.111L318.41 117.423L318.343 111.679L318.979 111.203L321.992 112.678L325.199 114.248L319.93 118.111Z" fill="#007EAF"/><path d="M325.2 114.248L321.993 112.678L325.683 114.484L325.778 120.755L319.931 118.11L325.2 114.248Z" fill="#A00444"/><path d="M318.343 111.679L318.41 117.423L318.334 110.887L318.98 111.203L318.343 111.679Z" fill="#A00444"/><path d="M319.167 182.224L319.088 175.422L326.511 169.425L326.616 176.404L319.167 182.224Z" fill="#16B4D8"/><path d="M326.616 176.404L326.896 195L319.288 192.488L319.167 182.224L326.616 176.404Z" fill="#CE1558"/><path d="M319.088 175.423L318.935 162.318L318.765 147.789L318.807 151.343L326.15 145.5L326.033 137.747L318.718 143.812L318.431 119.209L318.41 117.422L319.931 118.11L325.778 120.755L326.325 157.091L326.511 169.425L319.088 175.423Z" fill="#CE1558"/><path d="M326.033 137.747L326.15 145.5L318.807 151.343L318.765 147.789L318.718 143.812L326.033 137.747Z" fill="#16B4D8"/><path d="M296.367 100.135L304.542 104.136L304.595 111.174L293.3 106.065L293.288 100.12L296.367 100.135Z" fill="#A00444"/><path d="M304.934 155.242L304.956 158.015L304.989 162.336L293.433 171.53L293.43 169.979L293.419 164.79L304.934 155.242Z" fill="#16B4D8"/><path d="M304.989 162.336L304.956 158.015L305.186 187.831L304.153 187.49L293.459 183.959L293.43 169.979L293.434 171.53L304.989 162.336Z" fill="#CE1558"/><path d="M304.678 121.885L293.349 130.345L293.3 106.065L304.595 111.174L304.678 121.885Z" fill="#CE1558"/><path d="M304.678 121.885L304.734 129.25L293.364 137.584L293.349 130.345L304.678 121.885Z" fill="#16B4D8"/><path d="M304.734 129.25L304.934 155.242L293.419 164.79L293.364 137.584L304.734 129.25Z" fill="#CE1558"/><path d="M239.431 185.833L219.533 185.228L207.889 179.903L231.827 181.037L239.431 185.833Z" fill="#990A44"/><path d="M354.238 84.106C354.238 84.106 354.925 86.0351 357.527 86.6027C357.527 86.6027 362.435 77.1102 369.534 74.5358C369.534 74.5358 368.169 69.8137 364.268 67.7612C364.268 67.7612 356.671 75.0417 354.238 84.106Z" fill="#F2336E"/><path d="M353.489 67.253L348.634 67.419C348.634 67.419 348.759 56.392 342.757 50.6037L353.444 49.1978C353.444 49.1978 357.245 58.2155 353.489 67.253Z" fill="#FFBC45"/><path d="M339.422 98.7136L344.182 100.506C344.182 100.506 351.019 89.0572 347.58 80.5449L338.008 81.0103C338.008 81.0103 343.592 88.804 339.422 98.7136Z" fill="#2753B7"/><path d="M196.869 74.1421C196.869 74.1421 198.725 75.2742 201.252 74.0028C201.252 74.0028 198.954 62.8908 203.09 56.0208C203.09 56.0208 198.807 53.0376 194.216 53.9524C194.216 53.9524 192.816 65.0377 196.869 74.1421Z" fill="#FFBC45"/><path d="M184.984 60.7388L181.09 64.1209C181.09 64.1209 173.821 54.9397 165 54.1772L172.876 45.8733C172.876 45.8733 182.04 50.7722 184.984 60.7388Z" fill="#16B4D8"/><path d="M194.411 96.0976L199.536 94.3941C199.536 94.3941 197.523 80.3782 188.995 75.6548L181.409 82.438C181.409 82.438 191.227 85.1348 194.411 96.0976Z" fill="#F2336E"/><path d="M109.111 19.9379C108.746 20.5468 107.953 20.7475 107.339 20.3858C106.726 20.0241 106.523 19.2372 106.888 18.6283C107.253 18.0195 108.046 17.8188 108.659 18.1805C109.273 18.5422 109.476 19.329 109.111 19.9379Z" fill="url(#paint3_linear_94_28)"/><path d="M104.698 19.3687C104.441 19.7984 103.88 19.9401 103.447 19.685C103.014 19.4299 102.871 18.8743 103.128 18.4435C103.385 18.0126 103.946 17.872 104.379 18.1271C104.814 18.3834 104.957 18.939 104.698 19.3687Z" fill="url(#paint4_linear_94_28)"/><path d="M116.982 37.9299C121.718 37.3777 125.528 33.5362 125.839 28.6471C126.188 23.1457 121.976 18.4051 116.43 18.0593C115.78 18.0185 115.127 18.0412 114.482 18.1251C113.149 18.2328 112.023 18.7373 112.023 18.7373C111.111 19.1795 110.522 19.9188 110.522 20.9075C110.522 22.1933 111.573 23.2364 112.869 23.2364C113.086 23.2364 113.836 23.0006 114.014 22.9394C114.695 22.7035 115.418 22.606 116.138 22.6525C118.053 22.7727 119.673 23.8657 120.54 25.4157C121.043 26.3137 121.275 27.3353 121.209 28.3603C121.02 31.3253 118.445 33.5782 115.455 33.3911C113.689 33.28 112.175 32.3423 111.269 30.9828C110.185 29.5769 110.436 27.3285 110.434 27.3001C110.39 26.0495 109.358 25.0494 108.087 25.0494C107.001 25.0494 106.09 25.7808 105.819 26.7729C105.767 26.9679 105.739 27.5394 105.747 27.6153C105.523 33.0215 109.694 37.6396 115.164 37.9809C115.771 38.0183 116.379 38.0013 116.982 37.9299Z" fill="url(#paint5_linear_94_28)"/><path d="M107.765 23.4981C107.291 24.2884 106.263 24.5481 105.467 24.0787C104.672 23.6093 104.409 22.5888 104.882 21.7996C105.355 21.0105 106.384 20.7497 107.179 21.2191C107.975 21.6885 108.237 22.709 107.765 23.4981Z" fill="url(#paint6_linear_94_28)"/></g><defs><filter id="filter0_f_94_28" x="40" y="-58" width="480" height="480" filterUnits="userSpaceOnUse" color-interpolation-filters="sRGB"><feFlood flood-opacity="0" result="BackgroundImageFix"/><feBlend mode="normal" in="SourceGraphic" in2="BackgroundImageFix" result="shape"/><feGaussianBlur stdDeviation="100" result="effect1_foregroundBlur_94_28"/></filter><filter id="filter1_f_94_28" x="-267" y="-44" width="480" height="480" filterUnits="userSpaceOnUse" color-interpolation-filters="sRGB"><feFlood flood-opacity="0" result="BackgroundImageFix"/><feBlend mode="normal" in="SourceGraphic" in2="BackgroundImageFix" result="shape"/><feGaussianBlur stdDeviation="100" result="effect1_foregroundBlur_94_28"/></filter><linearGradient id="paint0_linear_94_28" x1="122.842" y1="52.1819" x2="187.486" y2="52.1819" gradientUnits="userSpaceOnUse"><stop stop-color="#0D1328" stop-opacity="0"/><stop offset="1" stop-color="#0D1328"/></linearGradient><linearGradient id="paint1_linear_94_28" x1="188.932" y1="116.455" x2="-157.56" y2="116.455" gradientUnits="userSpaceOnUse"><stop stop-color="#0D1328"/><stop offset="0.0001" stop-color="#0D1328"/><stop offset="1" stop-color="#1C2235" stop-opacity="0"/></linearGradient><linearGradient id="paint2_linear_94_28" x1="21" y1="141.5" x2="153" y2="141.5" gradientUnits="userSpaceOnUse"><stop stop-color="#48E1F4"/><stop offset="1" stop-color="#0BA2FB"/></linearGradient><linearGradient id="paint3_linear_94_28" x1="109.292" y1="19.2831" x2="106.707" y2="19.2831" gradientUnits="userSpaceOnUse"><stop stop-color="#0BA2FB"/><stop offset="1" stop-color="#48E1F4"/></linearGradient><linearGradient id="paint4_linear_94_28" x1="104.827" y1="18.906" x2="103" y2="18.906" gradientUnits="userSpaceOnUse"><stop stop-color="#0BA2FB"/><stop offset="1" stop-color="#48E1F4"/></linearGradient><linearGradient id="paint5_linear_94_28" x1="125.859" y1="28.0199" x2="105.739" y2="28.0199" gradientUnits="userSpaceOnUse"><stop stop-color="#0BA2FB"/><stop offset="1" stop-color="#48E1F4"/></linearGradient><linearGradient id="paint6_linear_94_28" x1="107.999" y1="22.649" x2="104.647" y2="22.649" gradientUnits="userSpaceOnUse"><stop stop-color="#0BA2FB"/><stop offset="1" stop-color="#48E1F4"/></linearGradient><clipPath id="clip0_94_28"><rect width="380" height="180" rx="16" fill="white"/></clipPath><clipPath id="clip1_94_28"><rect width="663" height="385" fill="white" transform="translate(-155 -140)"/></clipPath></defs></svg>